<svg width="35" height="35" viewBox="0 0 35 35" fill="none" xmlns="http://www.w3.org/2000/svg">
<mask id="mask0_421_8721" style="mask-type:alpha" maskUnits="userSpaceOnUse" x="0" y="0" width="35" height="35">
<rect width="35" height="35" transform="matrix(-1 0 0 1 35 0)" fill="#D9D9D9"/>
</mask>
<g mask="url(#mask0_421_8721)">
<path d="M8.02751 23.623C8.21433 23.4412 8.30774 23.2258 8.30774 22.977C8.30774 22.7286 8.21433 22.5135 8.02751 22.3316L2.55374 17.0022L8.04619 11.6546C8.22056 11.4848 8.30774 11.2726 8.30774 11.018C8.30774 10.7633 8.21433 10.5451 8.02751 10.3632C7.84069 10.1813 7.6195 10.0903 7.36393 10.0903C7.10887 10.0903 6.88792 10.1813 6.7011 10.3632L0.424019 16.4929C0.349291 16.5657 0.296236 16.6445 0.264851 16.7294C0.233963 16.8142 0.218519 16.9052 0.218519 17.0022C0.218519 17.0992 0.233963 17.1902 0.264851 17.275C0.296236 17.3599 0.349291 17.4387 0.424019 17.5115L6.71979 23.6412C6.89415 23.811 7.10887 23.8959 7.36393 23.8959C7.6195 23.8959 7.84069 23.8049 8.02751 23.623Z" fill="black" fill-opacity="0.8"/>
</g>
</svg>
