<svg width="33" height="33" viewBox="0 0 33 33" fill="none" xmlns="http://www.w3.org/2000/svg">
<g clip-path="url(#clip0_94_12470)">
<path d="M29.6647 26.3423C29.6645 26.8422 29.5658 27.3372 29.3743 27.799C29.1828 28.2607 28.9022 28.6803 28.5485 29.0336C28.1949 29.3869 27.7751 29.6671 27.3131 29.8581C26.8512 30.0492 26.3561 30.1474 25.8562 30.1471H6.80712C5.7975 30.1476 4.82904 29.747 4.11473 29.0334C3.40042 28.3199 2.99875 27.3519 2.99805 26.3423V7.32135C2.99889 6.31187 3.40064 5.34405 4.11495 4.63073C4.82926 3.91742 5.79764 3.51702 6.80712 3.51758H25.8562C26.356 3.51723 26.851 3.61535 27.313 3.80632C27.7749 3.9973 28.1946 4.27739 28.5483 4.63061C28.902 4.98383 29.1826 5.40326 29.3741 5.86494C29.5657 6.32662 29.6644 6.82151 29.6647 7.32135V26.3423Z" fill="#FFE400"/>
<path d="M22.0518 19.4959C21.9322 18.5677 21.4682 17.7184 20.7517 17.1163C20.6457 17.023 20.5306 16.9361 20.4034 16.8327C20.5094 16.7531 20.5974 16.6922 20.6796 16.6238C21.1953 16.1969 21.5937 15.6456 21.8371 15.022C22.0676 14.4323 22.1407 13.7927 22.0491 13.1662C21.9477 12.4041 21.6109 11.6927 21.0857 11.1313C20.7115 10.7145 20.2491 10.3863 19.7321 10.1705C19.23 9.96723 18.6926 9.86541 18.151 9.87093H12.0811C12.0392 9.86854 11.9973 9.86854 11.9554 9.87093C11.8889 9.87396 11.8261 9.90299 11.7807 9.95177C11.7353 10.0005 11.7109 10.0652 11.7126 10.1318C11.7126 10.1742 11.7126 10.2161 11.7126 10.258V23.3729C11.7126 23.4386 11.7089 23.5049 11.7126 23.5706C11.7153 23.625 11.7369 23.6767 11.7737 23.7168C11.8105 23.7568 11.8602 23.7828 11.9141 23.7902C11.9558 23.7952 11.9978 23.7968 12.0397 23.7949H18.326C18.959 23.7974 19.5813 23.631 20.1287 23.313C20.9108 22.8735 21.5144 22.1742 21.8349 21.3363C22.0663 20.7522 22.1411 20.1178 22.0518 19.4959V19.4959ZM17.221 19.9678H16.0869V13.7113H17.2083C17.2083 13.7113 17.204 13.7081 17.2083 13.7081V13.7113H17.221V19.9678Z" fill="#1E1719"/>
</g>
<defs>
<clipPath id="clip0_94_12470">
<rect width="26.6667" height="26.6301" fill="white" transform="translate(2.99805 3.51758)"/>
</clipPath>
</defs>
</svg>
