<svg width="268" height="85" viewBox="0 0 268 85" fill="none" xmlns="http://www.w3.org/2000/svg">
<g filter="url(#filter0_bd_2533_17739)">
<path d="M6 28C6 21.3726 11.3726 16 18 16H25.1176C26.5855 16 27.9356 15.1959 28.6347 13.9051L32.2414 7.24662C32.9979 5.85004 35.0021 5.85004 35.7586 7.24662L39.9326 14.9526C40.2822 15.598 40.9572 16 41.6912 16H246C252.627 16 258 21.3726 258 28V63C258 69.6274 252.627 75 246 75H18C11.3726 75 6 69.6274 6 63V28Z" fill="white"/>
</g>
<path d="M26.116 33.252V39.612H27.1V33.252H26.116ZM26.116 39.324V40.188H26.812C28.12 40.188 29.332 40.128 30.748 39.84L30.616 38.988C29.248 39.264 28.072 39.324 26.812 39.324H26.116ZM33.856 32.088V42.936H34.816V32.088H33.856ZM29.128 35.724V36.552H31.84V35.724H29.128ZM31.564 32.34V42.384H32.5V32.34H31.564ZM37.8991 37.932V38.736H45.3511V37.932H37.8991ZM36.6391 40.716V41.544H46.4671V40.716H36.6391ZM37.8991 33.012V38.184H38.9071V33.828H45.2311V33.012H37.8991ZM38.5831 35.436V36.228H45.0031V35.436H38.5831ZM50.6181 38.148V42.6H51.6021V38.148H50.6181ZM55.5861 32.088V42.948H56.5821V32.088H55.5861ZM47.7621 38.64C49.7781 38.64 52.3941 38.604 54.8181 38.196L54.7581 37.452C52.4061 37.788 49.6821 37.8 47.6301 37.8L47.7621 38.64ZM53.1261 39.492V40.272H55.8381V39.492H53.1261ZM51.1701 32.628C49.5501 32.628 48.4461 33.48 48.4461 34.764C48.4461 36.048 49.5501 36.9 51.1701 36.9C52.7661 36.9 53.8821 36.048 53.8821 34.764C53.8821 33.48 52.7661 32.628 51.1701 32.628ZM51.1701 33.396C52.2021 33.396 52.9461 33.96 52.9461 34.764C52.9461 35.58 52.2021 36.132 51.1701 36.132C50.1141 36.132 49.3701 35.58 49.3701 34.764C49.3701 33.96 50.1141 33.396 51.1701 33.396ZM63.3972 32.832V33.216C63.3972 35.328 62.1012 36.972 59.0172 37.86L59.4012 38.664C62.8692 37.644 64.4292 35.628 64.4292 32.832H63.3972ZM59.4852 32.832V33.636H63.9372V32.832H59.4852ZM63.2652 34.824L58.9452 35.028L59.1132 35.844L63.2652 35.532V34.824ZM66.6012 32.1V38.616H67.6092V32.1H66.6012ZM64.0212 38.772C61.7772 38.772 60.3852 39.54 60.3852 40.848C60.3852 42.156 61.7772 42.924 64.0212 42.924C66.2652 42.924 67.6692 42.156 67.6692 40.848C67.6692 39.54 66.2652 38.772 64.0212 38.772ZM64.0212 39.564C65.6652 39.564 66.6732 40.032 66.6732 40.848C66.6732 41.652 65.6652 42.132 64.0212 42.132C62.3772 42.132 61.3692 41.652 61.3692 40.848C61.3692 40.032 62.3772 39.564 64.0212 39.564ZM69.7443 37.788V38.604H79.5483V37.788H69.7443ZM71.0163 41.88V42.696H78.4683V41.88H71.0163ZM71.0163 39.552V42.132H72.0123V39.552H71.0163ZM74.6523 32.448C72.3242 32.448 70.8363 33.264 70.8363 34.62C70.8363 35.964 72.3242 36.78 74.6523 36.78C76.9683 36.78 78.4683 35.964 78.4683 34.62C78.4683 33.264 76.9683 32.448 74.6523 32.448ZM74.6523 33.264C76.3563 33.264 77.4483 33.768 77.4483 34.62C77.4483 35.472 76.3563 35.976 74.6523 35.976C72.9483 35.976 71.8563 35.472 71.8563 34.62C71.8563 33.768 72.9483 33.264 74.6523 33.264ZM86.1789 33.864V34.332C86.1789 35.76 85.0869 37.02 83.4789 37.512L83.9589 38.292C85.7709 37.704 86.9949 36.192 86.9949 34.332V33.864H86.1789ZM86.3589 33.864V34.332C86.3589 36.072 87.5469 37.536 89.3589 38.1L89.8269 37.308C88.2309 36.84 87.1749 35.652 87.1749 34.332V33.864H86.3589ZM83.7789 33.36V34.164H89.5629V33.36H83.7789ZM86.1789 32.04V33.684H87.1749V32.04H86.1789ZM90.8949 32.088V38.508H91.8909V32.088H90.8949ZM91.6149 34.824V35.664H93.4989V34.824H91.6149ZM85.0749 39.012V42.792H91.8909V39.012H85.0749ZM90.9189 39.804V41.988H86.0469V39.804H90.9189ZM100.086 34.356V35.184H102.654V34.356H100.086ZM97.218 32.64V33.768C97.218 35.424 96.162 36.876 94.53 37.476L95.046 38.268C96.87 37.572 98.034 35.856 98.034 33.768V32.64H97.218ZM97.398 32.64V33.816C97.398 35.724 98.574 37.368 100.314 38.028L100.842 37.248C99.282 36.696 98.202 35.304 98.202 33.816V32.64H97.398ZM96.198 39.096V39.9H102.438V42.936H103.434V39.096H96.198ZM102.438 32.088V38.496H103.434V32.088H102.438ZM108.233 33.636V35.4C108.233 37.236 106.925 39.3 105.377 40.056L105.953 40.848C107.645 39.984 109.025 37.656 109.025 35.4V33.636H108.233ZM108.413 33.636V35.4C108.413 37.548 109.721 39.732 111.437 40.584L112.001 39.792C110.429 39.048 109.205 37.116 109.205 35.4V33.636H108.413ZM105.761 33.192V34.032H111.605V33.192H105.761ZM112.889 32.088V42.936H113.897V32.088H112.889ZM113.657 36.468V37.308H115.673V36.468H113.657ZM116.596 36.612V37.428H126.4V36.612H116.596ZM117.892 34.932V35.736H125.236V34.932H117.892ZM117.892 32.436V35.58H118.876V33.252H125.116V32.436H117.892ZM117.772 38.364V39.144H124.156V40.176H117.796V42.288H118.78V40.92H125.14V38.364H117.772ZM117.796 42.024V42.816H125.464V42.024H117.796ZM128.115 33.276V34.08H133.023V33.276H128.115ZM129.807 36.372V40.044H130.791V36.372H129.807ZM132.615 33.276V33.852C132.615 34.728 132.615 36.12 132.291 38.076L133.275 38.172C133.587 36.156 133.587 34.74 133.587 33.852V33.276H132.615ZM134.955 32.088V42.936H135.939V32.088H134.955ZM135.675 36.624V37.464H137.679V36.624H135.675ZM127.635 40.572C129.555 40.56 132.099 40.512 134.343 40.152L134.295 39.42C132.099 39.696 129.483 39.732 127.515 39.732L127.635 40.572ZM146.77 35.76V36.576H149.794V35.76H146.77ZM144.154 33.024V34.956C144.154 36.972 142.93 39.06 141.334 39.852L141.97 40.644C143.686 39.72 144.97 37.392 144.97 34.956V33.024H144.154ZM144.346 33.024V34.956C144.346 37.332 145.606 39.564 147.358 40.452L147.946 39.648C146.374 38.904 145.15 36.936 145.15 34.956V33.024H144.346ZM149.302 32.076V42.948H150.286V32.076H149.302ZM152.397 40.776V41.604H162.225V40.776H152.397ZM156.789 38.448V41.124H157.785V38.448H156.789ZM153.585 32.892V33.696H160.029V35.376H153.621V38.352H154.605V36.18H161.013V32.892H153.585ZM153.621 37.932V38.748H161.265V37.932H153.621ZM174.364 32.088V42.936H175.324V32.088H174.364ZM172.528 36.432V37.26H174.616V36.432H172.528ZM171.904 32.328V42.384H172.84V32.328H171.904ZM166.504 39.432V40.26H167.212C168.844 40.26 169.936 40.212 171.232 39.936L171.136 39.108C169.876 39.372 168.796 39.432 167.212 39.432H166.504ZM166.504 33.408V39.804H167.488V34.224H170.536V33.408H166.504ZM179.967 38.556V40.32H180.963V38.556H179.967ZM184.527 32.088V42.936H185.523V32.088H184.527ZM185.199 36.696V37.536H187.203V36.696H185.199ZM177.171 40.872C179.067 40.872 181.611 40.86 183.951 40.44L183.867 39.696C181.623 40.02 178.971 40.044 177.027 40.044L177.171 40.872ZM177.207 33.396V34.2H183.699V33.396H177.207ZM180.459 34.836C178.947 34.836 177.915 35.628 177.915 36.84C177.915 38.064 178.947 38.844 180.459 38.844C181.971 38.844 183.015 38.064 183.015 36.84C183.015 35.628 181.971 34.836 180.459 34.836ZM180.459 35.604C181.431 35.604 182.079 36.096 182.079 36.84C182.079 37.584 181.431 38.076 180.459 38.076C179.487 38.076 178.851 37.584 178.851 36.84C178.851 36.096 179.487 35.604 180.459 35.604ZM179.967 32.1V33.936H180.963V32.1H179.967ZM195.542 32.088V42.936H196.538V32.088H195.542ZM196.298 36.54V37.38H198.314V36.54H196.298ZM188.138 33.816V34.632H194.534V33.816H188.138ZM191.378 35.532C189.854 35.532 188.738 36.564 188.738 38.028C188.738 39.492 189.854 40.524 191.378 40.524C192.914 40.524 194.018 39.492 194.018 38.028C194.018 36.564 192.914 35.532 191.378 35.532ZM191.378 36.36C192.362 36.36 193.07 37.044 193.07 38.028C193.07 39 192.362 39.696 191.378 39.696C190.394 39.696 189.686 39 189.686 38.028C189.686 37.044 190.394 36.36 191.378 36.36ZM190.862 32.22V34.188H191.858V32.22H190.862ZM204.217 34.68V35.496H207.565V34.68H204.217ZM204.217 37.668V38.496H207.565V37.668H204.217ZM199.669 33.144V40.2H204.601V33.144H199.669ZM203.617 33.948V39.396H200.641V33.948H203.617ZM207.181 32.076V42.948H208.165V32.076H207.181ZM215.839 33.276V34.38C215.839 35.928 214.735 37.332 213.103 37.908L213.619 38.7C215.443 38.04 216.667 36.372 216.667 34.38V33.276H215.839ZM216.031 33.276V34.38C216.031 36.288 217.279 37.872 219.079 38.484L219.595 37.704C217.987 37.164 216.859 35.844 216.859 34.38V33.276H216.031ZM213.367 32.988V33.792H219.307V32.988H213.367ZM220.843 32.1V40.032H221.851V32.1H220.843ZM214.879 41.88V42.696H222.175V41.88H214.879ZM214.879 39.288V42.24H215.863V39.288H214.879ZM232.182 32.088V38.952H233.13V32.088H232.182ZM230.418 35.028V35.856H232.47V35.028H230.418ZM229.866 32.304V38.568H230.802V32.304H229.866ZM223.938 33.384V34.176H229.434V33.384H223.938ZM226.698 34.728C225.33 34.728 224.382 35.472 224.382 36.588C224.382 37.716 225.33 38.448 226.698 38.448C228.054 38.448 229.002 37.716 229.002 36.588C229.002 35.472 228.054 34.728 226.698 34.728ZM226.698 35.472C227.538 35.472 228.114 35.916 228.114 36.588C228.114 37.272 227.538 37.704 226.698 37.704C225.846 37.704 225.27 37.272 225.27 36.588C225.27 35.916 225.846 35.472 226.698 35.472ZM226.206 32.172V33.828H227.178V32.172H226.206ZM229.578 39.144C227.298 39.144 225.954 39.816 225.954 41.028C225.954 42.228 227.298 42.912 229.578 42.912C231.834 42.912 233.19 42.228 233.19 41.028C233.19 39.816 231.834 39.144 229.578 39.144ZM229.578 39.912C231.222 39.912 232.206 40.308 232.206 41.028C232.206 41.748 231.222 42.156 229.578 42.156C227.91 42.156 226.938 41.748 226.938 41.028C226.938 40.308 227.91 39.912 229.578 39.912ZM26.452 53.756V54.572H32.008V53.756H26.452ZM28.672 54.404V56.9H29.68V54.404H28.672ZM26.452 50.108V54.044H27.448V50.924H31.948V50.108H26.452ZM33.436 49.076V59.948H34.432V49.076H33.436ZM25.792 57.596C27.844 57.608 30.436 57.56 32.812 57.2L32.728 56.456C30.436 56.732 27.772 56.756 25.648 56.768L25.792 57.596ZM37.9591 52.34V53.156H45.3271V52.34H37.9591ZM36.6271 54.608V55.424H46.4671V54.608H36.6271ZM37.9591 49.484V52.748H38.9431V49.484H37.9591ZM37.8871 58.856V59.672H45.3871V58.856H37.8871ZM37.8871 56.504V59.072H38.8711V56.504H37.8871ZM58.5457 49.088V55.952H59.4937V49.088H58.5457ZM56.7817 52.028V52.856H58.8337V52.028H56.7817ZM56.2297 49.304V55.568H57.1657V49.304H56.2297ZM50.3017 50.384V51.176H55.7977V50.384H50.3017ZM53.0617 51.728C51.6937 51.728 50.7457 52.472 50.7457 53.588C50.7457 54.716 51.6937 55.448 53.0617 55.448C54.4177 55.448 55.3657 54.716 55.3657 53.588C55.3657 52.472 54.4177 51.728 53.0617 51.728ZM53.0617 52.472C53.9017 52.472 54.4777 52.916 54.4777 53.588C54.4777 54.272 53.9017 54.704 53.0617 54.704C52.2097 54.704 51.6337 54.272 51.6337 53.588C51.6337 52.916 52.2097 52.472 53.0617 52.472ZM52.5697 49.172V50.828H53.5417V49.172H52.5697ZM55.9417 56.144C53.6617 56.144 52.3177 56.816 52.3177 58.028C52.3177 59.228 53.6617 59.912 55.9417 59.912C58.1977 59.912 59.5537 59.228 59.5537 58.028C59.5537 56.816 58.1977 56.144 55.9417 56.144ZM55.9417 56.912C57.5857 56.912 58.5697 57.308 58.5697 58.028C58.5697 58.748 57.5857 59.156 55.9417 59.156C54.2737 59.156 53.3017 58.748 53.3017 58.028C53.3017 57.308 54.2737 56.912 55.9417 56.912ZM64.0528 50.024V51.968C64.0528 53.948 62.8168 56.036 61.2448 56.828L61.8568 57.62C63.5728 56.708 64.8688 54.368 64.8688 51.968V50.024H64.0528ZM64.2328 50.024V51.968C64.2328 54.296 65.4928 56.516 67.1728 57.416L67.7848 56.624C66.2488 55.856 65.0368 53.876 65.0368 51.968V50.024H64.2328ZM68.7328 49.088V59.936H69.7408V49.088H68.7328ZM69.5008 53.48V54.32H71.5168V53.48H69.5008ZM80.3238 49.088V54.908H81.3318V49.088H80.3238ZM74.3358 55.448V59.792H81.3318V55.448H80.3478V56.768H75.3198V55.448H74.3358ZM75.3198 57.56H80.3478V58.988H75.3198V57.56ZM75.5118 49.604C73.8678 49.604 72.6798 50.624 72.6798 52.1C72.6798 53.588 73.8678 54.608 75.5118 54.608C77.1558 54.608 78.3318 53.588 78.3318 52.1C78.3318 50.624 77.1558 49.604 75.5118 49.604ZM75.5118 50.432C76.5918 50.432 77.3718 51.116 77.3718 52.1C77.3718 53.084 76.5918 53.768 75.5118 53.768C74.4318 53.768 73.6518 53.084 73.6518 52.1C73.6518 51.116 74.4318 50.432 75.5118 50.432ZM91.3629 49.088V59.936H92.3589V49.088H91.3629ZM84.1629 50.144V56.864H85.1469V50.144H84.1629ZM84.1629 56.276V57.14H85.0509C86.7669 57.14 88.4829 57.008 90.3669 56.624L90.2469 55.772C88.4109 56.156 86.6949 56.276 85.0509 56.276H84.1629ZM101.85 49.076V59.948H102.858V49.076H101.85ZM102.618 53.36V54.2H104.634V53.36H102.618ZM94.974 56.408V57.248H95.826C97.866 57.248 99.294 57.188 100.962 56.876L100.854 56.036C99.234 56.336 97.83 56.408 95.826 56.408H94.974ZM94.974 50.132V56.78H95.958V50.948H100.014V50.132H94.974Z" fill="#2294FF"/>
<defs>
<filter id="filter0_bd_2533_17739" x="-10" y="-9.80078" width="284" height="100.801" filterUnits="userSpaceOnUse" color-interpolation-filters="sRGB">
<feFlood flood-opacity="0" result="BackgroundImageFix"/>
<feGaussianBlur in="BackgroundImageFix" stdDeviation="8"/>
<feComposite in2="SourceAlpha" operator="in" result="effect1_backgroundBlur_2533_17739"/>
<feColorMatrix in="SourceAlpha" type="matrix" values="0 0 0 0 0 0 0 0 0 0 0 0 0 0 0 0 0 0 127 0" result="hardAlpha"/>
<feOffset dx="2" dy="2"/>
<feGaussianBlur stdDeviation="4"/>
<feComposite in2="hardAlpha" operator="out"/>
<feColorMatrix type="matrix" values="0 0 0 0 0 0 0 0 0 0 0 0 0 0 0 0 0 0 0.1 0"/>
<feBlend mode="normal" in2="effect1_backgroundBlur_2533_17739" result="effect2_dropShadow_2533_17739"/>
<feBlend mode="normal" in="SourceGraphic" in2="effect2_dropShadow_2533_17739" result="shape"/>
</filter>
</defs>
</svg>
