<svg width="252" height="73" viewBox="0 0 252 73" fill="none" xmlns="http://www.w3.org/2000/svg">
<path d="M0.5 26C0.5 19.6487 5.64873 14.5 12 14.5H19.1176C20.769 14.5 22.2878 13.5954 23.0744 12.1433L26.6811 5.48476C27.2484 4.43732 28.7516 4.43733 29.3189 5.48476L33.493 13.1907C33.93 13.9974 34.7737 14.5 35.6912 14.5H240C246.351 14.5 251.5 19.6487 251.5 26V61C251.5 67.3513 246.351 72.5 240 72.5H12C5.64873 72.5 0.5 67.3513 0.5 61V26Z" fill="white" stroke="#2294FF"/>
<path d="M20.116 31.252V37.612H21.1V31.252H20.116ZM20.116 37.324V38.188H20.812C22.12 38.188 23.332 38.128 24.748 37.84L24.616 36.988C23.248 37.264 22.072 37.324 20.812 37.324H20.116ZM27.856 30.088V40.936H28.816V30.088H27.856ZM23.128 33.724V34.552H25.84V33.724H23.128ZM25.564 30.34V40.384H26.5V30.34H25.564ZM31.8991 35.932V36.736H39.3511V35.932H31.8991ZM30.6391 38.716V39.544H40.4671V38.716H30.6391ZM31.8991 31.012V36.184H32.9071V31.828H39.2311V31.012H31.8991ZM32.5831 33.436V34.228H39.0031V33.436H32.5831ZM44.6181 36.148V40.6H45.6021V36.148H44.6181ZM49.5861 30.088V40.948H50.5821V30.088H49.5861ZM41.7621 36.64C43.7781 36.64 46.3941 36.604 48.8181 36.196L48.7581 35.452C46.4061 35.788 43.6821 35.8 41.6301 35.8L41.7621 36.64ZM47.1261 37.492V38.272H49.8381V37.492H47.1261ZM45.1701 30.628C43.5501 30.628 42.4461 31.48 42.4461 32.764C42.4461 34.048 43.5501 34.9 45.1701 34.9C46.7661 34.9 47.8821 34.048 47.8821 32.764C47.8821 31.48 46.7661 30.628 45.1701 30.628ZM45.1701 31.396C46.2021 31.396 46.9461 31.96 46.9461 32.764C46.9461 33.58 46.2021 34.132 45.1701 34.132C44.1141 34.132 43.3701 33.58 43.3701 32.764C43.3701 31.96 44.1141 31.396 45.1701 31.396ZM57.3972 30.832V31.216C57.3972 33.328 56.1012 34.972 53.0172 35.86L53.4012 36.664C56.8692 35.644 58.4292 33.628 58.4292 30.832H57.3972ZM53.4852 30.832V31.636H57.9372V30.832H53.4852ZM57.2652 32.824L52.9452 33.028L53.1132 33.844L57.2652 33.532V32.824ZM60.6012 30.1V36.616H61.6092V30.1H60.6012ZM58.0212 36.772C55.7772 36.772 54.3852 37.54 54.3852 38.848C54.3852 40.156 55.7772 40.924 58.0212 40.924C60.2652 40.924 61.6692 40.156 61.6692 38.848C61.6692 37.54 60.2652 36.772 58.0212 36.772ZM58.0212 37.564C59.6652 37.564 60.6732 38.032 60.6732 38.848C60.6732 39.652 59.6652 40.132 58.0212 40.132C56.3772 40.132 55.3692 39.652 55.3692 38.848C55.3692 38.032 56.3772 37.564 58.0212 37.564ZM63.7443 35.788V36.604H73.5483V35.788H63.7443ZM65.0163 39.88V40.696H72.4683V39.88H65.0163ZM65.0163 37.552V40.132H66.0123V37.552H65.0163ZM68.6523 30.448C66.3242 30.448 64.8363 31.264 64.8363 32.62C64.8363 33.964 66.3242 34.78 68.6523 34.78C70.9683 34.78 72.4683 33.964 72.4683 32.62C72.4683 31.264 70.9683 30.448 68.6523 30.448ZM68.6523 31.264C70.3563 31.264 71.4483 31.768 71.4483 32.62C71.4483 33.472 70.3563 33.976 68.6523 33.976C66.9483 33.976 65.8563 33.472 65.8563 32.62C65.8563 31.768 66.9483 31.264 68.6523 31.264ZM80.1789 31.864V32.332C80.1789 33.76 79.0869 35.02 77.4789 35.512L77.9589 36.292C79.7709 35.704 80.9949 34.192 80.9949 32.332V31.864H80.1789ZM80.3589 31.864V32.332C80.3589 34.072 81.5469 35.536 83.3589 36.1L83.8269 35.308C82.2309 34.84 81.1749 33.652 81.1749 32.332V31.864H80.3589ZM77.7789 31.36V32.164H83.5629V31.36H77.7789ZM80.1789 30.04V31.684H81.1749V30.04H80.1789ZM84.8949 30.088V36.508H85.8909V30.088H84.8949ZM85.6149 32.824V33.664H87.4989V32.824H85.6149ZM79.0749 37.012V40.792H85.8909V37.012H79.0749ZM84.9189 37.804V39.988H80.0469V37.804H84.9189ZM94.086 32.356V33.184H96.654V32.356H94.086ZM91.218 30.64V31.768C91.218 33.424 90.162 34.876 88.53 35.476L89.046 36.268C90.87 35.572 92.034 33.856 92.034 31.768V30.64H91.218ZM91.398 30.64V31.816C91.398 33.724 92.574 35.368 94.314 36.028L94.842 35.248C93.282 34.696 92.202 33.304 92.202 31.816V30.64H91.398ZM90.198 37.096V37.9H96.438V40.936H97.434V37.096H90.198ZM96.438 30.088V36.496H97.434V30.088H96.438ZM102.233 31.636V33.4C102.233 35.236 100.925 37.3 99.377 38.056L99.953 38.848C101.645 37.984 103.025 35.656 103.025 33.4V31.636H102.233ZM102.413 31.636V33.4C102.413 35.548 103.721 37.732 105.437 38.584L106.001 37.792C104.429 37.048 103.205 35.116 103.205 33.4V31.636H102.413ZM99.761 31.192V32.032H105.605V31.192H99.761ZM106.889 30.088V40.936H107.897V30.088H106.889ZM107.657 34.468V35.308H109.673V34.468H107.657ZM110.596 34.612V35.428H120.4V34.612H110.596ZM111.892 32.932V33.736H119.236V32.932H111.892ZM111.892 30.436V33.58H112.876V31.252H119.116V30.436H111.892ZM111.772 36.364V37.144H118.156V38.176H111.796V40.288H112.78V38.92H119.14V36.364H111.772ZM111.796 40.024V40.816H119.464V40.024H111.796ZM122.115 31.276V32.08H127.023V31.276H122.115ZM123.807 34.372V38.044H124.791V34.372H123.807ZM126.615 31.276V31.852C126.615 32.728 126.615 34.12 126.291 36.076L127.275 36.172C127.587 34.156 127.587 32.74 127.587 31.852V31.276H126.615ZM128.955 30.088V40.936H129.939V30.088H128.955ZM129.675 34.624V35.464H131.679V34.624H129.675ZM121.635 38.572C123.555 38.56 126.099 38.512 128.343 38.152L128.295 37.42C126.099 37.696 123.483 37.732 121.515 37.732L121.635 38.572ZM140.77 33.76V34.576H143.794V33.76H140.77ZM138.154 31.024V32.956C138.154 34.972 136.93 37.06 135.334 37.852L135.97 38.644C137.686 37.72 138.97 35.392 138.97 32.956V31.024H138.154ZM138.346 31.024V32.956C138.346 35.332 139.606 37.564 141.358 38.452L141.946 37.648C140.374 36.904 139.15 34.936 139.15 32.956V31.024H138.346ZM143.302 30.076V40.948H144.286V30.076H143.302ZM146.397 38.776V39.604H156.225V38.776H146.397ZM150.789 36.448V39.124H151.785V36.448H150.789ZM147.585 30.892V31.696H154.029V33.376H147.621V36.352H148.605V34.18H155.013V30.892H147.585ZM147.621 35.932V36.748H155.265V35.932H147.621ZM168.364 30.088V40.936H169.324V30.088H168.364ZM166.528 34.432V35.26H168.616V34.432H166.528ZM165.904 30.328V40.384H166.84V30.328H165.904ZM160.504 37.432V38.26H161.212C162.844 38.26 163.936 38.212 165.232 37.936L165.136 37.108C163.876 37.372 162.796 37.432 161.212 37.432H160.504ZM160.504 31.408V37.804H161.488V32.224H164.536V31.408H160.504ZM173.967 36.556V38.32H174.963V36.556H173.967ZM178.527 30.088V40.936H179.523V30.088H178.527ZM179.199 34.696V35.536H181.203V34.696H179.199ZM171.171 38.872C173.067 38.872 175.611 38.86 177.951 38.44L177.867 37.696C175.623 38.02 172.971 38.044 171.027 38.044L171.171 38.872ZM171.207 31.396V32.2H177.699V31.396H171.207ZM174.459 32.836C172.947 32.836 171.915 33.628 171.915 34.84C171.915 36.064 172.947 36.844 174.459 36.844C175.971 36.844 177.015 36.064 177.015 34.84C177.015 33.628 175.971 32.836 174.459 32.836ZM174.459 33.604C175.431 33.604 176.079 34.096 176.079 34.84C176.079 35.584 175.431 36.076 174.459 36.076C173.487 36.076 172.851 35.584 172.851 34.84C172.851 34.096 173.487 33.604 174.459 33.604ZM173.967 30.1V31.936H174.963V30.1H173.967ZM189.542 30.088V40.936H190.538V30.088H189.542ZM190.298 34.54V35.38H192.314V34.54H190.298ZM182.138 31.816V32.632H188.534V31.816H182.138ZM185.378 33.532C183.854 33.532 182.738 34.564 182.738 36.028C182.738 37.492 183.854 38.524 185.378 38.524C186.914 38.524 188.018 37.492 188.018 36.028C188.018 34.564 186.914 33.532 185.378 33.532ZM185.378 34.36C186.362 34.36 187.07 35.044 187.07 36.028C187.07 37 186.362 37.696 185.378 37.696C184.394 37.696 183.686 37 183.686 36.028C183.686 35.044 184.394 34.36 185.378 34.36ZM184.862 30.22V32.188H185.858V30.22H184.862ZM198.217 32.68V33.496H201.565V32.68H198.217ZM198.217 35.668V36.496H201.565V35.668H198.217ZM193.669 31.144V38.2H198.601V31.144H193.669ZM197.617 31.948V37.396H194.641V31.948H197.617ZM201.181 30.076V40.948H202.165V30.076H201.181ZM209.839 31.276V32.38C209.839 33.928 208.735 35.332 207.103 35.908L207.619 36.7C209.443 36.04 210.667 34.372 210.667 32.38V31.276H209.839ZM210.031 31.276V32.38C210.031 34.288 211.279 35.872 213.079 36.484L213.595 35.704C211.987 35.164 210.859 33.844 210.859 32.38V31.276H210.031ZM207.367 30.988V31.792H213.307V30.988H207.367ZM214.843 30.1V38.032H215.851V30.1H214.843ZM208.879 39.88V40.696H216.175V39.88H208.879ZM208.879 37.288V40.24H209.863V37.288H208.879ZM226.182 30.088V36.952H227.13V30.088H226.182ZM224.418 33.028V33.856H226.47V33.028H224.418ZM223.866 30.304V36.568H224.802V30.304H223.866ZM217.938 31.384V32.176H223.434V31.384H217.938ZM220.698 32.728C219.33 32.728 218.382 33.472 218.382 34.588C218.382 35.716 219.33 36.448 220.698 36.448C222.054 36.448 223.002 35.716 223.002 34.588C223.002 33.472 222.054 32.728 220.698 32.728ZM220.698 33.472C221.538 33.472 222.114 33.916 222.114 34.588C222.114 35.272 221.538 35.704 220.698 35.704C219.846 35.704 219.27 35.272 219.27 34.588C219.27 33.916 219.846 33.472 220.698 33.472ZM220.206 30.172V31.828H221.178V30.172H220.206ZM223.578 37.144C221.298 37.144 219.954 37.816 219.954 39.028C219.954 40.228 221.298 40.912 223.578 40.912C225.834 40.912 227.19 40.228 227.19 39.028C227.19 37.816 225.834 37.144 223.578 37.144ZM223.578 37.912C225.222 37.912 226.206 38.308 226.206 39.028C226.206 39.748 225.222 40.156 223.578 40.156C221.91 40.156 220.938 39.748 220.938 39.028C220.938 38.308 221.91 37.912 223.578 37.912ZM20.452 51.756V52.572H26.008V51.756H20.452ZM22.672 52.404V54.9H23.68V52.404H22.672ZM20.452 48.108V52.044H21.448V48.924H25.948V48.108H20.452ZM27.436 47.076V57.948H28.432V47.076H27.436ZM19.792 55.596C21.844 55.608 24.436 55.56 26.812 55.2L26.728 54.456C24.436 54.732 21.772 54.756 19.648 54.768L19.792 55.596ZM31.9591 50.34V51.156H39.3271V50.34H31.9591ZM30.6271 52.608V53.424H40.4671V52.608H30.6271ZM31.9591 47.484V50.748H32.9431V47.484H31.9591ZM31.8871 56.856V57.672H39.3871V56.856H31.8871ZM31.8871 54.504V57.072H32.8711V54.504H31.8871ZM52.5457 47.088V53.952H53.4937V47.088H52.5457ZM50.7817 50.028V50.856H52.8337V50.028H50.7817ZM50.2297 47.304V53.568H51.1657V47.304H50.2297ZM44.3017 48.384V49.176H49.7977V48.384H44.3017ZM47.0617 49.728C45.6937 49.728 44.7457 50.472 44.7457 51.588C44.7457 52.716 45.6937 53.448 47.0617 53.448C48.4177 53.448 49.3657 52.716 49.3657 51.588C49.3657 50.472 48.4177 49.728 47.0617 49.728ZM47.0617 50.472C47.9017 50.472 48.4777 50.916 48.4777 51.588C48.4777 52.272 47.9017 52.704 47.0617 52.704C46.2097 52.704 45.6337 52.272 45.6337 51.588C45.6337 50.916 46.2097 50.472 47.0617 50.472ZM46.5697 47.172V48.828H47.5417V47.172H46.5697ZM49.9417 54.144C47.6617 54.144 46.3177 54.816 46.3177 56.028C46.3177 57.228 47.6617 57.912 49.9417 57.912C52.1977 57.912 53.5537 57.228 53.5537 56.028C53.5537 54.816 52.1977 54.144 49.9417 54.144ZM49.9417 54.912C51.5857 54.912 52.5697 55.308 52.5697 56.028C52.5697 56.748 51.5857 57.156 49.9417 57.156C48.2737 57.156 47.3017 56.748 47.3017 56.028C47.3017 55.308 48.2737 54.912 49.9417 54.912ZM58.0528 48.024V49.968C58.0528 51.948 56.8168 54.036 55.2448 54.828L55.8568 55.62C57.5728 54.708 58.8688 52.368 58.8688 49.968V48.024H58.0528ZM58.2328 48.024V49.968C58.2328 52.296 59.4928 54.516 61.1728 55.416L61.7848 54.624C60.2488 53.856 59.0368 51.876 59.0368 49.968V48.024H58.2328ZM62.7328 47.088V57.936H63.7408V47.088H62.7328ZM63.5008 51.48V52.32H65.5168V51.48H63.5008ZM74.3238 47.088V52.908H75.3318V47.088H74.3238ZM68.3358 53.448V57.792H75.3318V53.448H74.3478V54.768H69.3198V53.448H68.3358ZM69.3198 55.56H74.3478V56.988H69.3198V55.56ZM69.5118 47.604C67.8678 47.604 66.6798 48.624 66.6798 50.1C66.6798 51.588 67.8678 52.608 69.5118 52.608C71.1558 52.608 72.3318 51.588 72.3318 50.1C72.3318 48.624 71.1558 47.604 69.5118 47.604ZM69.5118 48.432C70.5918 48.432 71.3718 49.116 71.3718 50.1C71.3718 51.084 70.5918 51.768 69.5118 51.768C68.4318 51.768 67.6518 51.084 67.6518 50.1C67.6518 49.116 68.4318 48.432 69.5118 48.432ZM85.3629 47.088V57.936H86.3589V47.088H85.3629ZM78.1629 48.144V54.864H79.1469V48.144H78.1629ZM78.1629 54.276V55.14H79.0509C80.7669 55.14 82.4829 55.008 84.3669 54.624L84.2469 53.772C82.4109 54.156 80.6949 54.276 79.0509 54.276H78.1629ZM95.85 47.076V57.948H96.858V47.076H95.85ZM96.618 51.36V52.2H98.634V51.36H96.618ZM88.974 54.408V55.248H89.826C91.866 55.248 93.294 55.188 94.962 54.876L94.854 54.036C93.234 54.336 91.83 54.408 89.826 54.408H88.974ZM88.974 48.132V54.78H89.958V48.948H94.014V48.132H88.974Z" fill="#2294FF"/>
</svg>
