<svg width="32" height="33" viewBox="0 0 32 33" fill="none" xmlns="http://www.w3.org/2000/svg">
<path d="M18.0215 3.38574C24.3689 3.45399 29.829 8.2316 30.5797 14.6814C31.3988 21.7113 26.3823 28.0587 19.3183 28.8435C18.8405 28.9118 18.3286 28.9459 17.8508 28.9459H17.7143C13.278 28.8777 9.31941 26.2841 7.23774 22.3255L1.33398 25.7381C1.33398 19.6296 3.96167 9.59663 11.2646 5.22853C11.2987 5.22853 11.3328 5.1944 11.367 5.1944C11.4011 5.16028 11.4352 5.16028 11.4693 5.12616C12.9367 4.27301 14.6089 3.69287 16.4176 3.48812C16.8953 3.41986 17.4072 3.38574 17.885 3.38574H18.0215Z" fill="#0064FF"/>
</svg>
