<svg width="96" height="24" viewBox="0 0 96 24" fill="none" xmlns="http://www.w3.org/2000/svg">
<circle cx="6" cy="12" r="6" fill="#2294FF"/>
<circle cx="30" cy="12" r="6" fill="#2294FF"/>
<circle cx="60" cy="12" r="12" fill="#2294FF"/>
<path d="M60.1931 18.196C62.1811 18.196 63.8471 17.104 63.8471 15.2C63.8471 13.828 62.9511 12.974 61.7751 12.638V12.568C62.8811 12.148 63.4971 11.322 63.4971 10.216C63.4971 8.438 62.1391 7.458 60.1371 7.458C58.9331 7.458 57.9391 7.948 57.0431 8.718L58.0931 9.992C58.7091 9.418 59.3111 9.068 60.0531 9.068C60.9351 9.068 61.4391 9.558 61.4391 10.37C61.4391 11.294 60.8231 11.938 58.9191 11.938V13.422C61.1731 13.422 61.7751 14.052 61.7751 15.074C61.7751 15.998 61.0611 16.53 59.9971 16.53C59.0591 16.53 58.3171 16.054 57.7011 15.452L56.7211 16.754C57.4491 17.594 58.5551 18.196 60.1931 18.196Z" fill="white"/>
<circle cx="90" cy="12" r="5.5" stroke="#2294FF"/>
</svg>
