<svg width="100" height="100" viewBox="0 0 100 100" fill="none" xmlns="http://www.w3.org/2000/svg">
<path d="M41.7246 50C46.295 50 50.1679 46.0531 47.872 42.1012C47.1947 40.9353 46.3646 39.8518 45.3948 38.8819C42.4461 35.9333 38.4468 34.2767 34.2767 34.2767C30.1066 34.2767 26.1073 35.9332 23.1586 38.8819C22.1888 39.8518 21.3587 40.9353 20.6814 42.1012C18.3855 46.0531 22.2584 50 26.8288 50H41.7246Z" fill="#D9D9D9" fill-opacity="0.8"/>
<path d="M58.2754 50C53.705 50 49.8321 53.9469 52.128 57.8988C52.8053 59.0647 53.6354 60.1482 54.6052 61.1181C57.5539 64.0667 61.5532 65.7233 65.7233 65.7233C69.8934 65.7233 73.8927 64.0667 76.8414 61.1181C77.8112 60.1482 78.6413 59.0647 79.3186 57.8988C81.6145 53.9469 77.7416 50 73.1712 50H58.2754Z" fill="#D9D9D9" fill-opacity="0.4"/>
<path d="M50 58.2754C50 53.705 46.0531 49.8321 42.1012 52.128C40.9353 52.8053 39.8518 53.6354 38.8819 54.6052C35.9333 57.5539 34.2767 61.5532 34.2767 65.7233C34.2767 69.8934 35.9332 73.8927 38.8819 76.8414C39.8518 77.8112 40.9353 78.6413 42.1012 79.3186C46.0531 81.6145 50 77.7416 50 73.1712V58.2754Z" fill="#D9D9D9" fill-opacity="0.6"/>
<path d="M50 41.7246C50 46.295 53.9469 50.1679 57.8988 47.872C59.0647 47.1947 60.1482 46.3646 61.1181 45.3948C64.0667 42.4461 65.7233 38.4468 65.7233 34.2767C65.7233 30.1066 64.0667 26.1073 61.1181 23.1586C60.1482 22.1888 59.0647 21.3587 57.8988 20.6814C53.9469 18.3855 50 22.2584 50 26.8288L50 41.7246Z" fill="#D9D9D9"/>
<rect x="0.5" y="0.5" width="99" height="99" rx="49.5" stroke="#D9D9D9"/>
</svg>
