<svg width="32" height="33" viewBox="0 0 32 33" fill="none" xmlns="http://www.w3.org/2000/svg">
<g clip-path="url(#clip0_94_12561)">
<path d="M1.33789 22.5907C1.33789 27.492 4.34093 31.5033 15.712 31.5033H16.294C27.6682 31.5033 30.6681 27.492 30.6681 22.5907V11.0764C30.6681 6.17196 27.6651 2.16064 16.294 2.16064H15.712C4.33782 2.16687 1.33789 6.17818 1.33789 11.0764V22.5907Z" fill="url(#paint0_linear_94_12561)"/>
<path d="M16.2909 31.5003C17.1094 31.5003 17.8812 31.4785 18.6156 31.438V26.4745C20.6975 26.4589 23.4889 25.6249 24.7337 22.9331C26.2088 19.7402 24.7555 17.2973 23.3458 16.0867C24.2296 14.982 24.7804 12.953 24.0304 10.812C22.7545 7.17097 19.1291 6.98114 17.8967 6.97803H16.2754V31.4878L16.2909 31.5003ZM18.6156 9.48628H18.9268C19.7937 9.53628 20.6087 9.91565 21.2051 10.5468C21.8016 11.1779 22.1343 12.0131 22.1352 12.8814C22.1352 15.2341 19.9195 16.3513 19.6892 16.4291C19.7919 16.4291 22.8572 17.3626 22.8572 20.2132C22.8572 22.4071 20.8718 23.9973 18.6094 23.9973L18.6156 9.48628Z" fill="white"/>
<path d="M11.4082 16.2485C10.7173 15.651 9.55966 14.4156 9.61256 12.8751C9.65924 11.481 10.3221 10.4042 11.4362 9.91878C12.432 9.4831 13.6394 9.47687 14.377 9.47687H14.5481V6.9873H14.4205C13.4683 6.9873 11.8936 6.9873 10.4621 7.6097C8.43002 8.49661 7.17279 10.4509 7.09499 12.8316C7.02964 14.7392 7.96945 16.6313 9.74327 18.1592C11.43 19.6156 12.2888 20.459 11.8656 22.2857C11.5109 23.8199 9.12087 25.8769 8.35533 26.4308H11.8065C12.6343 25.8084 13.9849 24.2711 14.3178 22.8085C15.1021 19.4352 13.0544 17.6676 11.4082 16.2485Z" fill="white"/>
</g>
<defs>
<linearGradient id="paint0_linear_94_12561" x1="16.0543" y1="12.5723" x2="16.0543" y2="31.3374" gradientUnits="userSpaceOnUse">
<stop stop-color="#92C83E"/>
<stop offset="0.6" stop-color="#009D54"/>
<stop offset="1" stop-color="#007360"/>
</linearGradient>
<clipPath id="clip0_94_12561">
<rect width="29.3333" height="29.3333" fill="white" transform="translate(1.33398 2.16699)"/>
</clipPath>
</defs>
</svg>
