<svg width="12" height="14" viewBox="0 0 12 14" fill="none" xmlns="http://www.w3.org/2000/svg">
<path d="M1.33333 13.6673C0.966667 13.6673 0.652667 13.5369 0.391333 13.276C0.130444 13.0147 0 12.7007 0 12.334V3.00065H1.33333V12.334H8.66667V13.6673H1.33333ZM4 11.0007C3.63333 11.0007 3.31956 10.8702 3.05867 10.6093C2.79733 10.348 2.66667 10.034 2.66667 9.66732V1.66732C2.66667 1.30065 2.79733 0.986651 3.05867 0.725318C3.31956 0.464429 3.63333 0.333984 4 0.333984H10C10.3667 0.333984 10.6807 0.464429 10.942 0.725318C11.2029 0.986651 11.3333 1.30065 11.3333 1.66732V9.66732C11.3333 10.034 11.2029 10.348 10.942 10.6093C10.6807 10.8702 10.3667 11.0007 10 11.0007H4ZM4 9.66732H10V1.66732H4V9.66732Z" fill="#2294FF"/>
</svg>
