<svg width="33" height="33" viewBox="0 0 33 33" fill="none" xmlns="http://www.w3.org/2000/svg">
<g clip-path="url(#clip0_94_12550)">
<path d="M29.6647 2.8335H2.99805V29.5002H29.6647V2.8335Z" fill="#0091D0"/>
<path d="M2.99805 2.8335L9.66277 9.50211L16.3314 2.8335H2.99805Z" fill="#0091D0"/>
<path d="M2.99805 2.8335V16.1668L9.66277 9.50211L2.99805 2.8335Z" fill="#009AD8"/>
<path d="M16.3314 16.1667L9.66666 9.49805L2.99805 16.1667H16.3314Z" fill="#0091D0"/>
<path d="M16.3307 16.1668V2.8335L9.66602 9.49822L16.3307 16.1668Z" fill="#0082C9"/>
<path d="M16.332 2.8335V16.1668L22.9968 9.50211L16.332 2.8335Z" fill="#0071BB"/>
<path d="M29.6654 16.1667L23.0006 9.49805L16.332 16.1667H29.6654Z" fill="#004C98"/>
<path d="M2.99805 16.167L9.66277 22.8356L16.3314 16.167H2.99805Z" fill="#0082C9"/>
<path d="M2.99805 16.167V29.5003L9.66277 22.8356L2.99805 16.167Z" fill="#0071BB"/>
<path d="M16.3314 29.5002L9.66666 22.8315L2.99805 29.5002H16.3314Z" fill="#0066B3"/>
<path d="M16.3307 29.5003V16.167L9.66602 22.8317L16.3307 29.5003Z" fill="#00529C"/>
<path d="M16.332 16.167L22.9968 22.8356L29.6654 16.167H16.332Z" fill="#1B3281"/>
<path d="M16.332 16.167V29.5003L22.9968 22.8356L16.332 16.167Z" fill="#004C98"/>
<path d="M29.6654 29.5002L23.0006 22.8315L16.332 29.5002H29.6654Z" fill="#1B3281"/>
<path d="M29.6647 29.5003V16.167L23 22.8317L29.6647 29.5003Z" fill="#1B3281"/>
<path d="M16.332 2.8335L22.9968 9.50211L29.6654 2.8335H16.332Z" fill="#0066B3"/>
<path d="M29.6647 16.1668V2.8335L23 9.49822L29.6647 16.1668Z" fill="#00529C"/>
<path d="M29.6637 19.5014L21.1254 11.3721L8.16992 24.3587L12.8948 29.0836L21.1254 20.9816L29.6637 29.4732V19.5014Z" fill="white"/>
</g>
<defs>
<clipPath id="clip0_94_12550">
<rect width="26.6667" height="26.6667" fill="white" transform="translate(2.99805 2.8335)"/>
</clipPath>
</defs>
</svg>
