<svg width="163" height="78" viewBox="0 0 163 78" fill="none" xmlns="http://www.w3.org/2000/svg">
<path d="M16.6758 7.888V30.112H19.8918V7.888H16.6758ZM19.0518 16.384V19H22.9638V16.384H19.0518ZM10.8438 10.192V10.744C10.8438 16.768 8.08381 20.848 2.25181 23.872L4.02781 26.296C11.4198 22.576 13.9638 16.864 13.9638 10.192H10.8438ZM3.47581 10.192V12.76H12.4758V10.192H3.47581ZM29.5379 12.256V13.12C29.5379 15.808 28.0019 18.496 24.4019 19.624L25.9379 22.12C30.1619 20.8 32.1299 17.176 32.1299 13.12V12.256H29.5379ZM30.1139 12.256V13.12C30.1139 17.008 32.1539 20.512 36.3539 21.76L37.8899 19.264C34.2899 18.184 32.7299 15.616 32.7299 13.12V12.256H30.1139ZM25.1699 10.528V13.024H37.0979V10.528H25.1699ZM29.5379 8.08V11.464H32.7299V8.08H29.5379ZM36.4019 14.368V16.984H41.5619V14.368H36.4019ZM39.9539 7.936V24.376H43.1459V7.936H39.9539ZM28.4819 27.208V29.752H43.6499V27.208H28.4819ZM28.4819 23.008V28.888H31.6739V23.008H28.4819ZM62.6801 7.912V30.136H65.7041V7.912H62.6801ZM59.7041 16.456V19.024H63.4001V16.456H59.7041ZM57.7121 8.296V29.08H60.6641V8.296H57.7121ZM47.2481 22.504V25.12H48.8081C51.6641 25.12 54.0161 25.048 56.7041 24.52L56.4641 21.928C53.8241 22.408 51.5441 22.504 48.8081 22.504H47.2481ZM47.2481 10.48V23.752H50.4161V13.048H55.4561V10.48H47.2481ZM71.1982 13.912V16.432H86.6062V13.912H71.1982ZM68.7022 18.736V21.28H88.8382V18.736H68.7022ZM71.1982 8.704V15.16H74.3662V8.704H71.1982ZM70.9822 27.112V29.656H86.7262V27.112H70.9822ZM70.9822 23.056V27.784H74.1742V23.056H70.9822ZM112.802 16.312V18.928H116.714V16.312H112.802ZM110.426 7.888V30.112H113.642V7.888H110.426ZM96.8898 10.024V23.824H100.082V10.024H96.8898ZM96.8898 22.048V24.688H98.8098C102.074 24.688 105.65 24.496 109.322 23.728L108.986 21.112C105.41 21.832 101.978 22.048 98.8098 22.048H96.8898ZM127.176 16.096V18.664H130.824V16.096H127.176ZM134.352 7.912V30.136H137.4V7.912H134.352ZM129.816 8.248V29.128H132.816V8.248H129.816ZM123.288 9.472C120.36 9.472 118.488 12.52 118.488 17.536C118.488 22.576 120.36 25.624 123.288 25.624C126.24 25.624 128.136 22.576 128.136 17.536C128.136 12.52 126.24 9.472 123.288 9.472ZM123.288 12.472C124.536 12.472 125.232 14.152 125.232 17.536C125.232 20.944 124.536 22.6 123.288 22.6C122.088 22.6 121.392 20.944 121.392 17.536C121.392 14.152 122.088 12.472 123.288 12.472ZM156.478 7.912V30.136H159.526V7.912H156.478ZM147.67 16.432V18.952H152.422V16.432H147.67ZM151.798 8.392V29.152H154.774V8.392H151.798ZM146.95 10.528V11.176C146.95 16.552 145.15 20.248 140.086 23.296L141.886 25.528C148.126 21.904 150.022 16.864 150.022 10.528H146.95ZM141.334 10.528V13.072H147.958V10.528H141.334Z" fill="#2294FF"/>
<rect width="100" height="35" rx="17.5" transform="matrix(-1 0 0 1 100 43)" fill="#2294FF"/>
<path d="M127.22 50.888V73.184H130.436V50.888H127.22ZM118.46 52.448C115.1 52.448 112.628 55.52 112.628 60.368C112.628 65.264 115.1 68.336 118.46 68.336C121.82 68.336 124.292 65.264 124.292 60.368C124.292 55.52 121.82 52.448 118.46 52.448ZM118.46 55.352C120.116 55.352 121.22 57.104 121.22 60.368C121.22 63.68 120.116 65.456 118.46 65.456C116.804 65.456 115.676 63.68 115.676 60.368C115.676 57.104 116.804 55.352 118.46 55.352ZM148.266 50.888V73.184H151.482V50.888H148.266ZM150.762 59.12V61.736H154.698V59.12H150.762ZM134.922 65.192V67.832H136.794C140.658 67.832 143.706 67.736 147.066 67.136L146.754 64.496C143.49 65.072 140.538 65.192 136.794 65.192H134.922ZM134.922 52.952V66.464H138.09V55.52H145.29V52.952H134.922ZM159.064 71.336C160.312 71.336 161.272 70.352 161.272 69.032C161.272 67.712 160.312 66.752 159.064 66.752C157.792 66.752 156.88 67.712 156.88 69.032C156.88 70.352 157.792 71.336 159.064 71.336Z" fill="#2294FF"/>
</svg>
