<svg width="268" height="65" viewBox="0 0 268 65" fill="none" xmlns="http://www.w3.org/2000/svg">
<g filter="url(#filter0_bd_1580_10678)">
<path d="M6 28C6 21.3726 11.3726 16 18 16H25.1176C26.5855 16 27.9356 15.1959 28.6347 13.9051L32.2414 7.24662C32.9979 5.85004 35.0021 5.85004 35.7586 7.24662L39.9326 14.9526C40.2822 15.598 40.9572 16 41.6912 16H246C252.627 16 258 21.3726 258 28V43C258 49.6274 252.627 55 246 55H18C11.3726 55 6 49.6274 6 43V28Z" fill="white"/>
</g>
<path d="M29.872 33.964V34.792H31.948V33.964H29.872ZM27.844 31.108V33.172C27.844 35.032 26.956 36.976 25.468 37.852L26.092 38.608C27.676 37.636 28.624 35.44 28.624 33.172V31.108H27.844ZM28.036 31.108V33.136C28.036 35.248 28.912 37.408 30.472 38.368L31.048 37.588C29.62 36.724 28.804 34.876 28.804 33.136V31.108H28.036ZM33.856 30.088V40.936H34.816V30.088H33.856ZM31.66 30.316V40.396H32.596V30.316H31.66ZM37.2511 31.144V38.212H42.2431V31.144H37.2511ZM41.2711 31.948V37.408H38.2231V31.948H41.2711ZM44.5111 30.076V40.948H45.5071V30.076H44.5111ZM55.7421 34.408V35.248H57.7461V34.408H55.7421ZM55.0101 30.076V40.936H56.0181V30.076H55.0101ZM48.0981 31.144V37.864H49.0941V31.144H48.0981ZM48.0981 37.348V38.188H48.9621C50.6061 38.188 52.2741 38.08 54.1221 37.696L54.0021 36.868C52.2141 37.24 50.5701 37.348 48.9621 37.348H48.0981ZM60.0372 33.34V34.156H67.4052V33.34H60.0372ZM58.7052 35.608V36.424H68.5452V35.608H58.7052ZM60.0372 30.484V33.748H61.0212V30.484H60.0372ZM59.9652 39.856V40.672H67.4652V39.856H59.9652ZM59.9652 37.504V40.072H60.9492V37.504H59.9652ZM72.8838 30.532V35.272H77.8998V30.532H76.9278V32.092H73.8678V30.532H72.8838ZM73.8678 32.872H76.9278V34.468H73.8678V32.872ZM79.8558 30.088V35.68H80.8518V30.088H79.8558ZM80.4198 32.416V33.244H82.4478V32.416H80.4198ZM73.9638 36.208V37H79.8798V38.092H73.9878V40.468H74.9718V38.836H80.8518V36.208H73.9638ZM73.9878 40.024V40.816H81.2478V40.024H73.9878ZM86.1909 35.968V39.064H87.1869V35.968H86.1909ZM89.5389 35.968V39.064H90.5229V35.968H89.5389ZM83.4789 38.8V39.628H93.3069V38.8H83.4789ZM84.3309 31.084V31.9H92.3829V31.084H84.3309ZM84.3549 35.428V36.232H92.3709V35.428H84.3549ZM86.0229 31.744V35.596H87.0189V31.744H86.0229ZM89.7189 31.744V35.596H90.7029V31.744H89.7189ZM100.742 30.592C99.1336 30.592 97.9816 31.492 97.9816 32.824C97.9816 34.144 99.1336 35.068 100.742 35.068C102.362 35.068 103.514 34.144 103.514 32.824C103.514 31.492 102.362 30.592 100.742 30.592ZM100.742 31.42C101.798 31.42 102.554 31.996 102.554 32.824C102.554 33.664 101.798 34.228 100.742 34.228C99.6856 34.228 98.9296 33.664 98.9296 32.824C98.9296 31.996 99.6856 31.42 100.742 31.42ZM100.298 36.268V40.6H101.294V36.268H100.298ZM105.098 30.088V40.948H106.082V30.088H105.098ZM97.3096 36.808C99.2896 36.808 101.954 36.772 104.402 36.328L104.33 35.584C101.942 35.944 99.1936 35.968 97.1776 35.968L97.3096 36.808ZM112.585 31.156V31.612C112.585 33.04 110.725 34.288 108.817 34.564L109.201 35.356C111.385 34.984 113.449 33.556 113.449 31.612V31.156H112.585ZM112.837 31.156V31.612C112.837 33.556 114.889 34.984 117.085 35.356L117.457 34.564C115.561 34.288 113.689 33.04 113.689 31.612V31.156H112.837ZM112.621 36.796V40.936H113.605V36.796H112.621ZM108.241 36.268V37.084H118.045V36.268H108.241ZM109.153 30.76V31.564H117.097V30.76H109.153ZM119.28 38.776V39.604H129.108V38.776H119.28ZM123.672 36.448V39.124H124.668V36.448H123.672ZM120.468 30.892V31.696H126.912V33.376H120.504V36.352H121.488V34.18H127.896V30.892H120.468ZM120.504 35.932V36.748H128.148V35.932H120.504ZM135.882 31.276V32.38C135.882 33.928 134.778 35.332 133.146 35.908L133.662 36.7C135.486 36.04 136.71 34.372 136.71 32.38V31.276H135.882ZM136.074 31.276V32.38C136.074 34.288 137.322 35.872 139.122 36.484L139.638 35.704C138.03 35.164 136.902 33.844 136.902 32.38V31.276H136.074ZM133.41 30.988V31.792H139.35V30.988H133.41ZM140.886 30.1V38.032H141.894V30.1H140.886ZM134.922 39.88V40.696H142.218V39.88H134.922ZM134.922 37.288V40.24H135.906V37.288H134.922ZM152.225 30.088V36.952H153.173V30.088H152.225ZM150.461 33.028V33.856H152.513V33.028H150.461ZM149.909 30.304V36.568H150.845V30.304H149.909ZM143.981 31.384V32.176H149.477V31.384H143.981ZM146.741 32.728C145.373 32.728 144.425 33.472 144.425 34.588C144.425 35.716 145.373 36.448 146.741 36.448C148.097 36.448 149.045 35.716 149.045 34.588C149.045 33.472 148.097 32.728 146.741 32.728ZM146.741 33.472C147.581 33.472 148.157 33.916 148.157 34.588C148.157 35.272 147.581 35.704 146.741 35.704C145.889 35.704 145.313 35.272 145.313 34.588C145.313 33.916 145.889 33.472 146.741 33.472ZM146.249 30.172V31.828H147.221V30.172H146.249ZM149.621 37.144C147.341 37.144 145.997 37.816 145.997 39.028C145.997 40.228 147.341 40.912 149.621 40.912C151.877 40.912 153.233 40.228 153.233 39.028C153.233 37.816 151.877 37.144 149.621 37.144ZM149.621 37.912C151.265 37.912 152.249 38.308 152.249 39.028C152.249 39.748 151.265 40.156 149.621 40.156C147.953 40.156 146.981 39.748 146.981 39.028C146.981 38.308 147.953 37.912 149.621 37.912ZM155.932 34.756V35.572H161.488V34.756H155.932ZM158.152 35.404V37.9H159.16V35.404H158.152ZM155.932 31.108V35.044H156.928V31.924H161.428V31.108H155.932ZM162.916 30.076V40.948H163.912V30.076H162.916ZM155.272 38.596C157.324 38.608 159.916 38.56 162.292 38.2L162.208 37.456C159.916 37.732 157.252 37.756 155.128 37.768L155.272 38.596ZM167.44 33.34V34.156H174.808V33.34H167.44ZM166.108 35.608V36.424H175.948V35.608H166.108ZM167.44 30.484V33.748H168.424V30.484H167.44ZM167.368 39.856V40.672H174.868V39.856H167.368ZM167.368 37.504V40.072H168.352V37.504H167.368ZM188.026 30.088V36.952H188.974V30.088H188.026ZM186.262 33.028V33.856H188.314V33.028H186.262ZM185.71 30.304V36.568H186.646V30.304H185.71ZM179.782 31.384V32.176H185.278V31.384H179.782ZM182.542 32.728C181.174 32.728 180.226 33.472 180.226 34.588C180.226 35.716 181.174 36.448 182.542 36.448C183.898 36.448 184.846 35.716 184.846 34.588C184.846 33.472 183.898 32.728 182.542 32.728ZM182.542 33.472C183.382 33.472 183.958 33.916 183.958 34.588C183.958 35.272 183.382 35.704 182.542 35.704C181.69 35.704 181.114 35.272 181.114 34.588C181.114 33.916 181.69 33.472 182.542 33.472ZM182.05 30.172V31.828H183.022V30.172H182.05ZM185.422 37.144C183.142 37.144 181.798 37.816 181.798 39.028C181.798 40.228 183.142 40.912 185.422 40.912C187.678 40.912 189.034 40.228 189.034 39.028C189.034 37.816 187.678 37.144 185.422 37.144ZM185.422 37.912C187.066 37.912 188.05 38.308 188.05 39.028C188.05 39.748 187.066 40.156 185.422 40.156C183.754 40.156 182.782 39.748 182.782 39.028C182.782 38.308 183.754 37.912 185.422 37.912ZM193.533 31.024V32.968C193.533 34.948 192.297 37.036 190.725 37.828L191.337 38.62C193.053 37.708 194.349 35.368 194.349 32.968V31.024H193.533ZM193.713 31.024V32.968C193.713 35.296 194.973 37.516 196.653 38.416L197.265 37.624C195.729 36.856 194.517 34.876 194.517 32.968V31.024H193.713ZM198.213 30.088V40.936H199.221V30.088H198.213ZM198.981 34.48V35.32H200.997V34.48H198.981ZM209.804 30.088V35.908H210.812V30.088H209.804ZM203.816 36.448V40.792H210.812V36.448H209.828V37.768H204.8V36.448H203.816ZM204.8 38.56H209.828V39.988H204.8V38.56ZM204.992 30.604C203.348 30.604 202.16 31.624 202.16 33.1C202.16 34.588 203.348 35.608 204.992 35.608C206.636 35.608 207.812 34.588 207.812 33.1C207.812 31.624 206.636 30.604 204.992 30.604ZM204.992 31.432C206.072 31.432 206.852 32.116 206.852 33.1C206.852 34.084 206.072 34.768 204.992 34.768C203.912 34.768 203.132 34.084 203.132 33.1C203.132 32.116 203.912 31.432 204.992 31.432ZM220.843 30.088V40.936H221.839V30.088H220.843ZM213.643 31.144V37.864H214.627V31.144H213.643ZM213.643 37.276V38.14H214.531C216.247 38.14 217.963 38.008 219.847 37.624L219.727 36.772C217.891 37.156 216.175 37.276 214.531 37.276H213.643ZM231.33 30.076V40.948H232.338V30.076H231.33ZM232.098 34.36V35.2H234.114V34.36H232.098ZM224.454 37.408V38.248H225.306C227.346 38.248 228.774 38.188 230.442 37.876L230.334 37.036C228.714 37.336 227.31 37.408 225.306 37.408H224.454ZM224.454 31.132V37.78H225.438V31.948H229.494V31.132H224.454ZM236.094 40.168C236.538 40.168 236.898 39.82 236.898 39.328C236.898 38.824 236.538 38.488 236.094 38.488C235.662 38.488 235.314 38.824 235.314 39.328C235.314 39.82 235.662 40.168 236.094 40.168Z" fill="#2294FF"/>
<defs>
<filter id="filter0_bd_1580_10678" x="-10" y="-9.80078" width="284" height="80.8008" filterUnits="userSpaceOnUse" color-interpolation-filters="sRGB">
<feFlood flood-opacity="0" result="BackgroundImageFix"/>
<feGaussianBlur in="BackgroundImageFix" stdDeviation="8"/>
<feComposite in2="SourceAlpha" operator="in" result="effect1_backgroundBlur_1580_10678"/>
<feColorMatrix in="SourceAlpha" type="matrix" values="0 0 0 0 0 0 0 0 0 0 0 0 0 0 0 0 0 0 127 0" result="hardAlpha"/>
<feOffset dx="2" dy="2"/>
<feGaussianBlur stdDeviation="4"/>
<feComposite in2="hardAlpha" operator="out"/>
<feColorMatrix type="matrix" values="0 0 0 0 0 0 0 0 0 0 0 0 0 0 0 0 0 0 0.1 0"/>
<feBlend mode="normal" in2="effect1_backgroundBlur_1580_10678" result="effect2_dropShadow_1580_10678"/>
<feBlend mode="normal" in="SourceGraphic" in2="effect2_dropShadow_1580_10678" result="shape"/>
</filter>
</defs>
</svg>
