<svg width="252" height="53" viewBox="0 0 252 53" fill="none" xmlns="http://www.w3.org/2000/svg">
<path d="M251.5 26V41C251.5 47.3513 246.351 52.5 240 52.5H12C5.64873 52.5 0.5 47.3513 0.5 41V26C0.5 19.6487 5.64873 14.5 12 14.5H19.1176C20.769 14.5 22.2878 13.5954 23.0744 12.1433L26.6811 5.48476C27.2484 4.43732 28.7516 4.43732 29.3189 5.48476L33.493 13.1907C33.93 13.9974 34.7737 14.5 35.6912 14.5H240C246.351 14.5 251.5 19.6487 251.5 26Z" fill="white" stroke="#2294FF"/>
<path d="M23.872 31.964V32.792H25.948V31.964H23.872ZM21.844 29.108V31.172C21.844 33.032 20.956 34.976 19.468 35.852L20.092 36.608C21.676 35.636 22.624 33.44 22.624 31.172V29.108H21.844ZM22.036 29.108V31.136C22.036 33.248 22.912 35.408 24.472 36.368L25.048 35.588C23.62 34.724 22.804 32.876 22.804 31.136V29.108H22.036ZM27.856 28.088V38.936H28.816V28.088H27.856ZM25.66 28.316V38.396H26.596V28.316H25.66ZM31.2511 29.144V36.212H36.2431V29.144H31.2511ZM35.2711 29.948V35.408H32.2231V29.948H35.2711ZM38.5111 28.076V38.948H39.5071V28.076H38.5111ZM49.7421 32.408V33.248H51.7461V32.408H49.7421ZM49.0101 28.076V38.936H50.0181V28.076H49.0101ZM42.0981 29.144V35.864H43.0941V29.144H42.0981ZM42.0981 35.348V36.188H42.9621C44.6061 36.188 46.2741 36.08 48.1221 35.696L48.0021 34.868C46.2141 35.24 44.5701 35.348 42.9621 35.348H42.0981ZM54.0372 31.34V32.156H61.4052V31.34H54.0372ZM52.7052 33.608V34.424H62.5452V33.608H52.7052ZM54.0372 28.484V31.748H55.0212V28.484H54.0372ZM53.9652 37.856V38.672H61.4652V37.856H53.9652ZM53.9652 35.504V38.072H54.9492V35.504H53.9652ZM66.8838 28.532V33.272H71.8998V28.532H70.9278V30.092H67.8678V28.532H66.8838ZM67.8678 30.872H70.9278V32.468H67.8678V30.872ZM73.8558 28.088V33.68H74.8518V28.088H73.8558ZM74.4198 30.416V31.244H76.4478V30.416H74.4198ZM67.9638 34.208V35H73.8798V36.092H67.9878V38.468H68.9718V36.836H74.8518V34.208H67.9638ZM67.9878 38.024V38.816H75.2478V38.024H67.9878ZM80.1909 33.968V37.064H81.1869V33.968H80.1909ZM83.5389 33.968V37.064H84.5229V33.968H83.5389ZM77.4789 36.8V37.628H87.3069V36.8H77.4789ZM78.3309 29.084V29.9H86.3829V29.084H78.3309ZM78.3549 33.428V34.232H86.3709V33.428H78.3549ZM80.0229 29.744V33.596H81.0189V29.744H80.0229ZM83.7189 29.744V33.596H84.7029V29.744H83.7189ZM94.7416 28.592C93.1336 28.592 91.9816 29.492 91.9816 30.824C91.9816 32.144 93.1336 33.068 94.7416 33.068C96.3616 33.068 97.5136 32.144 97.5136 30.824C97.5136 29.492 96.3616 28.592 94.7416 28.592ZM94.7416 29.42C95.7976 29.42 96.5536 29.996 96.5536 30.824C96.5536 31.664 95.7976 32.228 94.7416 32.228C93.6856 32.228 92.9296 31.664 92.9296 30.824C92.9296 29.996 93.6856 29.42 94.7416 29.42ZM94.2976 34.268V38.6H95.2936V34.268H94.2976ZM99.0976 28.088V38.948H100.082V28.088H99.0976ZM91.3096 34.808C93.2896 34.808 95.9536 34.772 98.4016 34.328L98.3296 33.584C95.9416 33.944 93.1936 33.968 91.1776 33.968L91.3096 34.808ZM106.585 29.156V29.612C106.585 31.04 104.725 32.288 102.817 32.564L103.201 33.356C105.385 32.984 107.449 31.556 107.449 29.612V29.156H106.585ZM106.837 29.156V29.612C106.837 31.556 108.889 32.984 111.085 33.356L111.457 32.564C109.561 32.288 107.689 31.04 107.689 29.612V29.156H106.837ZM106.621 34.796V38.936H107.605V34.796H106.621ZM102.241 34.268V35.084H112.045V34.268H102.241ZM103.153 28.76V29.564H111.097V28.76H103.153ZM113.28 36.776V37.604H123.108V36.776H113.28ZM117.672 34.448V37.124H118.668V34.448H117.672ZM114.468 28.892V29.696H120.912V31.376H114.504V34.352H115.488V32.18H121.896V28.892H114.468ZM114.504 33.932V34.748H122.148V33.932H114.504ZM129.882 29.276V30.38C129.882 31.928 128.778 33.332 127.146 33.908L127.662 34.7C129.486 34.04 130.71 32.372 130.71 30.38V29.276H129.882ZM130.074 29.276V30.38C130.074 32.288 131.322 33.872 133.122 34.484L133.638 33.704C132.03 33.164 130.902 31.844 130.902 30.38V29.276H130.074ZM127.41 28.988V29.792H133.35V28.988H127.41ZM134.886 28.1V36.032H135.894V28.1H134.886ZM128.922 37.88V38.696H136.218V37.88H128.922ZM128.922 35.288V38.24H129.906V35.288H128.922ZM146.225 28.088V34.952H147.173V28.088H146.225ZM144.461 31.028V31.856H146.513V31.028H144.461ZM143.909 28.304V34.568H144.845V28.304H143.909ZM137.981 29.384V30.176H143.477V29.384H137.981ZM140.741 30.728C139.373 30.728 138.425 31.472 138.425 32.588C138.425 33.716 139.373 34.448 140.741 34.448C142.097 34.448 143.045 33.716 143.045 32.588C143.045 31.472 142.097 30.728 140.741 30.728ZM140.741 31.472C141.581 31.472 142.157 31.916 142.157 32.588C142.157 33.272 141.581 33.704 140.741 33.704C139.889 33.704 139.313 33.272 139.313 32.588C139.313 31.916 139.889 31.472 140.741 31.472ZM140.249 28.172V29.828H141.221V28.172H140.249ZM143.621 35.144C141.341 35.144 139.997 35.816 139.997 37.028C139.997 38.228 141.341 38.912 143.621 38.912C145.877 38.912 147.233 38.228 147.233 37.028C147.233 35.816 145.877 35.144 143.621 35.144ZM143.621 35.912C145.265 35.912 146.249 36.308 146.249 37.028C146.249 37.748 145.265 38.156 143.621 38.156C141.953 38.156 140.981 37.748 140.981 37.028C140.981 36.308 141.953 35.912 143.621 35.912ZM149.932 32.756V33.572H155.488V32.756H149.932ZM152.152 33.404V35.9H153.16V33.404H152.152ZM149.932 29.108V33.044H150.928V29.924H155.428V29.108H149.932ZM156.916 28.076V38.948H157.912V28.076H156.916ZM149.272 36.596C151.324 36.608 153.916 36.56 156.292 36.2L156.208 35.456C153.916 35.732 151.252 35.756 149.128 35.768L149.272 36.596ZM161.44 31.34V32.156H168.808V31.34H161.44ZM160.108 33.608V34.424H169.948V33.608H160.108ZM161.44 28.484V31.748H162.424V28.484H161.44ZM161.368 37.856V38.672H168.868V37.856H161.368ZM161.368 35.504V38.072H162.352V35.504H161.368ZM182.026 28.088V34.952H182.974V28.088H182.026ZM180.262 31.028V31.856H182.314V31.028H180.262ZM179.71 28.304V34.568H180.646V28.304H179.71ZM173.782 29.384V30.176H179.278V29.384H173.782ZM176.542 30.728C175.174 30.728 174.226 31.472 174.226 32.588C174.226 33.716 175.174 34.448 176.542 34.448C177.898 34.448 178.846 33.716 178.846 32.588C178.846 31.472 177.898 30.728 176.542 30.728ZM176.542 31.472C177.382 31.472 177.958 31.916 177.958 32.588C177.958 33.272 177.382 33.704 176.542 33.704C175.69 33.704 175.114 33.272 175.114 32.588C175.114 31.916 175.69 31.472 176.542 31.472ZM176.05 28.172V29.828H177.022V28.172H176.05ZM179.422 35.144C177.142 35.144 175.798 35.816 175.798 37.028C175.798 38.228 177.142 38.912 179.422 38.912C181.678 38.912 183.034 38.228 183.034 37.028C183.034 35.816 181.678 35.144 179.422 35.144ZM179.422 35.912C181.066 35.912 182.05 36.308 182.05 37.028C182.05 37.748 181.066 38.156 179.422 38.156C177.754 38.156 176.782 37.748 176.782 37.028C176.782 36.308 177.754 35.912 179.422 35.912ZM187.533 29.024V30.968C187.533 32.948 186.297 35.036 184.725 35.828L185.337 36.62C187.053 35.708 188.349 33.368 188.349 30.968V29.024H187.533ZM187.713 29.024V30.968C187.713 33.296 188.973 35.516 190.653 36.416L191.265 35.624C189.729 34.856 188.517 32.876 188.517 30.968V29.024H187.713ZM192.213 28.088V38.936H193.221V28.088H192.213ZM192.981 32.48V33.32H194.997V32.48H192.981ZM203.804 28.088V33.908H204.812V28.088H203.804ZM197.816 34.448V38.792H204.812V34.448H203.828V35.768H198.8V34.448H197.816ZM198.8 36.56H203.828V37.988H198.8V36.56ZM198.992 28.604C197.348 28.604 196.16 29.624 196.16 31.1C196.16 32.588 197.348 33.608 198.992 33.608C200.636 33.608 201.812 32.588 201.812 31.1C201.812 29.624 200.636 28.604 198.992 28.604ZM198.992 29.432C200.072 29.432 200.852 30.116 200.852 31.1C200.852 32.084 200.072 32.768 198.992 32.768C197.912 32.768 197.132 32.084 197.132 31.1C197.132 30.116 197.912 29.432 198.992 29.432ZM214.843 28.088V38.936H215.839V28.088H214.843ZM207.643 29.144V35.864H208.627V29.144H207.643ZM207.643 35.276V36.14H208.531C210.247 36.14 211.963 36.008 213.847 35.624L213.727 34.772C211.891 35.156 210.175 35.276 208.531 35.276H207.643ZM225.33 28.076V38.948H226.338V28.076H225.33ZM226.098 32.36V33.2H228.114V32.36H226.098ZM218.454 35.408V36.248H219.306C221.346 36.248 222.774 36.188 224.442 35.876L224.334 35.036C222.714 35.336 221.31 35.408 219.306 35.408H218.454ZM218.454 29.132V35.78H219.438V29.948H223.494V29.132H218.454ZM230.094 38.168C230.538 38.168 230.898 37.82 230.898 37.328C230.898 36.824 230.538 36.488 230.094 36.488C229.662 36.488 229.314 36.824 229.314 37.328C229.314 37.82 229.662 38.168 230.094 38.168Z" fill="#2294FF"/>
</svg>
