<svg width="33" height="33" viewBox="0 0 33 33" fill="none" xmlns="http://www.w3.org/2000/svg">
<g clip-path="url(#clip0_94_12524)">
<path d="M28.5307 18.7837C27.238 22.0029 25.0629 22.9164 25.0629 22.9164C31.4578 16.4407 27.5488 8.97068 27.5488 8.97068C26.6041 7.29893 27.8036 6.57182 27.8036 6.57182C25.0567 7.25544 25.9392 9.53002 25.9392 9.53002C27.0183 11.9178 27.2379 14.6055 26.5606 17.1368L25.6595 16.6334C25.6595 16.6334 27.8036 8.18763 19.0595 5.22323V3.63227H17.1951V14.104L25.7776 18.995C25.616 19.3119 25.4544 19.6164 25.2804 19.8899L16.6606 14.9181L8.00978 19.8899C7.82911 19.6001 7.66319 19.3015 7.51261 18.995L16.0951 14.104V3.60742H14.2307V5.19838C5.48662 8.16279 7.63068 16.6085 7.63068 16.6085L6.72334 17.1119C6.04967 14.5803 6.26915 11.8939 7.34481 9.50516C7.34481 9.50516 8.20244 7.23057 5.48041 6.54696C5.48041 6.54696 6.67984 7.27409 5.73521 8.94584C5.73521 8.94584 1.83239 16.4035 8.22109 22.8916C8.22109 22.8916 6.05216 21.978 4.75329 18.7588C4.49284 18.2706 4.07696 17.8833 3.57153 17.6582C3.06609 17.433 2.5 17.383 1.96289 17.5159C2.27707 17.7155 2.54865 17.9753 2.76197 18.2804C2.97529 18.5854 3.12614 18.9297 3.20583 19.2933C3.20583 19.2933 5.07024 25.1972 12.2233 26.0984V29.3549H15.7471V24.5509C13.2271 24.3862 10.8686 23.2526 9.16571 21.3876L10.0482 20.8718C11.8633 22.5028 14.1807 23.4652 16.6171 23.6001H16.6855C19.1211 23.4618 21.4375 22.4998 23.2544 20.8718L24.1369 21.3876C22.4341 23.2526 20.0756 24.3862 17.5555 24.5509V29.3549H21.0731V26.0984C28.2386 25.1972 30.0968 19.2933 30.0968 19.2933C30.1765 18.9297 30.3273 18.5854 30.5406 18.2804C30.754 17.9753 31.0255 17.7155 31.3397 17.5159C30.7972 17.3882 30.2278 17.4433 29.7198 17.6726C29.2119 17.9018 28.7938 18.2924 28.5307 18.7837V18.7837ZM23.9505 15.6763L19.103 12.9792V7.18707C19.103 7.18707 24.9386 8.7594 23.9505 15.6639V15.6763ZM14.1996 7.16843V12.9605L9.35838 15.6763C8.38888 8.75939 14.1996 7.16843 14.1996 7.16843ZM16.6855 17.0622L21.5081 19.8899H21.4646C20.1396 21.0587 18.4336 21.7036 16.6668 21.7036C14.9001 21.7036 13.1941 21.0587 11.8691 19.8899H11.8256L16.6855 17.0622Z" fill="#0056A7"/>
</g>
<defs>
<clipPath id="clip0_94_12524">
<rect width="29.3333" height="25.7847" fill="white" transform="translate(2 3.60742)"/>
</clipPath>
</defs>
</svg>
