<svg width="33" height="33" viewBox="0 0 33 33" fill="none" xmlns="http://www.w3.org/2000/svg">
<g clip-path="url(#clip0_94_12582)">
<path d="M8.07827 21.5007C7.86597 22.6669 8.46263 23.0422 9.499 23.0422C10.2335 23.0422 11.0576 22.7635 11.2236 22.028C11.4248 21.1546 10.1218 20.9876 8.86209 20.5831C7.60234 20.1786 6.3587 19.5427 6.77123 17.7235C7.26225 15.5582 9.51208 14.71 11.2689 14.71C13.1313 14.71 14.7905 15.6689 14.2955 17.9056H11.8575C12.101 17 11.3665 16.7103 10.6199 16.7103C10.0947 16.7103 9.39537 16.9034 9.24846 17.5575C9.07439 18.3212 10.3935 18.463 11.6633 18.8655C12.9331 19.268 14.1345 19.9331 13.73 21.7241C13.1595 24.2396 10.958 25.0445 8.90032 25.0445C6.7491 25.0445 5.07682 24.0454 5.63626 21.5047L8.07827 21.5007Z" fill="#005EA1"/>
<path d="M24.952 14.9185H27.39L25.1431 24.8324H22.7031L24.952 14.9185Z" fill="#005EA1"/>
<path d="M16.0652 14.9191H20.4431C22.062 14.892 23.7313 15.3347 23.2604 17.4044C23.0592 18.2929 22.3971 19.0143 21.575 19.4037C22.5027 19.7055 22.9113 20.6262 22.6567 21.7501C22.1234 24.1116 20.3213 24.8361 18.315 24.8361H13.8184L16.0652 14.9191ZM17.6187 18.8211H19.5063C19.9259 18.8211 20.5558 18.5836 20.7137 17.8763C20.8717 17.169 20.4471 16.9174 19.936 16.9174H18.0494L17.6187 18.8211ZM16.7242 22.7633H18.6792C19.452 22.7633 20.0547 22.4705 20.2418 21.6565C20.4431 20.7812 19.9289 20.4894 19.1944 20.4894H17.2404L16.7242 22.7633Z" fill="#005EA1"/>
<path d="M30.7961 10.9384C29.4478 7.3584 21.7344 6.94989 13.5702 10.0248C7.7474 12.2183 3.26887 15.592 1.66602 18.6468C3.87962 16.3326 7.45963 14.0586 11.7772 12.4306C19.9424 9.35468 27.6548 9.7642 29.0031 13.3452C29.3915 14.3715 29.2114 15.5478 28.5664 16.7773C30.5405 14.7166 31.431 12.6248 30.7961 10.9414" fill="#EE303C"/>
</g>
<defs>
<clipPath id="clip0_94_12582">
<rect width="29.3333" height="17.081" fill="white" transform="translate(1.66602 7.95947)"/>
</clipPath>
</defs>
</svg>
