<svg width="16" height="16" viewBox="0 0 16 16" fill="none" xmlns="http://www.w3.org/2000/svg">
<mask id="mask0_584_10342" style="mask-type:alpha" maskUnits="userSpaceOnUse" x="0" y="0" width="16" height="16">
<rect width="16" height="16" fill="#D9D9D9"/>
</mask>
<g mask="url(#mask0_584_10342)">
<path d="M7.96665 12.0002C8.19998 12.0002 8.39731 11.9195 8.55865 11.7582C8.71953 11.5973 8.79998 11.4002 8.79998 11.1668C8.79998 10.9335 8.71953 10.7364 8.55865 10.5755C8.39731 10.4142 8.19998 10.3335 7.96665 10.3335C7.73331 10.3335 7.53598 10.4142 7.37465 10.5755C7.21376 10.7364 7.13331 10.9335 7.13331 11.1668C7.13331 11.4002 7.21376 11.5973 7.37465 11.7582C7.53598 11.9195 7.73331 12.0002 7.96665 12.0002ZM7.36665 9.4335H8.59998C8.59998 9.06683 8.64176 8.77794 8.72531 8.56683C8.80842 8.35572 9.04442 8.06683 9.43331 7.70016C9.7222 7.41127 9.94998 7.13616 10.1166 6.87483C10.2833 6.61394 10.3666 6.30016 10.3666 5.9335C10.3666 5.31127 10.1389 4.8335 9.68331 4.50016C9.22776 4.16683 8.68887 4.00016 8.06665 4.00016C7.43331 4.00016 6.91954 4.16683 6.52531 4.50016C6.13065 4.8335 5.85554 5.2335 5.69998 5.70016L6.79998 6.1335C6.85553 5.9335 6.98065 5.71683 7.17531 5.4835C7.36953 5.25016 7.66665 5.1335 8.06665 5.1335C8.4222 5.1335 8.68887 5.23061 8.86665 5.42483C9.04442 5.6195 9.13331 5.8335 9.13331 6.06683C9.13331 6.28905 9.06665 6.49727 8.93331 6.6915C8.79998 6.88616 8.63331 7.06683 8.43331 7.2335C7.94442 7.66683 7.64442 7.99461 7.53331 8.21683C7.4222 8.43905 7.36665 8.84461 7.36665 9.4335ZM7.99998 14.6668C7.07776 14.6668 6.21109 14.4917 5.39998 14.1415C4.58887 13.7917 3.88331 13.3168 3.28331 12.7168C2.68331 12.1168 2.20842 11.4113 1.85865 10.6002C1.50842 9.78905 1.33331 8.92238 1.33331 8.00016C1.33331 7.07794 1.50842 6.21127 1.85865 5.40016C2.20842 4.58905 2.68331 3.8835 3.28331 3.2835C3.88331 2.6835 4.58887 2.20838 5.39998 1.85816C6.21109 1.50838 7.07776 1.3335 7.99998 1.3335C8.9222 1.3335 9.78887 1.50838 10.6 1.85816C11.4111 2.20838 12.1166 2.6835 12.7166 3.2835C13.3166 3.8835 13.7915 4.58905 14.1413 5.40016C14.4915 6.21127 14.6666 7.07794 14.6666 8.00016C14.6666 8.92238 14.4915 9.78905 14.1413 10.6002C13.7915 11.4113 13.3166 12.1168 12.7166 12.7168C12.1166 13.3168 11.4111 13.7917 10.6 14.1415C9.78887 14.4917 8.9222 14.6668 7.99998 14.6668ZM7.99998 13.3335C9.48887 13.3335 10.75 12.8168 11.7833 11.7835C12.8166 10.7502 13.3333 9.48905 13.3333 8.00016C13.3333 6.51127 12.8166 5.25016 11.7833 4.21683C10.75 3.1835 9.48887 2.66683 7.99998 2.66683C6.51109 2.66683 5.24998 3.1835 4.21665 4.21683C3.18331 5.25016 2.66665 6.51127 2.66665 8.00016C2.66665 9.48905 3.18331 10.7502 4.21665 11.7835C5.24998 12.8168 6.51109 13.3335 7.99998 13.3335Z" fill="#2294FF"/>
</g>
</svg>
