<svg width="390" height="233" viewBox="0 0 390 233" fill="none" xmlns="http://www.w3.org/2000/svg">
<g filter="url(#filter0_bdii_854_8473)">
<path d="M234.5 159.5C228.519 159.5 223.398 157.37 219.139 153.111C214.88 148.852 212.75 143.731 212.75 137.75C212.75 131.769 214.88 126.648 219.139 122.389C223.398 118.13 228.519 116 234.5 116C240.481 116 245.602 118.13 249.861 122.389C254.12 126.648 256.25 131.769 256.25 137.75C256.25 143.731 254.12 148.852 249.861 153.111C245.602 157.37 240.481 159.5 234.5 159.5ZM201.875 203C198.884 203 196.325 201.936 194.197 199.808C192.066 197.677 191 195.116 191 192.125V187.775C191 184.694 191.794 181.861 193.382 179.276C194.966 176.695 197.072 174.725 199.7 173.366C205.319 170.556 211.028 168.448 216.828 167.042C222.628 165.639 228.519 164.938 234.5 164.938C240.481 164.938 246.372 165.639 252.172 167.042C257.972 168.448 263.681 170.556 269.3 173.366C271.928 174.725 274.034 176.695 275.618 179.276C277.206 181.861 278 184.694 278 187.775V192.125C278 195.116 276.936 197.677 274.808 199.808C272.677 201.936 270.116 203 267.125 203H201.875Z" fill="url(#paint0_linear_854_8473)" shape-rendering="crispEdges"/>
<path d="M259 116H303C312.941 116 321 107.941 321 98C321 88.0589 312.941 80 303 80H279C267.954 80 259 88.9543 259 100V116Z" fill="url(#paint1_linear_854_8473)" shape-rendering="crispEdges"/>
<path d="M158 73C158 84.0457 149.046 93 138 93H69C57.9543 93 49 84.0457 49 73V54C49 42.9543 57.9543 34 69 34H138C149.046 34 158 42.9543 158 54V73Z" fill="#2294FF" fill-opacity="0.2" shape-rendering="crispEdges"/>
<path d="M181.5 152C174.556 152 168.612 149.503 163.667 144.509C158.722 139.516 156.25 133.513 156.25 126.5C156.25 119.487 158.722 113.484 163.667 108.491C168.612 103.497 174.556 101 181.5 101C188.444 101 194.388 103.497 199.333 108.491C204.278 113.484 206.75 119.487 206.75 126.5C206.75 133.513 204.278 139.516 199.333 144.509C194.388 149.503 188.444 152 181.5 152ZM143.625 203C140.153 203 137.182 201.753 134.712 199.258C132.237 196.759 131 193.756 131 190.25V185.15C131 181.538 131.922 178.216 133.765 175.186C135.604 172.16 138.049 169.85 141.1 168.256C147.623 164.963 154.251 162.491 160.984 160.842C167.718 159.197 174.556 158.375 181.5 158.375C188.444 158.375 195.282 159.197 202.016 160.842C208.749 162.491 215.377 164.963 221.9 168.256C224.951 169.85 227.396 172.16 229.235 175.186C231.078 178.216 232 181.538 232 185.15V190.25C232 193.756 230.765 196.759 228.295 199.258C225.82 201.753 222.847 203 219.375 203H143.625Z" fill="#0084FF" fill-opacity="0.2" shape-rendering="crispEdges"/>
</g>
<defs>
<filter id="filter0_bdii_854_8473" x="19" y="0" width="336" height="233" filterUnits="userSpaceOnUse" color-interpolation-filters="sRGB">
<feFlood flood-opacity="0" result="BackgroundImageFix"/>
<feGaussianBlur in="BackgroundImageFix" stdDeviation="6"/>
<feComposite in2="SourceAlpha" operator="in" result="effect1_backgroundBlur_854_8473"/>
<feColorMatrix in="SourceAlpha" type="matrix" values="0 0 0 0 0 0 0 0 0 0 0 0 0 0 0 0 0 0 127 0" result="hardAlpha"/>
<feOffset dx="2" dy="-2"/>
<feGaussianBlur stdDeviation="16"/>
<feComposite in2="hardAlpha" operator="out"/>
<feColorMatrix type="matrix" values="0 0 0 0 0.4375 0 0 0 0 0.727658 0 0 0 0 1 0 0 0 1 0"/>
<feBlend mode="color-burn" in2="effect1_backgroundBlur_854_8473" result="effect2_dropShadow_854_8473"/>
<feBlend mode="normal" in="SourceGraphic" in2="effect2_dropShadow_854_8473" result="shape"/>
<feColorMatrix in="SourceAlpha" type="matrix" values="0 0 0 0 0 0 0 0 0 0 0 0 0 0 0 0 0 0 127 0" result="hardAlpha"/>
<feOffset dy="-2"/>
<feGaussianBlur stdDeviation="5"/>
<feComposite in2="hardAlpha" operator="arithmetic" k2="-1" k3="1"/>
<feColorMatrix type="matrix" values="0 0 0 0 0.133333 0 0 0 0 0.580392 0 0 0 0 1 0 0 0 0.25 0"/>
<feBlend mode="normal" in2="shape" result="effect3_innerShadow_854_8473"/>
<feColorMatrix in="SourceAlpha" type="matrix" values="0 0 0 0 0 0 0 0 0 0 0 0 0 0 0 0 0 0 127 0" result="hardAlpha"/>
<feOffset dx="-2" dy="2"/>
<feGaussianBlur stdDeviation="5"/>
<feComposite in2="hardAlpha" operator="arithmetic" k2="-1" k3="1"/>
<feColorMatrix type="matrix" values="0 0 0 0 1 0 0 0 0 1 0 0 0 0 1 0 0 0 0.5 0"/>
<feBlend mode="normal" in2="effect3_innerShadow_854_8473" result="effect4_innerShadow_854_8473"/>
</filter>
<linearGradient id="paint0_linear_854_8473" x1="273.508" y1="7.1746" x2="201.606" y2="200.759" gradientUnits="userSpaceOnUse">
<stop offset="0.0957034" stop-color="#BCD9F4"/>
<stop offset="1" stop-color="#2294FF"/>
</linearGradient>
<linearGradient id="paint1_linear_854_8473" x1="251.553" y1="203" x2="-293.152" y2="15.3939" gradientUnits="userSpaceOnUse">
<stop stop-color="#BCD9F4"/>
<stop offset="1" stop-color="#2294FF"/>
</linearGradient>
</defs>
</svg>
