<svg width="26" height="22" viewBox="0 0 26 22" fill="none" xmlns="http://www.w3.org/2000/svg">
<path d="M4.83326 21.4998C4.5027 21.4998 4.22542 21.3878 4.00142 21.1638C3.7782 20.9406 3.66659 20.6637 3.66659 20.3332V10.5623L2.49992 11.4665C2.2277 11.6609 1.93604 11.7387 1.62492 11.6998C1.31381 11.6609 1.06104 11.5054 0.866591 11.2332C0.672146 10.9609 0.594368 10.6693 0.633257 10.3582C0.672146 10.0471 0.81798 9.79428 1.07076 9.59984L3.66659 7.6165V5.1665C3.66659 4.83595 3.7782 4.55867 4.00142 4.33467C4.22542 4.11145 4.5027 3.99984 4.83326 3.99984C5.16381 3.99984 5.44109 4.11145 5.66509 4.33467C5.88831 4.55867 5.99992 4.83595 5.99992 5.1665V5.83734L12.2999 1.054C12.3971 0.976226 12.5041 0.912837 12.6208 0.863837C12.7374 0.815615 12.8638 0.791504 12.9999 0.791504C13.136 0.791504 13.2624 0.815615 13.3791 0.863837C13.4958 0.912837 13.6027 0.976226 13.6999 1.054L24.9291 9.59984C25.1819 9.79428 25.3277 10.0471 25.3666 10.3582C25.4055 10.6693 25.3277 10.9609 25.1333 11.2332C24.9388 11.4859 24.686 11.6318 24.3749 11.6707C24.0638 11.7096 23.7819 11.6318 23.5291 11.4373L22.3333 10.5623V20.3332C22.3333 20.6637 22.2213 20.9406 21.9973 21.1638C21.774 21.3878 21.4971 21.4998 21.1666 21.4998H4.83326ZM5.99992 19.1665H11.8333V15.6665C11.8333 15.3359 11.9453 15.0587 12.1693 14.8347C12.3925 14.6114 12.6694 14.4998 12.9999 14.4998C13.3305 14.4998 13.6078 14.6114 13.8318 14.8347C14.055 15.0587 14.1666 15.3359 14.1666 15.6665V19.1665H19.9999V8.78317L12.9999 3.44567L5.99992 8.78317V19.1665Z" fill="#AEAEAE"/>
</svg>
