<svg width="24" height="24" viewBox="0 0 24 24" fill="none" xmlns="http://www.w3.org/2000/svg">
<mask id="mask0_562_9392" style="mask-type:alpha" maskUnits="userSpaceOnUse" x="0" y="0" width="24" height="24">
<rect width="24" height="24" fill="#D9D9D9"/>
</mask>
<g mask="url(#mask0_562_9392)">
<path d="M7.3 20.5C6.8 20.5 6.375 20.325 6.025 19.975C5.675 19.625 5.5 19.2 5.5 18.7V6H5.25C5.03333 6 4.85433 5.929 4.713 5.787C4.571 5.64567 4.5 5.46667 4.5 5.25C4.5 5.03333 4.571 4.85433 4.713 4.713C4.85433 4.571 5.03333 4.5 5.25 4.5H9C9 4.25 9.08733 4.04167 9.262 3.875C9.43733 3.70833 9.65 3.625 9.9 3.625H14.1C14.35 3.625 14.5627 3.70833 14.738 3.875C14.9127 4.04167 15 4.25 15 4.5H18.75C18.9667 4.5 19.146 4.571 19.288 4.713C19.4293 4.85433 19.5 5.03333 19.5 5.25C19.5 5.46667 19.4293 5.64567 19.288 5.787C19.146 5.929 18.9667 6 18.75 6H18.5V18.7C18.5 19.2 18.325 19.625 17.975 19.975C17.625 20.325 17.2 20.5 16.7 20.5H7.3ZM7 6V18.7C7 18.7833 7.02933 18.8543 7.088 18.913C7.146 18.971 7.21667 19 7.3 19H16.7C16.7833 19 16.8543 18.971 16.913 18.913C16.971 18.8543 17 18.7833 17 18.7V6H7ZM9.4 16.25C9.4 16.4667 9.471 16.646 9.613 16.788C9.75433 16.9293 9.93333 17 10.15 17C10.3667 17 10.546 16.9293 10.688 16.788C10.8293 16.646 10.9 16.4667 10.9 16.25V8.75C10.9 8.53333 10.8293 8.354 10.688 8.212C10.546 8.07067 10.3667 8 10.15 8C9.93333 8 9.75433 8.07067 9.613 8.212C9.471 8.354 9.4 8.53333 9.4 8.75V16.25ZM13.1 16.25C13.1 16.4667 13.1707 16.646 13.312 16.788C13.454 16.9293 13.6333 17 13.85 17C14.0667 17 14.246 16.9293 14.388 16.788C14.5293 16.646 14.6 16.4667 14.6 16.25V8.75C14.6 8.53333 14.5293 8.354 14.388 8.212C14.246 8.07067 14.0667 8 13.85 8C13.6333 8 13.454 8.07067 13.312 8.212C13.1707 8.354 13.1 8.53333 13.1 8.75V16.25ZM7 6V18.7C7 18.7833 7.02933 18.8543 7.088 18.913C7.146 18.971 7.21667 19 7.3 19H7V6Z" fill="#1C1B1F"/>
</g>
</svg>
