<svg width="13" height="13" viewBox="0 0 13 13" fill="none" xmlns="http://www.w3.org/2000/svg">
<path d="M1.33333 11.1663H2.26667L8.01667 5.41634L7.08333 4.48301L1.33333 10.233V11.1663ZM10.8667 4.44967L8.03333 1.64967L8.96667 0.716341C9.22222 0.460786 9.53622 0.333008 9.90867 0.333008C10.2807 0.333008 10.5944 0.460786 10.85 0.716341L11.7833 1.64967C12.0389 1.90523 12.1722 2.21367 12.1833 2.57501C12.1944 2.9359 12.0722 3.24412 11.8167 3.49967L10.8667 4.44967ZM0.666667 12.4997C0.477778 12.4997 0.319556 12.4357 0.192 12.3077C0.0640001 12.1801 0 12.0219 0 11.833V9.94967C0 9.86078 0.0166667 9.77479 0.05 9.69167C0.0833334 9.60812 0.133333 9.53301 0.2 9.46634L7.06667 2.59967L9.9 5.43301L3.03333 12.2997C2.96667 12.3663 2.89178 12.4163 2.80867 12.4497C2.72511 12.483 2.63889 12.4997 2.55 12.4997H0.666667Z" fill="#2294FF"/>
</svg>
