<svg width="16" height="17" viewBox="0 0 16 17" fill="none" xmlns="http://www.w3.org/2000/svg">
<mask id="mask0_486_10017" style="mask-type:alpha" maskUnits="userSpaceOnUse" x="0" y="0" width="16" height="17">
<rect y="0.5" width="16" height="16" fill="#D9D9D9"/>
</mask>
<g mask="url(#mask0_486_10017)">
<path d="M3.33333 13.1663H4.26667L10.0167 7.41634L9.08333 6.48301L3.33333 12.233V13.1663ZM12.8667 6.44967L10.0333 3.64967L10.9667 2.71634C11.2222 2.46079 11.5362 2.33301 11.9087 2.33301C12.2807 2.33301 12.5944 2.46079 12.85 2.71634L13.7833 3.64967C14.0389 3.90523 14.1722 4.21367 14.1833 4.57501C14.1944 4.9359 14.0722 5.24412 13.8167 5.49967L12.8667 6.44967ZM2.66667 14.4997C2.47778 14.4997 2.31956 14.4357 2.192 14.3077C2.064 14.1801 2 14.0219 2 13.833V11.9497C2 11.8608 2.01667 11.7748 2.05 11.6917C2.08333 11.6081 2.13333 11.533 2.2 11.4663L9.06667 4.59967L11.9 7.43301L5.03333 14.2997C4.96667 14.3663 4.89178 14.4163 4.80867 14.4497C4.72511 14.483 4.63889 14.4997 4.55 14.4997H2.66667Z" fill="#2294FF"/>
</g>
</svg>
