<svg width="32" height="33" viewBox="0 0 32 33" fill="none" xmlns="http://www.w3.org/2000/svg">
<path d="M30.1605 17.1157L29.9088 16.9418C29.4167 16.4578 28.8324 16.0966 28.1971 15.8837C27.5618 15.6707 26.891 15.6113 26.2321 15.7095C25.0851 15.8119 23.9799 16.2225 23.0168 16.904V16.8435C23.0258 16.3682 23.0585 15.8937 23.1146 15.4221C23.1566 14.9307 23.2055 14.4393 23.2055 13.9705C23.2203 13.5217 23.1514 13.0743 23.0028 12.655C22.985 12.6054 22.953 12.5632 22.9115 12.5347C22.87 12.5061 22.8212 12.4926 22.7721 12.4962C22.2476 12.5496 21.741 12.7305 21.2902 13.0255L21.1784 13.2825C21.1765 14.002 21.1039 14.7193 20.9617 15.4221C20.9462 15.4837 20.9276 15.5443 20.9058 15.6036C20.7312 17.4132 20.7312 19.2376 20.9058 21.0472C20.9058 21.1984 21.2064 21.4328 21.4161 21.5235C21.8963 21.5362 22.3734 21.4356 22.814 21.2286H22.9748C23.0069 21.2241 23.0377 21.2125 23.0655 21.1947C23.0933 21.1768 23.1174 21.153 23.1364 21.1246C23.1553 21.0963 23.1688 21.0641 23.1759 21.03C23.1829 20.9959 23.1835 20.9606 23.1775 20.9262V20.4802C23.3688 19.7041 23.7493 18.9978 24.2793 18.4352C24.8093 17.8726 25.4692 17.4743 26.1902 17.282C26.5505 17.1977 26.9251 17.2175 27.276 17.3396C27.627 17.4618 27.942 17.6818 28.1893 17.9776C28.3494 18.7293 28.2315 19.5188 27.8608 20.1777C27.3387 21.1023 26.5279 21.7942 25.5751 22.1283C24.4554 22.5598 23.2662 22.7399 22.0801 22.6576C22.0172 22.6198 20.787 21.7201 20.787 21.7201C19.6498 20.7807 18.416 19.9866 17.1103 19.3536C16.8102 19.1725 16.529 18.9571 16.2715 18.711L16.1526 18.5976C15.4537 17.9776 14.0906 17.0099 13.0072 16.2311L12.427 15.8002V15.6717C12.427 15.6339 13.126 15.1953 13.126 15.1953C13.6576 14.9114 14.1552 14.5585 14.6079 14.1444L14.7407 14.0613L17.1033 12.6096C19.368 11.2638 21.9403 9.73663 23.2894 8.22452L23.3523 7.99015V7.786C23.4324 7.50781 23.4324 7.20987 23.3523 6.93168C23.3434 6.88311 23.3214 6.83846 23.2891 6.80346C23.2567 6.76846 23.2154 6.74466 23.1705 6.73509C22.1151 6.62169 20.759 7.30214 19.5218 8.55719C19.293 8.78503 19.0367 8.97831 18.7599 9.13177L18.5712 9.23763C17.1732 10.0769 14.1326 12.1409 12.5249 13.2598C12.6768 10.9916 12.9499 8.73483 13.3427 6.50072L13.3007 6.2361L13.133 5.90343L13.0072 5.66149C12.7651 5.53381 12.4862 5.51481 12.2313 5.60858L11.9098 5.7371L11.4834 5.90343C11.4427 5.91278 11.4049 5.93285 11.3732 5.96187C11.3415 5.9909 11.3169 6.02797 11.3016 6.06976C10.4309 8.62605 9.9059 11.3049 9.74287 14.0234C8.5644 13.2236 7.34634 12.4942 6.09413 11.8385V11.8385H6.01025C5.70413 11.7559 5.41493 11.6123 5.15748 11.4151L4.57731 11.0068L3.6826 10.3868L3.44495 10.3264C2.92369 10.5046 2.46045 10.8404 2.10987 11.2941C2.08319 11.3421 2.06872 11.3969 2.06793 11.4529C2.07448 11.5299 2.08853 11.6059 2.10987 11.6797L2.15181 11.8763L2.19375 11.9972C2.98649 12.7163 3.85734 13.3282 4.78701 13.8193L6.01025 14.5224L7.89054 15.6263L8.21208 15.906L8.42877 16.0421H8.4707C7.96743 16.3975 5.05962 18.5069 5.05962 18.5069L3.22826 19.8677C2.89262 20.0667 2.54728 20.2459 2.19375 20.4045C1.85376 20.5333 1.56664 20.7876 1.38291 21.1228L1.33398 21.2362L1.38291 21.3118L1.52272 21.4252L1.70445 21.5538L1.90716 21.6974L2.0889 21.7352C2.67076 21.6499 3.23268 21.4473 3.74551 21.1379C4.54936 20.7523 6.73022 19.3309 7.66687 18.7261L8.06529 18.4615C8.25489 18.4338 8.43128 18.341 8.56857 18.1969C8.83227 17.986 9.113 17.8013 9.40736 17.6449C9.40736 17.6449 9.56113 17.5542 9.69394 17.4786V17.5996C9.67763 19.9652 9.85069 22.3278 10.2112 24.6611V24.6611V24.7367C10.4271 25.255 10.5889 25.7976 10.6935 26.3547L11.043 27.64L11.1478 27.761C11.5191 28.0015 11.9453 28.1246 12.3781 28.1163H12.4829L12.5458 27.9575C12.5804 27.7632 12.5968 27.5657 12.5948 27.3678C12.5948 27.1334 12.5948 26.8764 12.5948 26.5588V26.0976C12.462 23.9429 12.3361 20.8053 12.3361 18.7639V18.5976L14.1535 19.8375C16.6699 21.5991 20.4445 24.2756 22.7721 24.9787C22.8299 24.9973 22.8912 24.9994 22.95 24.9849C23.0088 24.9703 23.0631 24.9395 23.1076 24.8955L23.4641 24.6536H23.527C23.6056 24.5847 23.6681 24.4968 23.7094 24.397C23.7507 24.2972 23.7696 24.1882 23.7647 24.079C25.7009 23.9807 28.406 23.1717 29.8529 21.206C30.3698 20.4935 30.6548 19.6165 30.6637 18.711C30.6947 18.159 30.524 17.616 30.1884 17.1989" fill="#FCAF17"/>
</svg>
