<svg width="80" height="80" viewBox="0 0 80 80" fill="none" xmlns="http://www.w3.org/2000/svg">
<rect width="80" height="80" rx="12" fill="#FFE600"/>
<path d="M34.954 38.9893L27.1892 22.9893L25.5294 22.3477L23.6471 23.2889C23.6471 23.2889 23.1548 28.8567 23.4118 33.8129C23.5264 36.0229 23.4245 34.5188 23.6598 38.9893C23.7138 40.0153 23.7477 41.7789 23.4245 42.7541C22.9189 44.2798 22.1286 44.902 21.3069 46.2835C18.4871 51.0246 14.2481 58.5188 14.2481 58.5188C14.2481 58.5188 11.8428 62.6683 10.954 65.5776C10.4589 67.198 10.114 68.1216 10.0128 69.8129C9.90788 71.5653 10.4834 74.2835 10.4834 74.2835L11.0609 77.5776H19.6598L19.4245 62.5188L22.2481 55.9305L38.7187 50.0482V41.8129L34.954 38.9893Z" fill="#D03032"/>
<path d="M54.2481 22.0482L58.7059 21.52C58.7059 21.52 58.4386 25.0257 58.2481 27.2246C58.0641 29.348 57.659 30.5083 57.5422 32.6364C57.4566 34.1962 57.3801 35.0827 57.5422 36.6364C57.688 38.0344 58.2481 40.1658 58.2481 40.1658C58.2481 40.1658 58.8251 42.5116 59.4245 43.9305C60.5849 46.6772 62.0352 47.7831 63.6598 50.2835C64.9654 52.2927 65.9221 53.4263 67.1892 55.4599C67.931 56.6504 67.8951 56.6364 69.0716 58.2835C69.7472 59.2293 70.2481 60.6364 70.2481 60.6364C70.2481 60.6364 70.4834 61.8352 70.4834 62.754C70.4834 63.6729 70.4834 64.4011 69.7775 67.2246C69.0716 70.0482 68.963 69.9156 68.8363 71.6952C68.7186 73.3476 68.7674 74.3022 69.0716 75.9305C69.264 76.9604 69.7775 78.5188 69.7775 78.5188H64.1304L64.601 64.4011L60.1304 57.8129L50.4834 52.1658L45.7775 48.1658V41.3423L51.4245 31.9305L54.2481 22.0482Z" fill="#D03032"/>
<path d="M54.4708 23.9303C54.2959 26.1167 53.991 28.2706 53.4956 30.2833C52.6582 33.6855 51.2766 36.6841 49.0591 38.7539C48.302 39.4605 47.6176 40.1247 46.9414 40.7209C45.3659 42.1101 43.8345 43.1305 41.5296 43.4598C40.4345 43.1677 39.4251 42.785 38.4708 42.3188C36.3498 41.2824 34.5011 39.8331 32.5885 38.048C30.7215 36.3055 29.5129 34.1679 28.6841 31.6353C27.9461 29.3802 27.5092 26.8119 27.1767 23.9303C27.1767 23.6148 27.1821 23.301 27.1927 22.9892C27.5398 12.7705 33.5099 4.63623 40.8238 4.63623C48.025 4.63623 53.9235 12.5219 54.4348 22.5186C54.4587 22.9848 54.4708 23.4556 54.4708 23.9303Z" fill="#FFDFC1"/>
<path d="M27.1767 23.9303C27.1767 23.6148 27.1821 23.301 27.1927 22.9892C27.1927 22.9892 26.4998 22.7249 26.2355 22.9892C25.2943 23.9303 25.3554 24.5055 25.2944 24.8715C25.1966 25.4578 25.1254 26.9831 25.2944 28.1656C25.4425 29.2028 25.6642 29.7456 26.0002 30.7539C26.2355 31.4598 26.9414 31.9303 26.9414 31.9303C26.9414 31.9303 27.6473 32.4009 28.3532 32.1656C28.5848 32.0884 28.6841 31.6353 28.6841 31.6353C27.9461 29.3802 27.5092 26.8119 27.1767 23.9303Z" fill="#FFDFC1"/>
<path d="M54.4348 22.5186C54.4587 22.9848 54.4708 23.4556 54.4708 23.9303C54.2959 26.1167 53.991 28.2706 53.4956 30.2833C53.4956 30.2833 54.0151 30.7002 54.4708 30.7539C55.0149 30.818 55.8826 30.2833 55.8826 30.2833C55.8826 30.2833 57.1588 29.2081 57.5296 28.1656C57.9312 27.0369 57.6202 25.7078 57.2943 24.6362L57.2839 24.602C56.8812 23.2771 56.5784 22.2813 55.412 22.048C54.9967 21.9649 54.4348 22.5186 54.4348 22.5186Z" fill="#FFDFC1"/>
<path d="M41.5296 43.4598C40.4345 43.1677 39.4251 42.785 38.4708 42.3188C38.4708 42.3188 39.1244 45.0143 38.4708 46.5186C38.2573 47.01 38.0702 47.2547 37.7649 47.6951C35.7257 50.6362 33.5296 51.2245 29.7649 52.4009C26.3444 53.4698 23.7831 53.1166 21.2943 55.6951C20.4264 56.5943 19.9621 57.1611 19.412 58.2833C18.6267 59.8853 18.533 60.9708 18.4708 62.7539C18.4159 64.3258 18.9414 66.7539 18.9414 66.7539L19.412 71.6951L19.8826 77.5774L64.5885 78.5186C64.5885 78.5186 65.5546 74.68 65.7649 72.1656C65.9411 70.0596 66.0326 68.869 66.0002 66.7539C65.9763 65.1893 65.7649 62.1123 65.7649 62.1123C65.7649 62.1123 65.55 61.0834 65.2943 60.4652C64.9549 59.6444 64.63 59.1614 64.1179 58.5186C63.4189 57.6414 61.7649 56.8715 61.7649 56.8715L54.9414 53.3421C54.9414 53.3421 50.4065 51.2513 48.1179 49.1068C47.7386 48.7514 47.6552 48.625 47.412 48.1656C47.1505 47.6717 47.0158 47.3078 46.9414 46.7539C46.6277 44.4188 46.9414 40.7209 46.9414 40.7209C45.3659 42.1101 43.8345 43.1305 41.5296 43.4598Z" fill="#FFDFC1"/>
<path d="M49.0595 34.1122C49.0595 34.1122 48.6427 32.5985 48.1183 31.7592C47.0763 30.0915 45.647 29.9375 44.1183 28.7004C42.9019 27.716 42.0637 27.3122 41.0595 26.1122C40.4216 25.3499 40.1671 24.8419 39.6477 23.9945C38.8314 22.6627 38.2841 21.9386 37.7654 20.4651C37.3285 19.2241 37.0595 17.171 37.0595 17.171V9.40629C37.0595 9.40629 37.2948 9.64159 37.0595 10.1122C36.8242 10.5828 36.8242 10.8181 36.3536 11.7592C35.7947 12.8771 35.4194 13.5561 34.7066 14.5828C33.6454 16.1111 31.883 18.3475 31.883 18.3475L30.0007 20.4651L27.2934 23.1176C27.2934 23.1176 26.8228 22.8823 26.5875 22.8823C26.3522 22.8823 23.6471 23.2889 23.6471 23.2889C23.6471 23.2889 23.6152 18.5114 23.883 16.2298C24.091 14.4578 24.8242 11.7592 24.8242 11.7592C24.8242 11.7592 25.809 8.34212 27.1771 6.64705C28.1982 5.38206 29.012 4.71105 30.4713 3.99452C31.8951 3.29538 33.5301 3.05335 34.4713 3.05335C35.4124 3.05335 38.236 3.28864 38.236 3.28864C38.236 3.28864 39.237 2.06277 40.1183 1.64158C41.5277 0.968008 42.5727 0.887341 44.1183 1.11344C45.664 1.33954 47.2402 1.85085 49.0595 2.7605C50.9418 3.70168 52.0893 5.08447 53.0595 6.05462C53.7654 6.7605 55.883 10.7605 55.883 10.7605C55.883 10.7605 57.1606 14.0424 57.7654 16.2298C58.337 18.2974 58.7065 21.584 58.7065 21.584L54.5875 22.1765L54.236 26.8181C54.236 26.8181 53.7383 25.3498 53.2948 24.4651C52.7578 23.3941 52.4041 22.806 51.6477 21.8769C50.7034 20.7168 48.8242 19.2886 48.8242 19.2886C48.8242 19.2886 46.7884 17.5314 45.2948 16.7004C44.3246 16.1606 42.7066 15.5239 42.7066 15.5239C42.7066 15.5239 41.8197 14.9872 41.2948 14.5828C40.0071 13.5905 38.4713 11.5239 38.4713 11.5239C38.4713 11.5239 38.3561 15.4191 38.7066 17.8769C38.7855 18.4302 38.7066 17.8769 38.9418 19.2886C39.1148 20.3266 39.1912 20.5777 39.6477 21.4063C40.2034 22.4147 40.8414 23.0719 41.5301 23.9945C42.2297 24.9317 43.6477 26.1122 43.6477 26.1122C43.6477 26.1122 44.9384 27.4028 45.7654 28.2298C46.4086 28.873 47.4124 29.8769 47.4124 29.8769C47.4124 29.8769 48.2518 30.6551 48.5889 31.2886C49.114 32.2755 49.0595 34.1122 49.0595 34.1122Z" fill="#D03032"/>
<path d="M35.1752 57.4062C33.6126 55.488 32.8223 51.5239 32.8223 51.5239L24.8223 53.4062C24.8223 53.4062 26.2364 54.7426 26.9399 55.7592C27.9699 57.2475 28.5481 58.2577 29.0576 59.9945C29.5807 61.7776 29.6825 62.8484 29.5281 64.7003C29.3929 66.323 28.8532 67.1512 28.3517 68.7003C27.6892 70.7468 26.4693 73.8768 26.4693 73.8768L28.3517 76.9356L47.6458 79.2886L58.9399 72.7003C58.9399 72.7003 57.5279 70.3209 56.8223 68.7003C56.1609 67.1816 55.7047 66.3305 55.4105 64.7003C55.0841 62.8918 55.1344 61.8114 55.4105 59.9945C55.7466 57.7822 57.2929 54.5827 57.2929 54.5827L51.4105 51.2886C51.4105 51.2886 50.4693 55.2886 49.2929 57.4062C48.3142 59.1679 47.4085 60.2107 45.5281 60.9356C43.7277 61.6298 42.2216 61.8824 40.3517 61.4062C37.9313 60.7899 36.792 59.3911 35.2235 57.4655L35.1752 57.4062Z" fill="#5C5778"/>
</svg>
