<svg width="24" height="24" viewBox="0 0 24 24" fill="none" xmlns="http://www.w3.org/2000/svg">
<mask id="mask0_421_8735" style="mask-type:alpha" maskUnits="userSpaceOnUse" x="0" y="0" width="24" height="24">
<rect width="24" height="24" fill="#D9D9D9"/>
</mask>
<g mask="url(#mask0_421_8735)">
<path d="M12 22C10.75 22 9.57936 21.7627 8.48802 21.288C7.39602 20.8127 6.44602 20.1707 5.63802 19.362C4.82936 18.554 4.18736 17.604 3.71202 16.512C3.23736 15.4207 3.00002 14.25 3.00002 13C3.00002 11.75 3.23736 10.579 3.71202 9.487C4.18736 8.39567 4.82936 7.44567 5.63802 6.637C6.44602 5.829 7.39602 5.18767 8.48802 4.713C9.57936 4.23767 10.75 4 12 4C13.25 4 14.421 4.23767 15.513 4.713C16.6044 5.18767 17.5544 5.829 18.363 6.637C19.171 7.44567 19.8127 8.39567 20.288 9.487C20.7627 10.579 21 11.75 21 13C21 14.25 20.7627 15.4207 20.288 16.512C19.8127 17.604 19.171 18.554 18.363 19.362C17.5544 20.1707 16.6044 20.8127 15.513 21.288C14.421 21.7627 13.25 22 12 22ZM11 9V12.975C11 13.1083 11.025 13.2373 11.075 13.362C11.125 13.4873 11.2 13.6 11.3 13.7L14.125 16.525C14.3084 16.7083 14.5334 16.8 14.8 16.8C15.0667 16.8 15.3 16.7 15.5 16.5C15.6834 16.3167 15.775 16.0833 15.775 15.8C15.775 15.5167 15.6834 15.2833 15.5 15.1L13 12.6V8.975C13 8.69167 12.9044 8.45833 12.713 8.275C12.521 8.09167 12.2834 8 12 8C11.7167 8 11.4794 8.09567 11.288 8.287C11.096 8.479 11 8.71667 11 9ZM3.42502 7.325C3.24169 7.50833 3.01669 7.6 2.75002 7.6C2.48336 7.6 2.25002 7.5 2.05002 7.3C1.86669 7.11667 1.77502 6.88333 1.77502 6.6C1.77502 6.31667 1.86669 6.08333 2.05002 5.9L4.92502 3.025C5.10836 2.84167 5.33336 2.75 5.60002 2.75C5.86669 2.75 6.10002 2.85 6.30002 3.05C6.48336 3.23333 6.57502 3.46667 6.57502 3.75C6.57502 4.03333 6.48336 4.26667 6.30002 4.45L3.42502 7.325ZM20.55 7.3L17.675 4.425C17.4917 4.24167 17.4 4.01667 17.4 3.75C17.4 3.48333 17.5 3.25 17.7 3.05C17.8834 2.86667 18.1167 2.775 18.4 2.775C18.6834 2.775 18.9167 2.86667 19.1 3.05L21.975 5.925C22.1584 6.10833 22.25 6.33333 22.25 6.6C22.25 6.86667 22.15 7.1 21.95 7.3C21.7667 7.48333 21.5334 7.575 21.25 7.575C20.9667 7.575 20.7334 7.48333 20.55 7.3ZM12 20C13.95 20 15.604 19.3207 16.962 17.962C18.3207 16.604 19 14.95 19 13C19 11.05 18.3207 9.39567 16.962 8.037C15.604 6.679 13.95 6 12 6C10.05 6 8.39602 6.679 7.03802 8.037C5.67936 9.39567 5.00002 11.05 5.00002 13C5.00002 14.95 5.67936 16.604 7.03802 17.962C8.39602 19.3207 10.05 20 12 20Z" fill="#FFE600"/>
</g>
</svg>
