<svg width="24" height="24" viewBox="0 0 24 24" fill="none" xmlns="http://www.w3.org/2000/svg">
<mask id="mask0_562_9256" style="mask-type:alpha" maskUnits="userSpaceOnUse" x="0" y="0" width="24" height="24">
<rect width="24" height="24" fill="#D9D9D9"/>
</mask>
<g mask="url(#mask0_562_9256)">
<path d="M10 14C9.45 14 8.97933 13.804 8.588 13.412C8.196 13.0207 8 12.55 8 12C8 11.45 8.196 10.979 8.588 10.587C8.97933 10.1957 9.45 10 10 10C10.55 10 11.0207 10.1957 11.412 10.587C11.804 10.979 12 11.45 12 12C12 12.55 11.804 13.0207 11.412 13.412C11.0207 13.804 10.55 14 10 14ZM16 14C15.45 14 14.9793 13.804 14.588 13.412C14.196 13.0207 14 12.55 14 12C14 11.45 14.196 10.979 14.588 10.587C14.9793 10.1957 15.45 10 16 10C16.55 10 17.021 10.1957 17.413 10.587C17.8043 10.979 18 11.45 18 12C18 12.55 17.8043 13.0207 17.413 13.412C17.021 13.804 16.55 14 16 14ZM22 14C21.45 14 20.979 13.804 20.587 13.412C20.1957 13.0207 20 12.55 20 12C20 11.45 20.1957 10.979 20.587 10.587C20.979 10.1957 21.45 10 22 10C22.55 10 23.021 10.1957 23.413 10.587C23.8043 10.979 24 11.45 24 12C24 12.55 23.8043 13.0207 23.413 13.412C23.021 13.804 22.55 14 22 14Z" fill="#1C1B1F"/>
</g>
</svg>
