<svg width="33" height="33" viewBox="0 0 33 33" fill="none" xmlns="http://www.w3.org/2000/svg">
<g clip-path="url(#clip0_94_12572)">
<path d="M16.0134 2.04434C13.154 2.17401 10.3973 3.14885 8.092 4.84551C5.78671 6.54217 4.0364 8.88444 3.06251 11.576C2.08863 14.2676 1.9349 17.1875 2.62078 19.9665C3.30667 22.7454 4.80137 25.2585 6.91577 27.1879C9.03017 29.1172 11.6693 30.3761 14.4993 30.8053C17.3292 31.2345 20.2229 30.8147 22.8143 29.5991C25.4057 28.3834 27.5783 26.4265 29.0573 23.9759C30.5363 21.5252 31.2553 18.691 31.1232 15.8317C31.0383 13.933 30.58 12.0697 29.7745 10.3483C28.969 8.62684 27.8321 7.08105 26.4289 5.79927C25.0256 4.5175 23.3834 3.52488 21.5962 2.87817C19.8091 2.23146 17.912 1.94334 16.0134 2.03028V2.04434Z" fill="url(#paint0_radial_94_12572)"/>
<path d="M16.0063 1.84787C13.1082 1.97888 10.3141 2.96639 7.97733 4.68549C5.64055 6.40459 3.86607 8.77806 2.87831 11.5057C1.89055 14.2334 1.73388 17.1927 2.42812 20.0094C3.12236 22.8262 4.63631 25.3737 6.77851 27.33C8.92072 29.2862 11.5949 30.5632 14.4629 30.9995C17.3309 31.4357 20.2639 31.0117 22.8909 29.7809C25.5179 28.5502 27.7209 26.568 29.2213 24.0851C30.7217 21.6023 31.4521 18.7302 31.3201 15.8322C31.1431 11.9467 29.4307 8.29037 26.5592 5.66682C23.6876 3.04327 19.892 1.66712 16.0063 1.84083V1.84787ZM17.7226 16.0784C20.3324 18.4842 21.7604 19.7785 21.7604 19.7785C26.3538 23.6052 24.7852 27.1013 23.0266 28.3182C21.6132 29.2608 19.956 29.7717 18.2573 29.7884C18.1985 29.7973 18.1385 29.7943 18.0809 29.7795C18.0233 29.7647 17.9692 29.7385 17.922 29.7024C17.8747 29.6663 17.8352 29.621 17.8058 29.5694C17.7764 29.5177 17.7577 29.4606 17.7508 29.4015C17.7508 29.0709 18.2221 28.9865 18.2221 28.9865C22.5623 28.1353 21.2891 25.2864 19.7556 23.8373C19.1155 23.2253 13.0729 18.0129 13.0729 18.0129C7.31882 13.0888 7.77605 9.18471 7.77605 9.18471C8.05039 4.42244 12.2218 3.24067 15.3802 3.51501C15.746 3.55018 15.95 3.7753 15.8867 4.07777C15.8234 4.38025 15.331 4.44355 15.331 4.44355C14.4288 4.42012 13.5363 4.63356 12.7423 5.06258C10.2029 6.77194 10.9556 9.68415 14.3462 12.92C14.7682 13.328 15.2255 13.7571 15.6897 14.1932C15.6897 14.1932 16.372 14.7911 17.7226 16.0784ZM15.753 28.3886C15.753 28.8599 14.6486 29.0568 13.3613 28.9302C11.4365 28.7933 9.60331 28.0551 8.12073 26.8199C6.69401 25.5353 5.66204 23.8714 5.1452 22.0224C4.66686 20.3623 4.44177 18.4279 5.25775 18.5756C5.49692 18.6248 5.91898 19.6941 6.36918 20.4679C6.67045 21.0477 7.08414 21.5619 7.58613 21.9802C7.74792 22.0998 8.28955 20.8688 9.10554 20.1724C9.5698 19.7855 10.0833 19.6519 10.1677 20.8055C10.2662 22.2124 10.013 23.9006 10.421 23.9006C10.829 23.9006 11.6801 23.6052 13.5864 23.4434C14.2899 23.3871 14.7119 23.5208 14.0296 24.4845C13.5309 25.2438 12.8938 25.9024 12.1514 26.426C13.7764 27.9313 15.7179 27.7484 15.753 28.3886ZM17.0333 13.6164C16.9034 13.0129 16.8843 12.3907 16.977 11.7804C17.1693 10.5324 17.5487 9.32063 18.1025 8.18585C18.8059 6.5187 17.1599 5.54092 17.3991 4.92893C17.7649 4.09887 18.9185 5.15402 20.2128 5.2314C21.3172 5.29471 21.9855 5.23141 22.8437 5.35099C23.9833 5.50575 25.3479 5.88561 25.9529 6.60311C26.5578 7.32062 25.6645 8.0522 24.6374 7.55276C23.8918 7.18697 22.9492 7.41207 23.4979 8.19289C23.9107 8.71091 24.5083 9.04877 25.165 9.13549C27.0291 9.6279 27.0713 11.4146 25.8052 12.3432C24.3631 13.3913 22.914 12.9622 22.3302 10.8941C22.0347 9.86003 21.3032 9.33947 20.5575 9.62788C19.8119 9.91629 20.255 11.281 20.8248 12.5331C21.9503 15.4172 19.1436 15.3468 18.82 15.2835C18.3968 15.1964 18.0058 14.994 17.6905 14.6985C17.3751 14.403 17.1477 14.0261 17.0333 13.6093V13.6164Z" fill="url(#paint1_radial_94_12572)"/>
</g>
<defs>
<radialGradient id="paint0_radial_94_12572" cx="0" cy="0" r="1" gradientUnits="userSpaceOnUse" gradientTransform="translate(18.9266 11.7628) scale(13.7479 13.7479)">
<stop stop-color="white"/>
<stop offset="1" stop-color="#CF9C51"/>
</radialGradient>
<radialGradient id="paint1_radial_94_12572" cx="0" cy="0" r="1" gradientUnits="userSpaceOnUse" gradientTransform="translate(15.5231 7.5775) scale(30.7954 30.7954)">
<stop stop-color="#00C0F3"/>
<stop offset="0.22" stop-color="#0097D6"/>
<stop offset="0.28" stop-color="#0086CA"/>
<stop offset="0.37" stop-color="#0074BD"/>
<stop offset="0.46" stop-color="#0069B5"/>
<stop offset="0.57" stop-color="#0066B3"/>
</radialGradient>
<clipPath id="clip0_94_12572">
<rect width="29.3333" height="29.3333" fill="white" transform="translate(2 1.8335)"/>
</clipPath>
</defs>
</svg>
