<svg width="33" height="33" viewBox="0 0 33 33" fill="none" xmlns="http://www.w3.org/2000/svg">
<g clip-path="url(#clip0_94_12588)">
<path d="M24.6703 20.8524H24.646L24.6075 20.7977H24.5873L24.4901 20.6843L24.4293 20.6236V20.6074L24.3888 20.5709V20.5507H24.3767L24.3564 20.5203H24.3342L24.324 20.5001L24.2714 20.4818V20.4717L24.2309 20.4555V20.4454L24.1884 20.4272L24.1783 20.4069L24.1175 20.3745L24.0831 20.3624L24.073 20.3381L24.0345 20.3219L24.0203 20.3016H24.0021L23.99 20.2814L23.9596 20.2652L23.9393 20.2348H23.915V20.2146H23.8887L23.8482 20.1579H23.83L23.7449 20.0546H23.7267V20.0445L23.6943 20.0202V19.9493L23.6113 19.8643V19.846L23.5911 19.8319L23.5566 19.7853V19.7671L23.6113 19.7084H23.6316L23.6538 19.682H23.6741L23.6862 19.6638H23.7166V19.6517H23.7369L23.749 19.6334H23.7652L23.7794 19.6172H23.7976L23.8077 19.599H23.8421L23.8705 19.5666H23.8928L23.9029 19.5484H23.9252L23.9859 19.4917H24.0203V19.4735L24.0851 19.4269L24.1256 19.4046L24.1378 19.3783L24.1681 19.3662V19.3439L24.2005 19.3317V19.3419H24.2208V19.3236H24.241V19.3054H24.2613L24.2734 19.2791L24.2856 19.2427H24.3038L24.318 19.2042H24.3483L24.3767 19.1698H24.399L24.4192 19.1434H24.4395L24.4516 19.1252H24.4698L24.5123 19.0847H24.5366L24.6075 19.0219H24.6278L24.6379 19.0057L24.6703 18.9916V18.9733L24.7128 18.9329H24.7331V18.9126L24.7553 18.8863L24.7938 18.866V18.8458L24.8262 18.8296V18.8134L24.8586 18.8012V18.779H24.8809V18.7344H24.9031V18.7041L24.9963 18.6433V18.6251L25.0793 18.6008V18.5826L25.1441 18.5643V18.5441L25.2372 18.5036V18.4854H25.2575L25.3344 18.3943H25.3526V18.374H25.3749V18.3558H25.3992L25.4397 18.3052V18.2768L25.4721 18.2626L25.4903 18.208H25.5146L25.5329 18.1432H25.5531V18.1067H25.5733V18.0683H25.5956L25.6057 18.0217L25.6179 17.9549H25.628V17.9366H25.6381V17.8982H25.6483V17.9245H25.6584V17.8759H25.6786V17.805H25.6989V17.718H25.7191V17.5499H25.7313V17.5094H25.7414L25.7171 17.3778V17.2097H25.6969V17.1146L25.6746 17.1004V17.0316L25.6543 17.0174V16.9688H25.6442V16.9506H25.6321V16.9121H25.6219V16.8817H25.6078V16.8655V16.825H25.5936V16.7744H25.5733H25.5916L25.6057 16.7947H25.6219L25.6462 16.8291H25.6685V16.8514H25.6827L25.7232 16.9081H25.7455L25.8305 17.0113L25.8953 17.0579L25.9257 17.1126H25.9459L25.956 17.1429L26.0087 17.1915V17.2118L26.0613 17.2583V17.2766L26.0836 17.2907V17.311L26.114 17.3333V17.3535L26.1342 17.3657V17.3859L26.1524 17.3981L26.1626 17.4284H26.1727L26.8146 18.1412L26.8348 18.1513V18.1715L26.8571 18.1857L26.8672 18.214H26.8773L27.0231 18.3841H27.0454L27.0656 18.4125H27.0859L27.1203 18.455H27.1385L27.1729 18.4995H27.1891L27.256 18.5785L27.3896 18.7182L27.4321 18.7749L27.6123 18.9592L27.6245 18.9794L27.665 18.9976L27.6751 19.0179L27.7156 19.0361L27.7277 19.0564L28.1327 19.4613H28.1529L28.1833 19.516H28.1934V19.5342L28.2157 19.5484L28.236 19.5626V19.5808L28.2562 19.597V19.6152L28.2866 19.6395L28.4546 19.8157H28.4729L28.485 19.8359H28.5053L28.5255 19.8663H28.5458L28.566 19.8967H28.5883L28.6207 19.9392H28.6409L28.7239 20.0424H28.7462L28.7766 20.0688V20.1518L28.8718 20.247L29.0115 20.3765V20.3867H29.0297V20.3988L29.0479 20.4089L29.0904 20.4292L29.1451 20.4656V20.4879L29.1775 20.5142H29.1977L29.2301 20.5365V20.5588L29.2605 20.581H29.2828L29.303 20.6053L29.3152 20.6276L29.4812 20.7896L29.7242 21.0346L29.7465 21.0589H29.7627L29.7768 21.0791L30.3397 21.5894L30.3721 21.6137L30.688 21.9579H30.7083L30.7508 22.0146H30.771L30.7811 22.0369L30.8439 22.0956L30.8864 22.1442L30.9391 22.209L30.9816 22.2657L31.012 22.3102L31.0322 22.3406L31.0666 22.4034L31.1051 22.458L31.1274 22.5026L31.1395 22.5228L31.1719 22.5876V22.616H31.1821V22.6544H31.1922V22.6828H31.2023V22.703H31.2124V22.7334H31.2246V22.7638V22.7942L31.2934 23.0817V23.1971H31.3035V23.4441V23.5089H31.2934V23.5555V23.602H31.2813V23.6385H31.2711V23.677H31.259V23.7073H31.2489V23.7742H31.2388V23.7924H31.2266V23.8207H31.2145V23.839V23.8673H31.2043L31.1841 23.922H31.1719V23.9402H31.1618V23.9625V23.9847H31.1497L31.1335 24.0374H31.1213V24.0637H31.099V24.1022H31.0768V24.1204L31.0464 24.1346V24.1548L31.016 24.167V24.2014H30.9472V24.2237L30.854 24.2783L30.771 24.3533H30.7528L30.7204 24.3836H30.6981L30.6799 24.41H30.6556L30.6374 24.4322H30.6171L30.607 24.4484H30.5766H30.5341L30.524 24.4646H30.4612L30.4511 24.4808L30.36 24.493V24.5031H30.3175H30.2851H30.2668H30.2324H30.2021H30.1717H30.1413H30.0988H30.0563H30.0077C30.0077 24.5031 29.6958 24.4626 29.5723 24.4322C29.4488 24.4019 29.1309 24.2824 29.1309 24.2824L29.0864 24.2682H29.0722V24.2581L29.0175 24.2399V24.2297L28.9791 24.2156V24.2034H28.9446L28.9021 24.1872V24.1751L28.8616 24.1569L28.8515 24.1366L28.7867 24.1062L28.487 23.9159H28.4445V23.9038H28.4141V23.8936H28.3817L28.3494 23.8794L27.8715 23.5494H27.8492L27.8067 23.4907H27.7844L27.4929 23.268V23.2558L27.4544 23.2376H27.42V23.2254L27.3592 23.193H27.337V23.1829L27.2944 23.1647L27.2823 23.1424L27.2215 23.112L27.2094 23.0918H27.1912V23.0797L27.1608 23.0675L27.1486 23.0432H27.1284L27.1041 23.0108H27.0879L27.0758 22.9906H27.0555L27.011 22.9339H26.9907L26.6465 22.6504V22.6403L26.5837 22.6079H26.5635V22.5978H26.5412L26.4805 22.5694L26.4703 22.5451L26.4278 22.5309L26.4157 22.5066L26.3752 22.4904L26.3549 22.456H26.3326L26.3225 22.4358H26.3002L26.278 22.4034C26.278 22.4034 25.9257 22.1219 25.788 21.9984C25.6503 21.8749 25.2291 21.4902 25.1805 21.4375L25.1441 21.4011V21.3808L25.0894 21.3323V21.3039L25.0692 21.2715L24.6703 20.8524Z" fill="#A3CF62"/>
<path d="M17.1458 18.5863V18.6045L17.2288 18.6612V18.6794L17.3159 18.7321V18.7523L17.3462 18.7604V18.7685L17.3564 18.7908L17.3887 18.8232L17.409 18.8293V18.8576L17.4333 18.8617L17.4556 18.9143L17.4657 18.9163V18.9346L17.4859 18.9508V18.9771L17.5062 18.9832V19.0014L17.5264 19.0054L17.5507 19.0581L17.571 19.0621V19.0803L17.5933 19.0864L17.6439 19.1735L17.6661 19.1755V19.1958L17.7512 19.2585L17.7532 19.2788L17.7735 19.2849V19.3031L17.8281 19.3314V19.3517L17.8484 19.3557V19.376L17.9213 19.4185L17.9334 19.4387L17.9638 19.4468L17.9759 19.4671L17.9962 19.4711V19.4792L18.0306 19.4975V19.5157L18.0691 19.5238V19.544L18.1238 19.5724L18.2736 19.7546V19.7749L18.2959 19.7789L18.4093 19.9065V19.9247L18.4335 19.9287V19.949L18.4659 19.953V19.9753L18.4842 19.9794V19.9976L18.6239 20.0927L18.6664 20.1292V20.1373L18.6887 20.1413V20.1494L18.7109 20.1555L18.719 20.1737L18.7535 20.1818L18.7616 20.2041L18.794 20.2082V20.2203L18.8345 20.2365V20.2547L18.8891 20.2871V20.3054L18.9114 20.3094V20.3276L18.9296 20.3317L18.9661 20.3681V20.3863L18.9843 20.3904V20.4106L19.0066 20.4127L19.0612 20.4714V20.4916L19.0815 20.4937L19.2495 20.6435V20.6617L19.284 20.6678V20.688L19.3346 20.7164V20.7245L19.367 20.7346V20.7427L19.4095 20.7589V20.7792L19.454 20.7873V20.8075L19.5269 20.8298L19.5371 20.85L19.5796 20.8602V20.8763L19.6322 20.8885L19.6424 20.9108L19.6991 20.9189V20.929L19.7294 20.9351V20.9452L19.7699 20.9533V20.9614L19.8448 20.9776L19.855 20.9978L19.9724 21.0201L19.9825 21.0424L20.0858 21.0586V21.0687L20.1182 21.0728V21.0849L20.1708 21.093V21.1052L20.1951 21.1092L20.2053 21.1315L20.2903 21.1537V21.174L20.6689 21.2854L20.8046 21.3076V21.2995L20.8248 21.3036V21.2935L21.0273 21.3097V21.2914L21.2156 21.2793V21.259L21.244 21.2611L21.2359 21.2651V21.2854L21.1832 21.3157L21.1245 21.3603V21.3765L21.0921 21.3826L21.0233 21.4473L21.001 21.4433L20.9686 21.4737L20.9484 21.4696L20.916 21.502L20.8957 21.498L20.8755 21.5223L20.8532 21.5202L20.8431 21.5364L20.8147 21.5405V21.5506L20.7924 21.5466L20.7843 21.5628L20.7519 21.5688V21.5769L20.6912 21.583L20.6791 21.6012H20.6365V21.6114L20.6183 21.6073V21.6195L20.5981 21.6134V21.6255L20.5353 21.6336V21.6417L20.5069 21.6357V21.6438L20.5009 21.6701L20.4806 21.666L20.43 21.7146L20.3814 21.7085V21.7268L20.3207 21.7632L20.2295 21.8422L20.2053 21.8402L20.1222 21.8908L20.0007 21.9475L19.9704 21.9515V21.9616L19.9481 21.9556L19.938 21.9758H19.8955L19.8894 21.992H19.8651L19.8448 22.0062L19.8246 22.0001V22.0102L19.8043 22.0062V22.0163L19.7841 22.0123V22.0224L19.7638 22.0183V22.0285L19.7416 22.0244V22.0325L19.7213 22.0305V22.0386L19.6586 22.0467V22.0568L19.6262 22.0507V22.0588L19.6079 22.0568V22.0669L19.5776 22.0588V22.0669L19.5472 22.0791V22.0892L19.5168 22.0831V22.0912L19.4864 22.0872V22.0953L19.3407 22.156L19.3002 22.1945L19.2779 22.1925L19.2374 22.233L19.2151 22.2289L19.1969 22.2512L19.1767 22.2492L19.1544 22.2735L19.1341 22.2694L19.124 22.2856L19.0815 22.2876L19.0714 22.3059L19.041 22.3099V22.32H18.9985L18.9904 22.3403L18.9256 22.3464V22.3545L18.9074 22.3524V22.3605L18.8851 22.3565V22.3666L18.8648 22.3646V22.3747L18.8021 22.3808V22.3909L18.7737 22.3808V22.3929L18.7535 22.3909V22.399L18.719 22.3929L18.7211 22.4031L18.6988 22.399V22.4111L18.6684 22.4031L18.6705 22.4111L18.6401 22.4071V22.4172L18.4396 22.4942L18.4214 22.4921L18.3809 22.5306L18.3607 22.5266L18.3384 22.5529L18.3181 22.5488L18.2959 22.5731L18.2756 22.5691L18.2675 22.5873L18.2473 22.5833L18.225 22.6076L18.1845 22.6096L18.1744 22.6278L18.1339 22.6298L18.1238 22.646L18.061 22.6521L18.0509 22.6683L18.0205 22.6643L18.0083 22.6825L17.6682 22.7432L17.6277 22.7351V22.7452L17.5831 22.7371V22.7473L17.5426 22.7412V22.7473L17.5021 22.7412V22.7513L17.4515 22.7412V22.7513L17.3989 22.7412V22.7513L17.3159 22.7351V22.7452L16.9311 22.6825V22.6744L16.8076 22.6501V22.64L16.7226 22.6238L16.7206 22.6177L16.6618 22.6055V22.5934L16.6193 22.5873V22.5772L16.5667 22.5671V22.5569L16.4513 22.5164V22.5083L16.4189 22.5023V22.4921L16.346 22.4699V22.4618L16.3257 22.4577V22.4476L16.2954 22.4415V22.4314L16.2751 22.4273V22.4192L16.2447 22.4111V22.4031L16.2022 22.3869V22.3767L16.1718 22.3707V22.3605L16.107 22.3302V22.32L16.0888 22.314V22.3059L16.0463 22.2897L16.0362 22.2694L15.9714 22.237L15.9613 22.2168L15.9208 22.2006V22.1884L15.8884 22.1742L15.8782 22.154L15.858 22.15L15.8458 22.1277L15.8256 22.1236L15.8054 22.0912L15.7851 22.0892L15.7628 22.0568L15.7426 22.0528L15.7223 22.0183L15.6899 22.0042L15.5968 21.8908L15.5745 21.8888L15.4976 21.7875L15.4814 21.7835L15.4267 21.7166V21.6964L15.4065 21.6842V21.6741L15.3862 21.6599V21.6417L15.3558 21.6174V21.5972L15.3255 21.5749V21.5526L15.3012 21.5405L15.2911 21.5101L15.2789 21.5081V21.4878L15.2587 21.4737L15.2506 21.4473L15.2384 21.4433L15.2242 21.4028L15.206 21.3866V21.3704L15.1837 21.3461V21.3299L15.1736 21.3259V21.3056H15.1635V21.2854H15.1534L15.1311 21.2226H15.121L15.1108 21.172L15.1007 21.1679V21.1477H15.0886V21.1193L15.0784 21.1173L15.0683 21.0768H15.0562L15.0359 20.9776L15.0258 20.9756V20.9452H15.0137V20.9168L15.0035 20.9128L14.9914 20.844L14.9813 20.8419V20.8035L14.9711 20.8014L14.959 20.684L14.9813 19.8781H14.9914V19.8518H15.0015V19.8235L15.0116 19.8255L15.04 19.706L15.0542 19.708V19.6898L15.0622 19.6939V19.6635L15.0724 19.6655L15.0825 19.627L15.0886 19.6311V19.6027L15.1027 19.6048L15.1149 19.5663L15.125 19.5704V19.54L15.1432 19.5339V19.5157L15.1635 19.5015V19.4813L15.1736 19.4833V19.463L15.1817 19.4651V19.4468L15.204 19.4408L15.2121 19.4043L15.2344 19.4003V19.38L15.2546 19.3719L15.2647 19.3395L15.285 19.3314V19.3112L15.3154 19.3011V19.2788L15.3457 19.2666V19.2464L15.3963 19.218V19.1998L15.4368 19.1796V19.1593L15.4591 19.1451L15.4915 19.1411V19.1229L15.5118 19.1148L15.53 19.0905L15.5826 19.0722V19.054L15.6029 19.0378L15.6231 19.0419L15.6555 19.0075L15.6778 19.0135L15.7142 18.971L15.7365 18.9771L15.7568 18.9508L15.779 18.9548L15.7993 18.9305L15.8216 18.9346L15.8297 18.9184L15.8701 18.9163L15.8803 18.8981L15.9127 18.8961V18.8839H15.9552L15.9653 18.8657L15.9835 18.8698L16.0038 18.8536L16.0281 18.8576V18.8475L16.0463 18.8536V18.8434L16.0686 18.8475L16.0767 18.8293L16.107 18.8353V18.8252L16.1496 18.8232V18.8131L16.182 18.8191V18.811L16.2204 18.809V18.7989L16.2528 18.805V18.7949L16.2751 18.7989V18.7908L16.4087 18.7868V18.7766L16.4411 18.7807V18.7706L16.4715 18.7787V18.7685L16.595 18.7706L16.6072 18.7544L16.6274 18.7604L16.6456 18.7341L16.6679 18.7402L16.6861 18.7118L16.7084 18.7159L16.7287 18.6896L16.7489 18.6956L16.7611 18.6794L16.8016 18.6774L16.8137 18.6612L16.8319 18.6632L16.8441 18.645L16.8623 18.6491L16.8724 18.6329L16.8947 18.6369L16.917 18.6227L16.9352 18.6248V18.6187H16.9575V18.6106L16.9777 18.6146L17.1275 18.5762L17.1458 18.5863Z" fill="#A3CF62"/>
<path d="M20.5001 16.9382L20.4697 16.9686L20.4475 16.9767L20.4495 16.9929L20.4292 17.0091L20.409 17.007L20.3968 17.0232L20.3766 17.0192V17.0293L20.3563 17.0232V17.0354L20.324 17.0293V17.0394L20.2632 17.0455V17.0556L20.2409 17.0516L20.243 17.0637L20.1822 17.0698L20.1701 17.086L20.1275 17.09L20.1194 17.1062L20.0992 17.1022L20.0891 17.1184L20.0668 17.1143L20.0567 17.1326L20.0364 17.1285L20.0263 17.1447L20.0061 17.1427L19.9939 17.1589L19.9453 17.1731V17.1751V17.1974L19.9899 17.2237V17.2419L20.0729 17.3067V17.3269L20.0951 17.329V17.3492L20.1174 17.3553V17.3715L20.1377 17.3776L20.1397 17.3958L20.1599 17.4019L20.2106 17.4869L20.2328 17.491L20.2571 17.5416L20.2794 17.5497V17.5659L20.2976 17.5699L20.3503 17.6874L20.3725 17.6894L20.4171 17.7765L20.4576 17.825L20.5244 17.8554V17.8757L20.5649 17.8919V17.9101L20.6175 17.9405V17.9587L20.6378 17.9627V17.983L20.6601 17.987L20.6621 18.0073L20.7147 18.064L20.737 18.068V18.0883L20.7573 18.0923V18.1105L20.7775 18.1146L20.8524 18.2361L20.8747 18.2381V18.2604L20.8949 18.2624V18.2908L20.9152 18.2968L20.9395 18.3576L20.9476 18.3596L20.9699 18.4122L20.9921 18.4163L21.0124 18.4689L21.0347 18.473L21.0995 18.5236V18.5418L21.1197 18.5459V18.5661L21.1926 18.6086V18.6289L21.2149 18.6329L21.2473 18.6856L21.2675 18.6896L21.2695 18.7119L21.2898 18.716L21.3222 18.7686L21.3424 18.7706V18.7929L21.3627 18.7949L21.3971 18.8698L21.4194 18.8739V18.8962L21.4396 18.8982L21.472 18.9691L21.4923 18.9751V19.0035L21.5125 19.0075L21.5247 19.0379L21.5348 19.0399L21.5469 19.0905L21.5672 19.1047V19.125L21.5895 19.1391V19.1675L21.6117 19.1796L21.6219 19.2424L21.6441 19.2525V19.2951H21.6522L21.6644 19.3457L21.6866 19.3497L21.6988 19.4489L21.7089 19.453V19.4712H21.719V19.5299L21.7413 19.5441L21.7514 19.6352L21.7737 19.6474L21.796 19.7304L21.8183 19.7324L21.8385 19.8154L21.8588 19.8175L21.8729 19.8883L21.8932 19.8924L21.9053 19.9916L21.9256 19.9977L21.96 20.3399H21.9499L21.9539 20.4937L21.9418 20.4917V20.5606L21.9316 20.5585V20.6173L21.9134 20.6213L21.9053 20.6982L21.883 20.6942L21.8324 20.8481L21.8081 20.844L21.7292 20.9878L21.7069 20.9918L21.6947 20.9898L21.6968 21.0182L21.6745 21.0161V21.0263L21.634 21.0485L21.6016 21.0688L21.6057 21.0992L21.5287 21.1214V21.1396L21.5449 21.1417L21.553 21.1235L21.5773 21.1275L21.5834 21.1113L21.6077 21.1154L21.6158 21.0992H21.636V21.0911L21.6684 21.089L21.6765 21.0728H21.6988L21.7312 21.0425L21.7514 21.0485L21.7919 21.008H21.8142L21.8851 20.9453L21.9053 20.9513V20.9412L21.9357 20.927L21.9478 20.9007L22.0187 20.8562V20.8359L22.0673 20.8076V20.7894L22.0896 20.7853V20.7752L22.1119 20.7711L22.1098 20.7509L22.1341 20.7448V20.7246L22.1523 20.7185V20.7003L22.1827 20.6861L22.2151 20.6415L22.2536 20.6193L22.2637 20.6031L22.284 20.6051L22.2921 20.5727L22.3164 20.5788L22.3245 20.5606L22.3447 20.5646L22.3548 20.5464L22.3771 20.5525L22.3872 20.5342L22.4196 20.5322L22.4601 20.4917L22.4824 20.4937L22.5229 20.4532L22.5411 20.4573V20.4472L22.5614 20.4411V20.4229L22.5836 20.4269L22.6221 20.3864L22.6322 20.3884V20.3702L22.6747 20.3561V20.3399L22.7274 20.3095V20.2892L22.7679 20.269V20.2508L22.7983 20.2528V20.2346L22.8793 20.1819L22.9238 20.1799L22.9319 20.1455H22.9744V20.1353L23.0048 20.1333L23.0169 20.1151L23.0352 20.1191V20.109L23.0676 20.105L23.0757 20.0888L23.0979 20.0928L23.1162 20.0665L23.1384 20.0726L23.1485 20.0523L23.1607 20.0564L23.1708 20.0382L23.1911 20.0422V20.0341L23.2316 20.022V20.0017L23.4259 19.8762V19.8579L23.4543 19.8458V19.8235L23.4847 19.8114L23.5252 19.7749L23.4968 19.7324L23.4826 19.7304L23.4745 19.6899L23.4421 19.6656L23.432 19.615L23.4219 19.6129L23.3774 19.5461L23.2417 19.453V19.4327L23.2093 19.4186L23.1992 19.3963L23.1749 19.3943L23.1445 19.3497L23.1222 19.3457L23.0716 19.2849L23.0473 19.2525L23.0291 19.2485L22.9947 19.1938L22.9744 19.1918L22.9218 19.1148L22.9096 19.1108V19.0905L22.8448 19.0318V19.0136L22.8266 18.9974V18.9772L22.8043 18.965V18.9468L22.78 18.9225L22.7618 18.9184L22.6849 18.7605L22.6666 18.7544L22.5755 18.556L22.5553 18.5398V18.5216L22.5452 18.5196L22.535 18.4588L22.5229 18.4568V18.4284L22.5128 18.4264V18.3981L22.5026 18.396V18.3677L22.4925 18.3657L22.4905 18.3252H22.4824L22.4682 18.2624L22.4581 18.2604V18.2422L22.448 18.2381V18.2017L22.4378 18.1996L22.4358 18.1409L22.4257 18.1389L22.4237 18.0883H22.4156L22.4135 18.0093L22.4034 18.0073L22.3913 17.7744L22.3791 17.7724V17.7441L22.3589 17.7299L22.3447 17.659L22.3245 17.655L22.3143 17.6145L22.3042 17.6124V17.574L22.2921 17.5719V17.5416L22.2698 17.5294V17.4788L22.2475 17.4768L22.2374 17.3776L22.2273 17.3755V17.3553H22.2171L22.2151 17.2864L22.1928 17.2703V17.167L22.1706 17.1548L22.1665 16.8491L22.1888 16.8471V16.7357L22.209 16.7418L22.2171 16.6486H22.2273V16.6102L22.2374 16.6122V16.5616L22.2576 16.5575V16.519L22.2799 16.515L22.29 16.4482L22.3123 16.4522L22.3386 16.349L22.3609 16.353V16.3247L22.3812 16.3287L22.4662 16.1991L22.4864 16.2032L22.5188 16.1404L22.5391 16.1445V16.1242L22.5593 16.1262L22.612 16.0594L22.6302 16.0635V16.0432L22.6666 16.0513L22.697 16.027L22.693 16.0088L22.7152 16.0128V15.9926L22.7355 15.9966L22.7578 15.9724L22.776 15.9744L22.7881 15.9582L22.8185 15.9521V15.9339L22.8712 15.9055L22.9663 15.8934V15.8752L23.0716 15.8671V15.8448L23.1647 15.8326L23.1992 15.8407V15.8306L23.2194 15.8326V15.8225L23.2579 15.8306L23.2721 15.8144L23.3855 15.8266L23.3936 15.8083L23.4907 15.8266L23.5029 15.8083L23.6689 15.8407L23.6932 15.8326L23.9747 15.8974V15.9177L24.2095 15.9886V16.0088L24.2622 16.0169V16.0371L24.3898 16.0898V16.108L24.493 16.1566V16.1789L24.5355 16.1951L24.5396 16.2052L24.57 16.2113L24.5902 16.2437L24.6226 16.2498V16.2578L24.6469 16.2599V16.272L24.7279 16.2862V16.2983L24.8008 16.3105V16.3206L24.8555 16.3307V16.3409L24.9182 16.353V16.3631L24.9607 16.3712L24.9709 16.3895L25.0134 16.3996V16.4097L25.0438 16.4158V16.4239L25.0782 16.43V16.4421L25.1207 16.4482V16.4583L25.2685 16.5231V16.5433L25.4771 16.6608V16.679L25.5155 16.6952L25.5014 16.679V16.6628L25.4811 16.6486V16.6304L25.4609 16.6061V16.5879L25.4386 16.5737L25.4285 16.5332L25.4082 16.519V16.5008L25.3981 16.4968L25.388 16.4684L25.3657 16.4543V16.436L25.3232 16.3996V16.3793L25.2786 16.3429V16.3247L25.2057 16.2538L25.1977 16.2234L25.1774 16.2194V16.1991L25.1551 16.1951L25.0073 16.0554L24.9891 16.023L24.9688 16.0169L24.9547 15.9966L24.9365 15.9926L24.9142 15.9602L24.8737 15.942L24.8636 15.9217L24.8291 15.9055V15.8974L24.7664 15.8671V15.8549L24.7481 15.8529V15.8428L24.6854 15.8124V15.8043L24.6327 15.782V15.7759L24.6125 15.7699V15.7597L24.5801 15.7557V15.7456L24.5598 15.7415V15.7314L24.5295 15.7253V15.7152H24.5072V15.7031L24.4343 15.6788V15.6707L24.4019 15.6646V15.6565L24.3614 15.6484V15.6383L24.3088 15.6302V15.618L24.2581 15.6079V15.5998L24.0921 15.5593V15.5512L23.6365 15.4844V15.4925L23.5798 15.4844V15.4925L23.5312 15.4844V15.4925L23.5009 15.4884V15.4985L23.4583 15.4884V15.5006L23.4158 15.4904V15.5026L23.3936 15.4965V15.5066L23.3328 15.5046V15.5147L23.3146 15.5107V15.5188L23.2822 15.5168V15.5249H23.2417V15.535L23.2093 15.5289V15.539L23.1465 15.5471V15.5573L23.1283 15.5512V15.5633L23.0858 15.5654L23.0757 15.5795L23.0352 15.5836L23.025 15.5998L23.0007 15.5978V15.6059L22.9704 15.6079L22.9623 15.6281L22.94 15.6221L22.9218 15.6484L22.8995 15.6443L22.8793 15.6686L22.859 15.6646L22.8266 15.699L22.8064 15.695L21.6968 16.3166L21.6522 16.3206V16.3307L21.6219 16.3348L21.6117 16.351L21.5895 16.3449V16.3571L21.551 16.3773L21.2088 16.5838L21.2128 16.6L21.1906 16.6061L21.1602 16.6405L21.1379 16.6345L21.1197 16.6486L20.5001 16.9382Z" fill="#A3CF62"/>
<path d="M7.53379 15.8327L7.55606 15.7902H7.56416L7.57429 15.7558L7.58643 15.7578L7.58441 15.7375L7.59453 15.7396V15.7092L7.60466 15.7112L7.62491 15.6586L7.63503 15.6606V15.6403L7.64718 15.6444V15.6241L7.6573 15.6282L7.65528 15.6079H7.6654V15.5897L7.67958 15.5938V15.5735L7.69577 15.5573V15.5391L7.71602 15.533L7.72615 15.4966L7.74842 15.4905L7.75652 15.4541L7.78082 15.448L7.77677 15.4318H7.78689V15.4115L7.80916 15.4075V15.3872L7.82739 15.3832V15.3629L7.85168 15.3569L7.84763 15.3366L7.86991 15.3305V15.3123L7.90028 15.3002V15.2799L7.93268 15.2678V15.2455L7.98532 15.2192V15.201L8.00557 15.1949V15.1848L8.02379 15.1787V15.1605L8.28094 14.8446H8.29107L8.31739 14.8122L8.32751 14.8162V14.7859L8.33764 14.7879L8.33561 14.7717H8.34574V14.7413L8.35991 14.7454L8.37813 14.6907H8.38826V14.6745L8.39838 14.6765V14.6583H8.4085V14.6401H8.4166V14.6219L8.42875 14.6239V14.6036L8.43888 14.6077V14.5874L8.44698 14.5895V14.5692L8.46925 14.555V14.5348L8.4895 14.5308L8.49962 14.4943L8.51784 14.4882L8.53202 14.4518L8.54822 14.4457V14.4275H8.56037V14.4113L8.59074 14.3971L8.59884 14.3566L8.63326 14.3485L8.63123 14.3262L8.66161 14.3141L8.71627 14.2574V14.2372L8.73652 14.2412L8.75475 14.2088H8.76487V14.1906L8.77499 14.1926L8.80739 14.1602L8.82764 14.1562V14.1339L8.83574 14.1359L8.86813 14.1035L8.88636 14.1096L9.15971 13.8119L9.15768 13.7957L9.16983 13.7978L9.17793 13.7593L9.18805 13.7634V13.7431L9.2002 13.7451V13.7249L9.2083 13.7269V13.7087L9.22045 13.7107V13.6905L9.23058 13.6945V13.6763H9.2407V13.654L9.2488 13.6601V13.6398L9.26095 13.6419L9.25892 13.6236L9.2812 13.6054V13.5892L9.30144 13.5831L9.31157 13.5467L9.34194 13.5325L9.35004 13.4961L9.37231 13.492V13.4718L9.38244 13.4738V13.4536L9.40268 13.4495L9.41281 13.4212L9.4452 13.409V13.3908L9.47558 13.3766L9.4857 13.3402L9.53835 13.3098V13.2916L9.58694 13.2632V13.245L9.74083 13.0688L9.74893 13.0729V13.0547L9.75905 13.0567L9.7712 12.9919L9.78335 12.9939L9.7793 12.9737L9.79347 12.9757L9.80157 12.921L9.81169 12.9231V12.9028L9.82182 12.9069V12.8785H9.83194L9.84207 12.8441H9.85017V12.8157L9.86029 12.8178L9.88256 12.7651H9.89269V12.7469L9.90281 12.7489V12.7307H9.91293V12.7105L9.92306 12.7145V12.6963H9.93116V12.6781H9.94331V12.6598L9.95141 12.6639V12.6436L9.97368 12.6274V12.6092L9.99393 12.6031L10.0162 12.5485L10.0344 12.5444V12.5242L10.0668 12.512L10.0749 12.4756L10.0972 12.4695V12.4513L10.1276 12.4391V12.4189H10.1357L10.1458 12.3926L10.1681 12.3865V12.3662L10.2106 12.348V12.3278L10.2592 12.3014V12.2812L10.3219 12.2447V12.2245L10.4414 12.0382H10.4556L10.4515 12.02L10.4637 12.024L10.4839 11.939L10.4941 11.9431V11.9228L10.5042 11.9248V11.8965L10.5143 11.8985L10.5244 11.8621L10.5366 11.8641V11.8337L10.5426 11.8357L10.5629 11.7831L10.575 11.7851V11.7669L10.5852 11.7689V11.7487H10.5973L10.5953 11.7304L10.6095 11.7345L10.6034 11.7142L10.6176 11.7163L10.6155 11.696L10.6277 11.6981L10.6236 11.6798L10.6358 11.6819V11.6596L10.656 11.6474V11.6292L10.6783 11.6211L10.6884 11.5867L10.7067 11.5786L10.7168 11.5442L10.7391 11.5381V11.5199L10.7593 11.5138V11.4956L10.7796 11.4895V11.4692L10.7978 11.4632V11.4429L10.8221 11.4389L10.814 11.4085L10.8423 11.3943V11.3761L10.8848 11.3559L10.895 11.3275L10.9861 11.202V11.1554L10.9982 11.1574V11.1271L11.0084 11.1311L11.0043 11.1007L11.0165 11.1028V11.0643L11.0266 11.0683V11.038L11.0529 11.042V11.0137L11.065 11.0177L11.063 10.9873H11.0731V10.9691L11.0833 10.9732L11.0934 10.9165L11.1055 10.9185L11.1015 10.8983L11.1136 10.9003V10.8719L11.1238 10.874L11.1339 10.8375L11.146 10.8416L11.144 10.8193L11.1541 10.8233V10.795L11.1663 10.797L11.1845 10.7444H11.1946V10.7261H11.2068L11.2027 10.7099H11.2169L11.2351 10.6553L11.2574 10.6492V10.6209L11.2756 10.6148L11.2878 10.5804L11.306 10.5743V10.554L11.3262 10.55V10.5297L11.3485 10.5237V10.5054L11.3667 10.4994V10.4811L11.391 10.4751V10.4568H11.4012L11.4072 10.4305L11.4315 10.4265V10.4062L11.4599 10.3921V10.3738L11.5125 10.3455V10.3273L11.6644 10.1045V10.0782H11.6745V10.0499L11.6826 10.0539V10.0134H11.6948L11.6927 9.99722L11.7029 9.99924V9.97089L11.715 9.97292V9.95267L11.7231 9.95469V9.92432L11.7332 9.92837V9.90812L11.7454 9.91015V9.8818L11.7535 9.88383L11.7636 9.84738L11.7737 9.84941V9.83118H11.7839V9.80283L11.8061 9.79676V9.77044L11.8162 9.77246V9.75221H11.8243V9.73399L11.8466 9.72792L11.8446 9.70969L11.8669 9.69552V9.67527H11.875V9.65705L11.8871 9.6611V9.64085L11.9074 9.63478L11.9175 9.59833L11.9377 9.59428V9.57403L11.958 9.56796V9.54973L11.9803 9.54366L11.9782 9.52341L11.9985 9.51936V9.49911L12.0187 9.49304V9.47482L12.0511 9.46064V9.44444L12.0795 9.42825V9.408L12.2131 9.22172L12.2232 9.22577V9.19742L12.2354 9.19944V9.16907L12.2435 9.17312V9.14275L12.2536 9.14477V9.10833L12.2637 9.11035V9.0901H12.2739L12.2961 9.00911L12.3042 9.01114V8.99089L12.3164 8.99291L12.3144 8.96457L12.3245 8.96862L12.3346 8.93217H12.3447L12.3548 8.88965H12.365L12.3832 8.83498L12.3933 8.837V8.81676L12.4075 8.8208L12.4055 8.80258L12.4176 8.80461L12.4156 8.78436L12.4257 8.78638V8.76816L12.448 8.75196V8.73171L12.4662 8.72766L12.4763 8.68919L12.4966 8.68514L12.5067 8.6487L12.527 8.6406L12.5391 8.60415L12.5695 8.59403L12.5675 8.57378L12.5877 8.5677V8.54746L12.61 8.54341L12.6181 8.51506L12.6484 8.50291V8.48266L12.6727 8.47861L12.6687 8.46849L12.691 8.46444V8.44419L12.7315 8.42192V8.4037L13.0068 8.03316V8.01493L13.017 8.01898V7.99873L13.0392 7.99266V7.97444L13.0595 7.95824V7.93799L13.0676 7.94002V7.92179L13.0878 7.91572L13.098 7.87927L13.1081 7.8813L13.1202 7.857L13.1384 7.8489L13.1506 7.81245L13.1789 7.79828V7.78006L13.1992 7.77398V7.75171L13.2316 7.74158V7.72134L13.2701 7.70311V7.68084L13.3126 7.66059V7.64439L13.4077 7.58365L13.4037 7.5634L13.428 7.55935L13.4462 7.53303L13.4685 7.53708L13.5515 7.46621L13.5718 7.47026L13.6021 7.43786L13.6224 7.44191L13.6629 7.40142L13.6811 7.40547L13.7034 7.38117L13.7256 7.38319L13.7378 7.367L13.7661 7.36295V7.35282L13.7864 7.3589L13.7965 7.3427L13.8188 7.34675L13.8289 7.3265L13.8613 7.32245V7.31233L13.922 7.30625L13.9301 7.29005L13.9524 7.2941L13.9727 7.27588L13.9929 7.27993V7.27183L14.0132 7.27588V7.26778L14.0375 7.2698L14.0456 7.25158L14.0739 7.25766V7.24956L14.1164 7.24551V7.23741L14.1468 7.24348V7.23336L14.1893 7.23133V7.22323L14.2217 7.22728V7.21918L14.242 7.22323V7.21311L14.2744 7.21918V7.21109L14.2906 7.21311V7.20096L14.4687 7.17059L14.487 7.17464L14.4991 7.15439H14.5416L14.5497 7.13617L14.5923 7.13414V7.12402L14.6145 7.12807V7.11997L14.6732 7.11187V7.10377L14.7056 7.1058V7.0977L14.7482 7.09567V7.08757L14.7785 7.09365V7.0815L14.8008 7.08757V7.07542L14.8595 7.07947L14.8616 7.06935L14.8919 7.07542V7.0653L14.9223 7.07137V7.06327L14.9547 7.06732V7.0572L14.9952 7.0653V7.05518L15.0377 7.06327V7.05518L15.0883 7.06327V7.05518L15.9084 7.24551V7.25563L15.9408 7.26171V7.2698L15.9711 7.27588V7.286L16.0035 7.29208V7.3022L16.0359 7.30625V7.31638L16.0562 7.32043V7.32852L16.0886 7.3346V7.34675L16.1291 7.36295V7.37105L16.1615 7.37712V7.38927L16.2242 7.41964V7.42774L16.2647 7.44394L16.2749 7.46419L16.3174 7.48241L16.3275 7.50266L16.3498 7.50671L16.3599 7.52898L16.3802 7.53303L16.3923 7.55328L16.4105 7.55733L16.4227 7.57758L16.4429 7.58162L16.4551 7.6039L16.4753 7.60795L16.5057 7.65047L16.528 7.65452L16.5685 7.71121L16.5907 7.71526V7.72134L16.611 7.73753V7.75778L16.779 7.95014L16.8094 7.97646V7.99266L16.8438 8.01898V8.03721L16.8621 8.04935L16.8722 8.08378H16.8843V8.10402L16.9046 8.11617L16.9167 8.14654L16.9248 8.15059V8.16882L16.9491 8.19312V8.20931L16.9593 8.21134V8.23159L16.9694 8.23564V8.25386H16.9795V8.27208L16.9896 8.27613V8.29638H16.9977L17.022 8.35712L17.0321 8.36117V8.3875L17.0443 8.39155V8.40977L17.0524 8.41179V8.44014L17.0625 8.44217V8.46444H17.0767V8.49279L17.0848 8.49481V8.52316L17.0969 8.52518L17.1091 8.59403H17.1172L17.2265 8.92002L17.2326 8.92407L17.2488 8.96254L17.2569 8.96457L17.269 9.02531H17.2792V9.04556H17.2893L17.3237 9.17717L17.3298 9.17919V9.20957H17.344V9.23994H17.3541V9.27639L17.3642 9.28044L17.3865 9.42825V10.2199L17.3662 10.3516L17.3561 10.3475V10.3779L17.346 10.3759V10.4042L17.2569 10.9023L17.2488 10.9003L17.2528 11.0177H17.2387L17.2427 11.1007L17.2306 11.0987V11.1554H17.2205V11.2101H17.2083V11.2566L17.2002 11.2546V11.2911H17.1921L17.0807 11.6454L17.0726 11.6414L17.0605 11.6798L17.0504 11.6778V11.7061L17.0402 11.7041L17.0301 11.7406L17.02 11.7365V11.7568L17.0078 11.7547L17.0119 11.7831L16.9896 11.7892V11.8094L16.9694 11.8236L16.856 12.0706L16.8479 12.0949L16.8378 12.0706L16.8074 12.0463L16.7973 12.0038L16.7649 11.9815V11.9613L16.7446 11.9471V11.9269L16.7122 11.9026L16.69 11.8702L16.6798 11.8661V11.8479L16.6373 11.8114L16.5847 11.7345L16.5644 11.7304L16.5523 11.6981H16.5421V11.6697L16.53 11.6657V11.6353H16.5199V11.6049L16.5077 11.6029V11.5745L16.4976 11.5725V11.5442H16.4875V11.5138L16.4773 11.5118L16.4571 11.449H16.4429V11.4288L16.4348 11.4267V11.4085L16.4227 11.4045V11.3862L16.4105 11.3842V11.364L16.4024 11.3619V11.3437L16.3802 11.3214V11.3012L16.3599 11.287L16.3397 11.2263L16.3052 11.1999V11.1797L16.2627 11.1453L16.2526 11.1129L16.2303 11.0987V11.0805L16.1979 11.0542V11.0359L16.1676 11.0116V10.9914L16.0926 10.9185L16.0825 10.8881L16.0623 10.8841V10.8659L16.0197 10.8375L15.9671 10.7707L15.9428 10.7666V10.7585L15.8902 10.716V10.6998L15.8618 10.6816V10.6735L15.8294 10.6593L15.8193 10.6371L15.7545 10.6067L15.7444 10.5844L15.712 10.5702V10.5601L15.6937 10.5581L15.6674 10.5318L15.6492 10.5297V10.5196L15.629 10.5156L15.6168 10.4933L15.5966 10.4913V10.4811L15.5743 10.4771L15.552 10.4548L15.5318 10.4508L15.5216 10.4285L15.4265 10.3819V10.3718L15.4062 10.3678V10.3576L15.3435 10.3374L15.1005 10.224L14.9871 10.1916V10.1855L14.651 10.1126L14.0213 10.1207L13.9868 10.1147V10.1248L13.9281 10.1349V10.141L13.8856 10.145L13.8755 10.1612L13.8552 10.1572V10.1673L13.835 10.1632V10.1734L13.8127 10.1693L13.7904 10.1855L13.7722 10.1794L13.7601 10.1977L13.6993 10.2078L13.677 10.2301L13.6325 10.2341L13.6264 10.2503L13.592 10.2544V10.2625L13.5616 10.2685L13.5637 10.2868L13.509 10.307V10.3151L13.4908 10.3111L13.4381 10.3617L13.3976 10.3718V10.3921L13.3652 10.3941V10.4143L13.345 10.4184V10.4305L13.3227 10.4265L13.2701 10.473V10.4933L13.264 10.4913L13.2437 10.5277L13.2215 10.5216L13.2113 10.548H13.1992L13.1891 10.5743L13.1668 10.5804L13.1587 10.6168L13.1303 10.631L13.106 10.6816L13.0838 10.6897L13.0878 10.7099L13.0676 10.7261V10.7444H13.0575V10.7626H13.0453V10.7788L13.0352 10.7768V10.797L13.0251 10.795V10.8132L13.0149 10.8112L12.9927 10.8659H12.9825L12.8813 11.1635L12.8651 11.3538L12.8529 11.3518L12.8469 11.5725H12.855L12.8671 11.7689L12.8793 11.773L12.8914 11.8904L12.8995 11.8924L12.9015 11.9289L12.9117 11.9309V11.9694L12.9218 11.9734L12.9258 12.0099L12.9339 12.0119L12.938 12.0402L12.9461 12.0443V12.0726L12.9562 12.0767V12.105H12.9663V12.1354H12.9785V12.1658L12.9886 12.1678V12.1962L12.9987 12.2002V12.2285H13.0089L13.0332 12.2913L13.0433 12.2933V12.3116H13.0514L13.0534 12.3318L13.0656 12.3359V12.3561H13.0757V12.3784H13.0838V12.3966L13.106 12.4209V12.4391L13.1303 12.4533L13.1506 12.514L13.1789 12.5404L13.1911 12.5809L13.2134 12.595L13.2235 12.6254L13.2336 12.6274L13.2458 12.6598L13.264 12.6639V12.6801L13.2964 12.7064V12.7246L13.3207 12.7388V12.759L13.3511 12.7854V12.7955L13.3713 12.7975L13.3936 12.8218L13.4037 12.8502L13.4462 12.8886V12.917L13.4563 12.921V12.9474L13.4685 12.9514L13.4705 12.9777L13.4806 12.9818V13.0101L13.4908 13.0121V13.0324H13.5009L13.511 13.0931L13.5232 13.0952L13.5454 13.1579L13.5576 13.16V13.1782L13.5677 13.1822V13.2005H13.5738V13.2207L13.588 13.2248V13.241L13.6082 13.2673V13.2855L13.6284 13.2976L13.6507 13.3604L13.6811 13.3867L13.6953 13.4252L13.7155 13.4394L13.7256 13.4718L13.7682 13.5062V13.5285L13.8208 13.5771V13.5933L13.8957 13.6662L13.9058 13.6965L13.9281 13.7006L13.9605 13.7755L13.9808 13.8646L13.9929 13.8666V13.8869L14.003 13.8889V13.9172L14.0132 13.9193L14.0375 13.98L14.0456 13.9841V14.0023L14.0557 14.0043V14.0245L14.0678 14.0266V14.0448L14.0759 14.0468V14.0752L14.0982 14.0893L14.1104 14.1298L14.1326 14.144L14.1529 14.2048L14.1731 14.2189V14.2392L14.1954 14.2534L14.2075 14.2938L14.2258 14.306V14.3262L14.2683 14.3607V14.3829L14.3128 14.4174V14.4396L14.3452 14.4639L14.3574 14.4842L14.3776 14.4882V14.4984L14.3959 14.5125V14.5308L14.4303 14.5449L14.4424 14.5773L14.4606 14.5814L14.4728 14.6016L14.4829 14.6036V14.6239L14.5032 14.6381L14.5133 14.6948L14.5254 14.7008V14.7191L14.5376 14.7211V14.7494L14.5477 14.7515L14.57 14.8122L14.5781 14.8162V14.8345L14.5902 14.8365V14.8567L14.6004 14.8588V14.877H14.6125V14.8993H14.6226V14.9215L14.6429 14.9438V14.962L14.6672 14.9782L14.6854 15.039L14.7178 15.0633L14.7279 15.0936H14.7401V15.1139L14.7704 15.1402V15.1605L14.815 15.1969V15.2151L14.8555 15.2516V15.2718L14.9304 15.3467L14.9405 15.3751L14.9628 15.3771V15.3974L14.9932 15.4115V15.4217L15.0478 15.4723V15.4905L15.0681 15.5047V15.5229L15.0782 15.5249V15.5452L15.0883 15.5472V15.5756L15.1005 15.5776L15.1309 15.6565H15.1268L15.1187 15.7112L15.1086 15.7092V15.7294L15.0985 15.7254V15.7558L15.0863 15.7517V15.7821H15.0782V15.8003L15.0681 15.7963V15.8266L15.0559 15.8226L15.0478 15.859L15.0377 15.857V15.8874L15.0276 15.8853L15.0053 15.938L14.9952 15.936V15.9582L14.9871 15.9522V15.9825L14.9689 15.9886V16.0068L14.9567 16.0048V16.0352L14.9365 16.0392V16.0595L14.9263 16.0575V16.0757L14.9061 16.0919V16.1101L14.8859 16.1162L14.8656 16.1688L14.8433 16.1769V16.1951L14.815 16.2073L14.8049 16.2437L14.7745 16.2579V16.2782L14.7522 16.2822L14.7421 16.3106L14.732 16.3065V16.3268L14.6996 16.3409V16.3612L14.651 16.4077L14.5335 16.5637L14.5153 16.594L14.5072 16.592V16.6183L14.4971 16.6163V16.6548H14.4849V16.6831L14.4768 16.6791L14.4606 16.7074L14.4505 16.7034V16.7337L14.4424 16.7317V16.7601L14.4303 16.758V16.7763L14.4201 16.7742V16.8046L14.41 16.8006V16.8208L14.3999 16.8188L14.3716 16.8694H14.3655L14.3513 16.9058L14.3452 16.9018V16.922L14.3331 16.92V16.9504L14.323 16.9484L14.3027 16.9565H14.3088L14.3108 16.9767L14.2966 16.9747L14.2804 17.0294L14.2582 17.0334L14.2379 17.0881L14.2156 17.0942L14.1974 17.1448L14.1772 17.1549V17.1691L14.1549 17.1751V17.1974L14.1347 17.2015V17.2217H14.1225L14.1124 17.248L14.0921 17.2521V17.2703L14.0638 17.2845V17.3047L14.0435 17.3088V17.329L14.0213 17.3351L14.0415 17.3473L14.0172 17.3513V17.3716L13.9767 17.4384V17.4586L13.9058 17.4991V17.5214L13.8654 17.5396L13.6507 17.817L13.6406 17.815L13.6284 17.8514L13.6224 17.8494V17.8697L13.6082 17.8676V17.894H13.6021L13.5799 17.9466H13.5677V17.9628L13.5596 17.9608V17.983L13.5475 17.979L13.5515 17.9992L13.5394 17.9972V18.0154L13.5191 18.0296V18.0499L13.4989 18.0559V18.0843L13.4887 18.0802L13.4766 18.1106L13.4563 18.1126L13.4462 18.1511L13.428 18.1572V18.1754L13.4158 18.1734V18.1936L13.3976 18.1997V18.2179L13.3652 18.2321L13.3551 18.2685L13.3227 18.2807V18.3009L13.2944 18.3151V18.3333L13.2741 18.3394V18.3576L13.2316 18.3799V18.3981L13.1789 18.4265V18.4467L13.0251 18.635H13.0149V18.6735L13.0028 18.6695V18.6897L12.9927 18.6877L12.9562 18.7687L12.9461 18.7646L12.938 18.8112H12.9258V18.8294L12.9177 18.8254V18.8537H12.9076L12.8853 18.9064L12.8752 18.9043V18.9226L12.8651 18.9205V18.9408H12.855V18.9671L12.8347 18.9752V19.0015L12.8165 19.0076V19.0278L12.8044 19.0238V19.044L12.7942 19.042V19.0623L12.7841 19.0602V19.0785L12.7639 19.0947V19.1149L12.7436 19.121L12.7335 19.1554L12.7132 19.1595L12.7031 19.1979L12.6727 19.2121L12.6606 19.2465L12.6343 19.2587L12.6221 19.287L12.6019 19.2951L12.5897 19.3316L12.5573 19.3417V19.3619L12.5087 19.3923V19.4105L12.4561 19.4369V19.4591L12.284 19.6555L12.2739 19.6819L12.2637 19.6798V19.7183L12.2536 19.7142L12.2435 19.7507L12.2354 19.7487L12.2232 19.8054L12.2131 19.8033L12.205 19.8519L12.1929 19.8479L12.1827 19.8823L12.1726 19.8803V19.9005L12.1605 19.8985V19.9289L12.1503 19.9248L12.1321 19.9815L12.122 19.9795V19.9977H12.1119L12.0896 20.0483L12.0694 20.0524V20.0747L12.0511 20.0888V20.1071L12.041 20.105V20.1253H12.0309V20.1415L12.0127 20.1496L12.0005 20.184L11.9803 20.1901V20.2083L11.958 20.2144V20.2346L11.9377 20.2387V20.2569L11.9175 20.265V20.2832L11.8972 20.2893V20.3095L11.8669 20.3217V20.3399L11.8466 20.346V20.3683L11.8061 20.3885V20.4067L11.7535 20.4351V20.4533L11.715 20.4756V20.4857L11.6927 20.4918L11.5146 20.7145L11.5044 20.7307L11.4822 20.7854H11.4741L11.466 20.8218L11.4558 20.8198V20.8461L11.4437 20.8441V20.8643L11.4336 20.8623V20.8907H11.4214L11.387 20.9413L11.3769 20.9372V20.9575L11.3667 20.9555V20.9838L11.3485 20.9899V21.0081L11.3262 21.0223V21.0425H11.3161V21.0587H11.306V21.0769L11.2858 21.0931V21.1114L11.2655 21.1174L11.2534 21.1539L11.2351 21.16V21.1782L11.2149 21.1843V21.2025L11.1926 21.2086L11.1825 21.247L11.1501 21.2592L11.144 21.2956L11.1116 21.3078L11.059 21.3665V21.3867L11.0428 21.3807L11.0205 21.4171L11.0104 21.4151V21.4313L10.9901 21.4374V21.4475L10.9679 21.4536V21.4738L10.8565 21.5487V21.5669L10.8342 21.571L10.7856 21.6196L10.7634 21.6176L10.7512 21.6338L10.4232 21.9375L10.4131 21.9334L10.4171 21.9517H10.405V21.9699L10.3847 21.9861V22.0063L10.3624 22.0104L10.3523 22.0468L10.3341 22.0529L10.3219 22.0893L10.2916 22.1015L10.2835 22.1379L10.2511 22.1521L10.241 22.1886L10.2126 22.2007V22.221L10.1802 22.2351V22.2534L10.1377 22.2736L10.1316 22.3019L10.1195 22.2999V22.3181L10.0992 22.3141L9.89269 22.5065L9.87244 22.5024L9.86029 22.5166L9.7793 22.5611V22.5814L9.76917 22.5773L9.72665 22.5996V22.6097L9.71045 22.6057V22.6239L9.66591 22.636V22.6462L9.64769 22.6401L9.63554 22.6583L9.62541 22.6563L9.61326 22.6745L9.40876 22.875L9.39053 22.881L9.37839 22.9175L9.35814 22.9215V22.9418L9.33587 22.9479V22.9661L9.31764 22.9722V22.9904L9.29739 22.9985V23.0147L9.27715 23.0228V23.041L9.24475 23.0532V23.0734L9.22653 23.0795V23.0977L9.20628 23.1017V23.1119L9.18603 23.12V23.1382L9.14351 23.1605V23.1787L9.07264 23.2232V23.2415L8.99975 23.286L8.98962 23.3123L8.9714 23.3103L8.96128 23.3346L8.92888 23.3407L8.83574 23.3974L8.56846 23.6626L8.52999 23.7153V23.7335L8.50772 23.7375L8.4976 23.776L8.47735 23.7821L8.47937 23.8003L8.4571 23.8064L8.43888 23.8327V23.8489L8.4166 23.855L8.40041 23.857L8.38016 23.861V23.8793L8.35991 23.8874V23.9056L8.32751 23.9198L8.27689 23.9765V23.9967L8.25664 23.9906L8.2445 24.019L8.21615 24.0311V24.0514L8.1635 24.0797L7.96912 24.2255V24.2437L7.9509 24.2599L7.9266 24.2559L7.90838 24.2802L7.80309 24.3288L7.80714 24.345L7.77474 24.351L7.71197 24.3774L7.69172 24.4017L7.67148 24.3976L7.63908 24.4118L7.62896 24.43L7.62288 24.4442L7.61478 24.4604L7.54391 24.4766V24.4968L7.50342 24.4989V24.507L7.48114 24.5029L7.47102 24.5191L7.44875 24.5151V24.5272L7.43052 24.5211L7.40825 24.5272L6.78056 24.9362L6.76234 24.9322L6.72792 24.9666L6.70969 24.9625V24.9706L6.67932 24.9868L6.66717 25.003L6.64693 24.997L6.63883 25.0172L6.61453 25.0111L6.59428 25.0354L6.57403 25.0314L6.55378 25.0577L6.51126 25.0597L6.49304 25.084L6.47279 25.082L6.46267 25.0962L6.41812 25.0982L6.408 25.1164L6.36953 25.1184L6.3594 25.1346L6.33713 25.1306L6.31688 25.1488L6.29663 25.1427V25.1529L6.27639 25.1488L6.26626 25.167L6.22172 25.1691L6.22577 25.1772L6.20552 25.1751V25.1812L6.14275 25.1913V25.2035L6.11035 25.1934V25.2055L6.0901 25.2035V25.2096L6.02936 25.2177V25.2278L5.96659 25.2237V25.2339L5.94432 25.2298V25.242L5.85118 25.244V25.2501L5.83093 25.248V25.2561L5.79043 25.2501V25.2582L5.76006 25.2541V25.2642L5.72766 25.2561V25.2683L5.69729 25.2622V25.2703L5.6568 25.2642L5.48266 25.2784L5.3794 25.2683V25.2784L4.75576 25.1913V25.1812L4.53505 25.1306L4.11795 24.9787V24.9666L3.98228 24.9139V24.9058L3.96406 24.9018V24.8896L3.93166 24.8856V24.8755L3.86889 24.8552V24.8451L3.84662 24.8411V24.833L3.81422 24.8249V24.8168L3.77575 24.7985V24.7904L3.75551 24.7864V24.7763L3.72311 24.7722V24.7621L3.68059 24.7439V24.7337L3.66236 24.7317V24.7236L3.62794 24.7155L3.61984 24.6932L3.59555 24.6912V24.6811L3.57732 24.677V24.6669L3.55505 24.6649V24.6548L3.5348 24.6487L3.51253 24.6284L3.49228 24.6224L3.48216 24.6021L3.41939 24.5697L3.40926 24.5515L3.36674 24.5353L3.34649 24.5009L3.32625 24.4968L3.31207 24.4766L3.29385 24.4725L3.29183 24.4624L3.26145 24.4482L3.25133 24.426L3.23108 24.4219L3.21083 24.3895L3.18856 24.3855L3.17844 24.3652L3.15616 24.3612L3.13592 24.3288L3.11567 24.3268L3.07315 24.2701L3.0529 24.266L3.00025 24.1992L2.98001 24.1951L2.84434 24.0372L2.7593 23.9522V23.9339L2.68438 23.861V23.8428L2.64591 23.8064V23.7882L2.60339 23.7497L2.59934 23.7335L2.57909 23.7193V23.6991L2.54872 23.6748V23.6565L2.52645 23.6424L2.51633 23.612L2.5062 23.61V23.5917L2.48393 23.5776V23.5594L2.46368 23.5432V23.5249L2.44546 23.5108L2.42318 23.45L2.40091 23.4379L2.38066 23.3771L2.35839 23.3629L2.34624 23.3245L2.33612 23.3204V23.3022L2.32599 23.3002V23.2799H2.31384V23.2597L2.30777 23.2577L2.30372 23.2374L2.2936 23.2354V23.207L2.27132 23.1949V23.1665L2.2612 23.1625L2.25108 23.124H2.24095V23.0936H2.23083L2.2207 23.0511L2.21058 23.0491L2.19843 22.9904L2.18628 22.9863V22.9681L2.17616 22.9661V22.9276L2.16603 22.9256V22.9074L2.15793 22.9053V22.8689L2.14376 22.8648V22.8365L2.13364 22.8345V22.8041H2.12351L2.11136 22.7353L2.10327 22.7332L2.09112 22.6462L2.07897 22.6441V22.6057L2.07087 22.6036V22.5631H2.05872V22.5065L2.0486 22.5044L2.03645 22.3667L2.02632 22.3647L2 21.9982L2.01215 22.0003L2.02632 21.65L2.03645 21.652V21.5933L2.0486 21.5953V21.5386L2.05872 21.5406L2.06682 21.4556L2.07694 21.4596L2.07492 21.411L2.08707 21.4131L2.08504 21.3766H2.09719L2.10731 21.3098L2.11541 21.3159V21.2855H2.12554V21.2571L2.13769 21.2592V21.2227H2.14781L2.14376 21.2025L2.15793 21.2045L2.17616 21.1215L2.18628 21.1235L2.19843 21.0891L2.20653 21.0911L2.21463 21.0324L2.2288 21.0385L2.24905 20.9838L2.2612 20.9878V20.9656L2.26727 20.9696L2.2774 20.9231L2.29765 20.917L2.30777 20.8724L2.33207 20.8643L2.32802 20.8461L2.35029 20.8319V20.8097L2.35839 20.8137V20.7955H2.36851V20.7773L2.38876 20.7732L2.41306 20.7165L2.41913 20.7186L2.42926 20.6922L2.45153 20.6882V20.6679L2.47178 20.6619V20.6436L2.50418 20.6295L2.5143 20.591L2.54467 20.5829V20.5606L2.57302 20.5485V20.5282L2.62364 20.4999V20.4816L2.67628 20.4513V20.4331L2.71476 20.4128V20.3905L2.78157 20.3683V20.348L2.85244 20.3055L2.86257 20.2873L2.88281 20.2893L2.90509 20.2751L2.90306 20.2549L3.0043 20.2063V20.1881L3.08732 20.1557L3.09744 20.1395L3.11769 20.1415L3.13996 20.1172L3.16021 20.1233L3.18046 20.0969L3.20273 20.099L3.21083 20.0848L3.2412 20.0787V20.0706L3.26145 20.0747L3.2736 20.0564L3.29385 20.0625L3.30397 20.0443L3.32625 20.0483L3.5915 19.8661L3.74538 19.7061H3.75753L3.8284 19.6353H3.83852V19.6171L3.87902 19.5867L3.90939 19.5826L3.98228 19.5199L4.28195 19.3073V19.289L4.29815 19.2647L4.32043 19.2485V19.2283L4.33055 19.2303V19.2121L4.3508 19.206V19.1878L4.37307 19.1716L4.36902 19.1534L4.38927 19.1473V19.1271L4.41154 19.123V19.1028L4.43179 19.0785L4.45406 19.0724L4.50468 19.0157L4.56543 18.9509V18.9307L4.5877 18.9347L4.64237 18.9064L4.65047 18.9084V18.8902L4.68894 18.8679V18.8578L4.70919 18.8537V18.8355L4.77398 18.797L4.89344 18.6674L4.91369 18.6695L4.97849 18.6148L4.99873 18.6188L5.01493 18.5642L5.03721 18.5702L5.07973 18.5277L5.09998 18.5318L5.1101 18.5156L5.13237 18.5176L5.1506 18.4933L5.23766 18.4325L5.25791 18.4184L5.27006 18.4123L5.35308 18.3232L5.36117 18.2847L5.3713 18.2868L5.38345 18.2604L5.4037 18.2564V18.2361L5.42192 18.2321V18.2118L5.46646 18.1896L5.47456 18.1531L5.49481 18.1471L5.50494 18.1228L5.55758 18.0924V18.0742L5.6082 18.0458V18.0256L5.70944 17.9587L5.71957 17.9324L6.11238 17.5275L6.13465 17.5234L6.1549 17.4708L6.17717 17.4627L6.19539 17.408L6.20552 17.41L6.21564 17.3837L6.23589 17.3776L6.24601 17.3412L6.27639 17.329L6.28651 17.2926L6.31688 17.2784V17.2602L6.34928 17.248V17.2258L6.36953 17.2217V17.2015L6.42217 17.1731L6.41812 17.1549L6.47279 17.1245V17.1083L6.91622 16.4766L6.92837 16.4563L6.95065 16.4523L6.96077 16.4138L6.98304 16.4098L6.99317 16.3713L7.01341 16.3672V16.347L7.03366 16.3409L7.03164 16.3207L7.05189 16.3166V16.2964L7.07416 16.2923V16.2741L7.10251 16.2579V16.2417L7.1349 16.2255L7.13288 16.2073L7.18755 16.181V16.1587L7.23817 16.1324V16.1141L7.28069 16.0919L7.27866 16.0716L7.30094 16.0575L7.32119 16.0615" fill="#00B9AD"/>
<path d="M15.1427 15.6141L15.1731 15.5047L15.1933 15.5088L15.2237 15.3812L15.244 15.3711L15.2541 15.3468H15.2642L15.2764 15.3205L15.2966 15.3225L15.3391 15.2557L15.3594 15.2597L15.3978 15.1787L15.4201 15.1828L15.4606 15.0937L15.4829 15.0978L15.5254 15.0289V14.9985L15.5457 14.9945L15.5436 14.9661L15.5619 14.9601L15.574 14.9115L15.5841 14.9155V14.8953L15.6064 14.8912L15.6165 14.8325L15.6368 14.8386L15.6469 14.7718L15.6651 14.7657L15.6773 14.6908L15.6975 14.6847L15.7076 14.6078L15.7299 14.6037V14.5551L15.736 14.5571V14.5207L15.7603 14.5126L15.7684 14.3992L15.7886 14.3911L15.7866 14.3142L15.7967 14.3162V14.2878L15.8069 14.2899L15.819 14.2453L15.8291 14.2473L15.8494 14.2392L15.8595 14.1947L15.8899 14.1906L15.8878 14.1623L15.9081 14.1643L15.9223 14.1178L15.9547 14.1157L15.9506 14.0854L15.9709 14.0894L15.9931 14.0266L16.0134 14.0307L16.0255 13.974L16.0458 13.978L16.1167 13.8181L16.1369 13.8221L16.147 13.7654L16.1673 13.7695L16.1794 13.7047L16.1976 13.7087L16.2078 13.6237L16.228 13.6277L16.2584 13.4961L16.2705 13.4982L16.2807 13.403L16.2989 13.3989L16.307 13.2653L16.3313 13.2592V13.2208H16.3414L16.3698 13.16L16.392 13.1641L16.4224 13.1418L16.475 13.0345L16.4933 13.0385L16.5358 12.9474L16.556 12.9535L16.8395 12.1476L16.8517 12.1496L16.8598 12.1294H16.8699V12.1496H16.88V12.1719H16.8901V12.1901L16.9002 12.1922V12.2124L16.9124 12.2144V12.2327L16.9225 12.2347V12.2549L16.9326 12.257V12.2752L16.9428 12.2772L16.965 12.3379L16.9752 12.342L17.1655 12.67V12.6923L17.206 12.7287V12.747L17.2384 12.7713V12.7895L17.2708 12.8158V12.8361L17.291 12.8482V12.8684L17.3133 12.8806L17.3234 12.913H17.3336V12.9332L17.3558 12.9535V12.9737L17.366 12.9758V12.998L17.3882 13.0082L17.3984 13.0487L17.4064 13.0527L17.4287 13.1134L17.4409 13.1155V13.1458H17.451L17.4611 13.1843L17.4712 13.1884L17.6535 13.4394V13.4597L17.7041 13.5063V13.5265L17.7466 13.563V13.5812L17.777 13.6055V13.6237L17.7993 13.6399V13.6601L17.8296 13.6844V13.7047L17.8519 13.7148L17.862 13.7573L17.8823 13.7695L17.9046 13.8302L17.9248 13.8464L17.9349 13.8849L17.945 13.8869L17.9592 13.9274H17.9693V13.9578H17.9795L17.9916 14.0003L17.9997 14.0023L18.0098 14.0509L18.022 14.053L18.2002 14.3061V14.3263L18.2528 14.3729V14.3911L18.2852 14.4174V14.4356L18.3136 14.462V14.4802L18.3358 14.4923L18.35 14.5247L18.3601 14.5268V14.545L18.3804 14.5571L18.3905 14.5997L18.4087 14.6118L18.433 14.6746H18.4431V14.6928L18.4533 14.6948V14.7171H18.4654V14.7373L18.4755 14.7394L18.4958 14.8001L18.5059 14.8021V14.8305L18.516 14.8325V14.8507L18.5262 14.8528L18.5302 14.8811L18.5403 14.8831V14.9034L18.5505 14.9054V14.9317L18.5606 14.9358V14.9621L18.5707 14.9661V14.9945L18.5808 14.9965L18.6436 15.0937L18.6962 15.1707L18.7064 15.1727L18.7185 15.203L18.7489 15.2294V15.2456L18.7732 15.2618V15.28L18.8015 15.3043V15.3225L18.8218 15.3367L18.8339 15.3691H18.8441L18.8562 15.4096L18.8785 15.4258V15.444L18.8987 15.4663V15.4865H18.9109V15.5068L18.917 15.5088L18.919 15.529L18.9412 15.5412V15.5695L18.9514 15.5716V15.5898L18.9615 15.5938L18.9716 15.6323L18.9817 15.6343V15.6647H18.9919V15.685H19.002L19.0162 15.7376H19.0263V15.7659L19.0364 15.768L19.162 15.9927L19.2024 16.0271V16.0494L19.2369 16.0737V16.0919L19.2571 16.1061V16.1243L19.33 16.2438L19.3503 16.2559V16.2762L19.3746 16.3005V16.3167L19.3847 16.3207V16.339L19.3968 16.341V16.3633H19.407V16.3795L19.4151 16.3815L19.4373 16.4443L19.4475 16.4483L19.6256 16.6994L19.6479 16.7338H19.658V16.752L19.7026 16.7864V16.8087L19.7309 16.835V16.8533L19.7653 16.8776V16.8958L19.7856 16.912V16.9302L19.8058 16.9424L19.818 16.9727L19.8281 16.9748L19.8382 17.0173L19.8585 17.0294L19.8686 17.0699L19.9213 17.1732H19.9375L19.9354 17.1833L19.903 17.1975V17.2056L19.8848 17.2036V17.2137L19.8605 17.2076L19.8443 17.2339L19.8301 17.2319V17.2521L19.8241 17.2501L19.8079 17.2663L19.7896 17.2643L19.7795 17.2906L19.7491 17.3149L19.735 17.3109V17.323L19.7167 17.3169V17.3271L19.6864 17.3412V17.3595L19.6661 17.3676V17.3858L19.6236 17.4081L19.571 17.4465V17.4648L19.5608 17.4627V17.483L19.5305 17.4972V17.5052L19.5082 17.5032L19.4981 17.5214L19.4555 17.5235L19.3503 17.5518L19.3199 17.5741V17.5842L19.2996 17.5802V17.5883L19.2774 17.5842L19.2571 17.6105L19.2369 17.6085L19.2247 17.6227H19.2024L19.1417 17.6753L19.1215 17.6733L19.0891 17.7057L19.0587 17.7098L19.0465 17.7361L19.0162 17.7401V17.7604L18.9838 17.7847L18.9757 17.7806V17.7907L18.9433 17.7968L18.9352 17.811L18.9008 17.8069L18.8927 17.8252L18.8724 17.8211V17.8312L18.8501 17.8272V17.8353L18.8076 17.8272V17.8373L18.7428 17.8454V17.8555L18.7124 17.8495L18.7145 17.8616L18.6942 17.8555L18.6821 17.8738L18.6396 17.8758L18.5302 17.9467L18.3865 18.0155L18.1475 18.1329L18.1151 18.1552L17.9916 18.2686L17.9612 18.2909L17.8661 18.303L17.8458 18.3273L17.7507 18.3395L17.7405 18.3577H17.698L17.6798 18.384L17.6575 18.382L17.6474 18.3982L17.6029 18.4002L17.5826 18.4245L17.5421 18.4468L17.5219 18.4427V18.461L17.5016 18.4569L17.4793 18.4853L17.455 18.4792L17.4591 18.4893L17.4368 18.4853V18.4934L17.4145 18.5015L17.4166 18.5197L17.3963 18.5258V18.5359L17.3538 18.5379L17.3437 18.5521L17.1291 18.5723L17.0076 18.4184L16.9752 18.3941L16.965 18.3658L16.9205 18.3273V18.3091L16.8901 18.2807V18.2666L16.8557 18.2382V18.22L16.8355 18.2058V18.1856L16.8132 18.1734L16.8031 18.135L16.7828 18.1188L16.7727 18.0803L16.7626 18.0783L16.7524 18.0378L16.7423 18.0337V18.0175L16.7302 18.0135L16.7119 17.9932L16.7059 17.9912L16.6087 17.8616L16.5317 17.7685V17.7563L16.4872 17.7219V17.7057L16.386 17.5964V17.5781L16.3596 17.5437V17.5255L16.3394 17.5113V17.4931L16.3131 17.4789V17.4627L16.2948 17.4465V17.4283L16.2746 17.4162V17.3959L16.2523 17.3817V17.3615H16.2422L16.23 17.321L16.2098 17.3068L16.1976 17.2663H16.1895L16.149 17.2015L16.1389 17.1995V17.1691H16.1308L16.1187 17.1266L16.1065 17.1246L15.9081 16.8492V16.831L15.8575 16.7844V16.7642L15.8251 16.7399V16.7196L15.7927 16.6953V16.6771L15.7724 16.665V16.6427L15.7522 16.6305L15.738 16.6002L15.7299 16.5981L15.7076 16.5354L15.6874 16.5232L15.4768 16.1507L15.4647 16.1183L15.3816 16.0373V16.017L15.3391 15.9826V15.9623L15.2966 15.9259V15.9057L15.2764 15.8915L15.2642 15.8611H15.2541V15.8429L15.2338 15.8287V15.8085L15.2116 15.7963V15.7761L15.1933 15.7619V15.7457L15.1387 15.6688V15.6607L15.1447 15.6627L15.1427 15.6141Z" fill="#B2C23E"/>
<path d="M16.8598 12.0991V12.1113L16.8477 12.0991H16.8598Z" fill="#81BB45"/>
<path d="M15.139 15.6608H15.1309V15.6567L15.139 15.6588V15.6608Z" fill="#81BB45"/>
<path d="M15.0891 15.5757V15.5474L15.079 15.5453V15.5251L15.0689 15.5231V15.5048L15.0486 15.4907V15.4724L14.994 15.4218V15.4117L14.9636 15.3975V15.3773L14.9413 15.3753L14.9312 15.3469L14.8563 15.272V15.2517L14.8158 15.2153V15.1971L14.7712 15.1606V15.1404L14.7408 15.1141V15.0938H14.7287L14.7186 15.0634L14.6862 15.0391L14.668 14.9784L14.6437 14.9622V14.944L14.6234 14.9217V14.8994H14.6133V14.8772H14.6011V14.8589L14.591 14.8569V14.8367L14.5789 14.8346V14.8164L14.5708 14.8124L14.5485 14.7516L14.5384 14.7496V14.7212L14.5262 14.7192V14.701L14.5141 14.6949L14.3966 14.5309V14.5127L14.3784 14.4985V14.4884L14.3582 14.4843L14.346 14.4641L14.3136 14.4398V14.4175L14.2691 14.3831V14.3608L14.2265 14.3264V14.3062L14.2083 14.294L14.1962 14.2535L14.1739 14.2393V14.2191L14.1537 14.2049L14.1334 14.1442L14.1111 14.13L14.099 14.0895L14.0767 14.0753V14.047L14.0686 14.045V14.0267L14.0565 14.0247V14.0045L14.0463 14.0024V13.9842L14.0382 13.9802L14.0139 13.9194L14.0038 13.9174V13.8891L13.9937 13.887V13.8668L13.9815 13.8648L13.8216 13.5934V13.5772L13.7689 13.5286V13.5064L13.7264 13.4719L13.7163 13.4395L13.696 13.4254L13.6819 13.3869L13.6515 13.3606L13.6292 13.2978L13.609 13.2857V13.2674L13.5887 13.2411V13.2249L13.5746 13.2209V13.2006H13.5685V13.1824L13.5584 13.1783V13.1601L13.5462 13.1581L13.5239 13.0953L13.5118 13.0933L13.5017 13.0326H13.4915L13.4814 13.0103L13.4713 12.9779L13.4045 12.8503L13.3721 12.7977L13.3518 12.7957V12.7855L13.3215 12.7592V12.739L13.2972 12.7248V12.7066L13.2648 12.6802V12.664L13.2465 12.66L13.2344 12.6276L13.2243 12.6256L13.2141 12.5952L13.1919 12.581L13.1797 12.5405L13.1514 12.5142L13.1311 12.4535L13.1068 12.4393V12.4211L13.0846 12.3968V12.3785H13.0765V12.3563H13.0663V12.336L13.0542 12.332L13.0522 12.3117H13.0441V12.2935L13.0339 12.2915L13.0096 12.2287H12.9995V12.2004L12.9894 12.1963V12.168L12.9793 12.1659V12.1356H12.9671V12.1052H12.957V12.0769L12.9469 12.0728V12.0445L12.9388 12.0404L12.9347 12.0121L12.9266 12.01L12.9226 11.9736L12.9124 11.9695V11.9311L12.9023 11.929L12.9003 11.8926L12.8922 11.8906L12.8801 11.7731L12.8679 11.7691L12.8558 11.5727H12.8477L12.8537 11.352L12.8659 11.354L12.8821 11.1637L12.9833 10.866H12.9934L13.0157 10.8113L13.0258 10.8134V10.7952L13.036 10.7972V10.7769L13.0461 10.779V10.7628H13.0582V10.7445H13.0684V10.7263L13.0886 10.7101L13.0846 10.6899L13.1068 10.6818L13.1311 10.6311L13.1595 10.617L13.1676 10.5805L13.1898 10.5744L13.2 10.5481H13.2121L13.2222 10.5218L13.2445 10.5279L13.2648 10.4914L13.2708 10.4935V10.4732L13.3235 10.4266L13.3458 10.4307V10.4185L13.366 10.4145V10.3942L13.3984 10.3922V10.372L13.4389 10.3618L13.4915 10.3112L13.5098 10.3153V10.3072L13.5644 10.2869L13.5624 10.2687L13.5928 10.2626V10.2545L13.6272 10.2505L13.6333 10.2343L13.6778 10.2302L13.7001 10.208L13.7608 10.1978L13.773 10.1796L13.7912 10.1857L13.8135 10.1695L13.8358 10.1735V10.1634L13.856 10.1675V10.1573L13.8763 10.1614L13.8864 10.1452L13.9289 10.1411V10.1351L13.9876 10.1249V10.1148L14.022 10.1209L14.6518 10.1128L14.9879 10.1857V10.1918L15.1013 10.2242L15.3442 10.3375L15.407 10.3578V10.3679L15.4273 10.372V10.3821L15.5224 10.4287L15.5325 10.4509L15.5528 10.455L15.5751 10.4773L15.5973 10.4813V10.4914L15.6176 10.4935L15.6297 10.5157L15.65 10.5198V10.5299L15.6682 10.5319L15.6945 10.5582L15.7128 10.5603V10.5704L15.7452 10.5846L15.7553 10.6068L15.8201 10.6372L15.8302 10.6595L15.8626 10.6737V10.6818L15.8909 10.7V10.7162L15.9436 10.7587V10.7668L15.9679 10.7709L16.0205 10.8377L16.063 10.866V10.8842L16.0833 10.8883L16.0934 10.9187L16.1683 10.9916V11.0118L16.1987 11.0361V11.0543L16.2311 11.0806V11.0989L16.2534 11.113L16.2635 11.1454L16.306 11.1799V11.2001L16.3404 11.2264L16.3607 11.2872L16.3809 11.3014V11.3216L16.4032 11.3439V11.3621L16.4113 11.3641V11.3844L16.4235 11.3864V11.4046L16.4356 11.4087V11.4269L16.4437 11.4289V11.4492H16.4579L16.4883 11.514L16.6806 11.848V11.8663L16.6907 11.8703L16.713 11.9027L16.7454 11.927V11.9473L16.7657 11.9614V11.9817L16.7981 12.004L16.8082 12.0465L16.8385 12.0708L16.8487 12.0951V12.0991L16.8608 12.1113V12.1295L16.8527 12.1497L16.8406 12.1477L16.5571 12.9536L16.5369 12.9475L16.4943 13.0386L16.4761 13.0346L16.4235 13.1419L16.3 13.399L16.2817 13.4031L16.2716 13.4983L16.2595 13.4962L16.2291 13.6279L16.2088 13.6238L16.1987 13.7088L16.1805 13.7048L16.1683 13.7696L16.1481 13.7655L16.138 13.8222L16.1177 13.8182L16.0469 13.9781L16.0266 13.9741L16.0145 14.0308L15.9942 14.0267L15.9719 14.0895L15.9557 14.1158L15.9092 14.1644L15.8909 14.1907L15.7897 14.3912L15.7614 14.5127L15.7371 14.5208V14.5572L15.731 14.5552V14.6038L15.7087 14.6079L15.6986 14.6848L15.6783 14.6909L15.6662 14.7658L15.648 14.7719L15.6378 14.8387L15.6176 14.8326L15.6075 14.8913L15.5852 14.8954V14.9156L15.5751 14.9116L15.5629 14.9602L15.5447 14.9662L15.5467 14.9946L15.5265 14.9986V15.029L15.484 15.0979L15.4617 15.0938L15.4212 15.1829L15.3989 15.1789L15.3604 15.2598L15.1944 15.5089L15.1438 15.6142L15.1458 15.6628L15.1397 15.6608V15.6587L15.1316 15.6567L15.1013 15.5777L15.0891 15.5757Z" fill="#009194"/>
<path d="M23.5396 19.781L23.5456 19.7912L23.5294 19.7871L23.5254 19.775L23.5396 19.7729V19.781Z" fill="#81BB45"/>
<path d="M25.544 16.7196L25.5541 16.7216V16.7439L25.5156 16.6953L25.544 16.7196Z" fill="#81BB45"/>
<path d="M23.4841 19.7306L23.476 19.6901L23.4436 19.6658L23.4335 19.6152L23.4233 19.6132L23.3788 19.5464L23.2431 19.4532V19.433L23.2107 19.4188L23.2006 19.3965L23.1763 19.3945L23.1459 19.35L23.1237 19.3459L23.0731 19.2852L23.0488 19.2528L23.0305 19.2487L22.9961 19.1941L22.9759 19.192L22.9232 19.1151L22.9111 19.111V19.0908L22.8463 19.0321V19.0139L22.8281 18.9977V18.9774L22.8058 18.9653V18.947L22.7633 18.9268L22.6863 18.7608L22.6681 18.7547L22.577 18.5563L22.5567 18.5401V18.5218L22.5466 18.5198L22.5365 18.4591L22.5243 18.457V18.4287L22.5142 18.4267V18.3983L22.5041 18.3963V18.3679L22.494 18.3659L22.4919 18.3254H22.4838L22.4697 18.2627L22.4595 18.2606V18.2424L22.4494 18.2384V18.2019L22.4393 18.1999L22.4373 18.1412L22.4271 18.1391L22.4251 18.0885H22.417L22.415 18.0096L22.4049 18.0075L22.249 17.477L22.2388 17.3778L22.2287 17.3758V17.3555H22.2186L22.2166 17.2867L22.1943 17.2705V17.1672L22.172 17.1551L22.168 16.8493L22.1902 16.8473V16.736L22.2105 16.742L22.2186 16.6489H22.2287V16.6104L22.2388 16.6124V16.5618L22.2591 16.5578V16.5193L22.2814 16.5153L22.2915 16.4484L22.3138 16.4525L22.3401 16.3492L22.3623 16.3533V16.3249L22.3826 16.329L22.4676 16.1994L22.4879 16.2034L22.5203 16.1407L22.5405 16.1447V16.1245L22.5608 16.1265L22.6134 16.0597L22.6316 16.0637V16.0435L22.6681 16.0516L22.6985 16.0273L22.6944 16.009L22.7167 16.0131V15.9929L22.7369 15.9969L22.7592 15.9726L22.7774 15.9746L22.7896 15.9584L22.82 15.9524V15.9341L22.8726 15.9058L22.9678 15.8936V15.8754L23.0731 15.8673V15.845L23.1662 15.8329L23.2006 15.841V15.8309L23.2209 15.8329V15.8228L23.2593 15.8309L23.2735 15.8147L23.3869 15.8268L23.395 15.8086L23.4922 15.8268L23.5043 15.8086L23.6704 15.841L23.6947 15.8329L23.9761 15.8977V15.9179L24.211 15.9888V16.009L24.2636 16.0171V16.0374L24.4358 16.09L24.8488 16.3128L24.9197 16.3533V16.3634L24.9622 16.3715L24.9723 16.3897L25.0148 16.3998V16.41L25.0452 16.416V16.4241L25.0796 16.4302V16.4424L25.1222 16.4484V16.4586L25.27 16.5233V16.5436L25.4785 16.661V16.6793L25.517 16.6955L25.5555 16.7441V16.7501L25.5777 16.7562L25.5879 16.8068H25.6V16.8473L25.6081 16.8493V16.8655L25.6223 16.8696V16.9H25.6324V16.9425H25.6425V16.9607L25.6527 16.9627V17.0113L25.6749 17.0235L25.677 17.0943L25.6972 17.1085V17.1976L25.7175 17.2057L25.7195 17.3717L25.7438 17.5054L25.7336 17.4993V17.5398L25.7235 17.5378V17.7058L25.7033 17.7099V17.7969L25.6851 17.801V17.8698L25.6628 17.8759V17.9265L25.6527 17.9245V17.9427L25.6425 17.9407V17.9792L25.6344 17.9772V17.9974L25.6243 17.9954L25.6122 18.0622L25.602 18.0581L25.5939 18.1047L25.5717 18.1027V18.1412L25.5514 18.1371V18.1756L25.5291 18.1715L25.5109 18.2363L25.4886 18.2323L25.4704 18.2849L25.438 18.2991V18.3295L25.3955 18.3801L25.3732 18.376L25.3753 18.3943L25.355 18.3922V18.4125L25.3368 18.4064L25.2598 18.4996L25.2396 18.4975V18.5158L25.1444 18.5563V18.5745L25.0817 18.5927V18.6129L24.9055 18.7446L24.8832 18.7405L24.8853 18.7709L24.865 18.7749V18.7952L24.8306 18.8094V18.8255L24.7982 18.8417V18.86L24.7597 18.8822L24.7395 18.9065V18.9268L24.7192 18.9227L24.6767 18.9632L24.6666 18.9612V18.9815L24.6342 18.9936L24.6241 19.0118L24.6038 19.0078L24.2697 19.2548L24.2596 19.2528L24.2495 19.2811L24.2292 19.2872V19.3054L24.209 19.3115V19.3318L24.1867 19.3378V19.356L24.1543 19.3702V19.3925L24.1239 19.4026L24.1138 19.431L24.0713 19.4532L24.0085 19.4998L24.0105 19.518L23.9761 19.5241L23.9154 19.5808L23.8951 19.5747L23.883 19.5929L23.8627 19.5869L23.8344 19.6213L23.8 19.6253L23.7878 19.6436L23.7716 19.6395L23.7574 19.6557L23.7392 19.6537L23.7291 19.6699L23.7088 19.6658V19.676L23.6785 19.68L23.6663 19.6982L23.6441 19.6942L23.6238 19.7185L23.6036 19.7144L23.5469 19.7711L23.5509 19.7914H23.5469L23.5408 19.7813V19.7732L23.5266 19.7752L23.4983 19.7327L23.4841 19.7306Z" fill="#59B35A"/>
<path d="M17.1271 18.5763L17.123 18.5723H17.1291L17.1332 18.5763H17.1271Z" fill="#81BB45"/>
<path d="M17.3537 18.5381L17.3963 18.536V18.5259L17.4165 18.5198L17.4145 18.5016L17.4367 18.4935V18.4854L17.459 18.4895L17.455 18.4793L17.4793 18.4854L17.5015 18.4571L17.5218 18.4611V18.4429L17.542 18.4469L17.5825 18.4247L17.6028 18.4004L17.6473 18.3983L17.6575 18.3821L17.6797 18.3842L17.6979 18.3578H17.7405L17.7506 18.3396L17.8458 18.3275L17.866 18.3032L17.9612 18.291L17.9915 18.2688L18.1151 18.1554L18.1475 18.1331L18.3358 18.0217L18.3702 18.0278V18.0096L18.5139 17.9407L18.6395 17.8759L18.682 17.8739L18.6942 17.8557L18.7144 17.8618L18.7124 17.8496L18.7427 17.8557V17.8456L18.8075 17.8375V17.8274L18.8501 17.8355V17.8274L18.8723 17.8314V17.8213L18.8926 17.8253L18.9007 17.8071L18.9351 17.8112L18.9432 17.797L18.9756 17.7909V17.7808L18.9837 17.7848L19.0161 17.7605V17.7403L19.0465 17.7362L19.0586 17.7099L19.089 17.7059L19.1214 17.6735L19.1416 17.6755L19.2024 17.6228H19.2247L19.2368 17.6087L19.257 17.6107L19.2773 17.5844L19.2996 17.5884V17.5803L19.3198 17.5844V17.5743L19.3502 17.552L19.4555 17.5236L19.6235 17.4082L19.6661 17.3859V17.3677L19.6863 17.3596V17.3414L19.7167 17.3272V17.3171L19.7349 17.3232V17.311L19.7491 17.3151L19.7794 17.2908L19.7896 17.2645L19.8078 17.2665L19.824 17.2503L19.8301 17.2523V17.2321L19.8442 17.2341L19.8604 17.2078L19.8847 17.2138V17.2037L19.903 17.2057V17.1976L19.9354 17.1835L19.9374 17.1733H19.9455V17.1754V17.1976L19.99 17.224V17.2422L20.073 17.307V17.3272L20.0953 17.3292V17.3495L20.1176 17.3556V17.3718L20.1378 17.3778L20.1399 17.3961L20.1601 17.4021L20.2107 17.4872L20.233 17.4912L20.2573 17.5419L20.2796 17.55V17.5662L20.2978 17.5702L20.3727 17.6897L20.5246 17.8557V17.8759L20.5651 17.8921V17.9104L20.6177 17.9407V17.959L20.638 17.963V17.9833L20.6602 17.9873L20.6623 18.0076L20.7149 18.0643L20.7372 18.0683V18.0886L20.7574 18.0926V18.1108L20.7777 18.1149L20.8526 18.2364L20.8749 18.2384V18.2607L20.8951 18.2627V18.291L20.9154 18.2971L21.1928 18.6089V18.6292L21.215 18.6332L21.2474 18.6859L21.2677 18.6899L21.2697 18.7122L21.2899 18.7162L21.3223 18.7689L21.3426 18.7709V18.7932L21.3628 18.7952L21.3973 18.8701L21.4195 18.8742V18.8964L21.4398 18.8985L21.4722 18.9693L21.4924 18.9754V19.0038L21.5127 19.0078L21.5248 19.0382L21.535 19.0402L21.5471 19.0908L21.5673 19.105V19.1253L21.5896 19.1394V19.1678L21.6119 19.1799L21.622 19.2427L21.6443 19.2528V19.2953H21.6524L21.6645 19.346L21.6868 19.35L21.699 19.4492L21.7091 19.4533V19.4715H21.7192V19.5302L21.7415 19.5444L21.7962 19.7307L21.8184 19.7327L21.8387 19.8157L21.8589 19.8177L21.8731 19.8886L21.8933 19.8927L21.9055 19.9919L21.9257 19.9979L21.9602 20.3401H21.95L21.9541 20.494L21.9419 20.492V20.5608L21.9318 20.5588V20.6175L21.9136 20.6216L21.9055 20.6985L21.8832 20.6945L21.8326 20.8484L21.8083 20.8443L21.7293 20.9881L21.7071 20.9921L21.6949 20.9901L21.6969 21.0184L21.6747 21.0164V21.0265L21.6342 21.0488L21.6018 21.0691L21.6058 21.0994L21.5289 21.1217V21.1399L21.5248 21.1379L21.5208 21.142H21.5188L21.5005 21.1521H21.4924L21.4742 21.1663L21.454 21.1642V21.1723L21.4317 21.1683V21.1784L21.4114 21.1744L21.4013 21.1926L21.3385 21.2007L21.3264 21.2169L21.3082 21.2128L21.298 21.231L21.2434 21.2614L21.215 21.2594V21.2796L21.0267 21.2918V21.31L20.8242 21.2938V21.3039L20.804 21.2999V21.308L20.6683 21.2857L20.2897 21.1744V21.1541L20.2047 21.1318L20.1945 21.1096L20.1702 21.1055V21.0934L20.1176 21.0853V21.0731L20.0852 21.0691V21.0589L19.9819 21.0427L19.9718 21.0205L19.8544 20.9982L19.8442 20.9779L19.7693 20.9617V20.9536L19.7288 20.9455V20.9354L19.6985 20.9293V20.9192L19.6418 20.9111L19.6316 20.8889L19.579 20.8767V20.8605L19.5365 20.8504L19.5263 20.8301L19.4535 20.8079V20.7876L19.4089 20.7795V20.7593L19.3664 20.7431V20.735L19.334 20.7248V20.7167L19.2834 20.6884V20.6682L19.2489 20.6621V20.6439L19.0809 20.494L19.0606 20.492V20.4717L19.006 20.413L18.9837 20.411V20.3908L18.9655 20.3867V20.3685L18.761 20.2045L18.7184 20.1741L18.7103 20.1559L18.6881 20.1498V20.1417L18.6658 20.1377V20.1296L18.6233 20.0931L18.4836 19.9979V19.9797L18.4653 19.9757V19.9534L18.433 19.9493V19.9291L18.4087 19.925V19.9068L18.2953 19.7793L18.273 19.7752V19.755L18.0685 19.5444V19.5241L18.03 19.516V19.4978L17.9956 19.4796V19.4715L17.9753 19.4674L17.9632 19.4472L17.9328 19.4391L17.9207 19.4188L17.8478 19.3763V19.3561L17.8275 19.352V19.3318L17.7729 19.3034V19.2852L17.7526 19.2791L17.7506 19.2589L17.6656 19.1961V19.1759L17.6433 19.1738L17.5927 19.0868L17.5704 19.0807V19.0625L17.5501 19.0584L17.5258 19.0058L17.5056 19.0017V18.9835L17.4853 18.9774V18.9511L17.4651 18.9349V18.9167L17.455 18.9147L17.4327 18.862L17.4084 18.858V18.8296L17.3882 18.8236L17.3558 18.7912L17.3456 18.7689V18.7608L17.3153 18.7527V18.7324L17.2282 18.6798V18.6616L17.1452 18.6049V18.5867L17.127 18.5765H17.133L17.129 18.5725L17.3436 18.5522L17.3537 18.5381Z" fill="#5CA038"/>
</g>
<defs>
<clipPath id="clip0_94_12588">
<rect width="29.3333" height="18.2232" fill="white" transform="translate(2 7.05518)"/>
</clipPath>
</defs>
</svg>
