<svg width="33" height="33" viewBox="0 0 33 33" fill="none" xmlns="http://www.w3.org/2000/svg">
<g clip-path="url(#clip0_94_12540)">
<path d="M29.5596 13.2786H30.3154C30.3393 13.2786 30.3622 13.2691 30.3791 13.2522C30.396 13.2354 30.4055 13.2125 30.4055 13.1886V11.7636C30.4055 11.7519 30.4031 11.7403 30.3986 11.7294C30.394 11.7186 30.3874 11.7088 30.379 11.7006C30.3706 11.6923 30.3607 11.6859 30.3498 11.6815C30.3388 11.6772 30.3272 11.6751 30.3154 11.6753H29.2539C28.026 11.6753 27.3755 12.0676 27.0035 12.9016L24.6954 18.5556C24.649 18.7114 24.55 18.8463 24.4153 18.9374C24.2806 19.0284 24.1185 19.0699 23.9566 19.0549V11.7636C23.9566 11.7519 23.9542 11.7403 23.9497 11.7294C23.9451 11.7186 23.9385 11.7088 23.9301 11.7006C23.9217 11.6923 23.9118 11.6859 23.9009 11.6815C23.89 11.6772 23.8783 11.6751 23.8666 11.6753H22.1681C22.1564 11.6751 22.1447 11.6772 22.1338 11.6815C22.1229 11.6859 22.113 11.6923 22.1046 11.7006C22.0962 11.7088 22.0895 11.7186 22.085 11.7294C22.0805 11.7403 22.0781 11.7519 22.0781 11.7636V20.502C22.0786 20.5436 22.0954 20.5833 22.125 20.6126C22.1546 20.6418 22.1945 20.6582 22.2361 20.6582H24.14C25.3663 20.6582 25.9284 20.2659 26.2987 19.432L28.578 13.8476C28.7614 13.4519 29.0246 13.2786 29.5596 13.2786Z" fill="#D71920"/>
<path d="M8.82595 16.1676C9.50531 15.884 10.0692 15.2471 10.0692 14.194C10.0692 12.6264 8.72404 11.6753 7.10206 11.6753H2.08833C2.06491 11.6753 2.04245 11.6846 2.02588 11.7012C2.00932 11.7177 2.00002 11.7402 2.00002 11.7636V13.1886C1.99979 13.2003 2.00191 13.212 2.00625 13.2229C2.01058 13.2338 2.01705 13.2438 2.02528 13.2521C2.0335 13.2605 2.04331 13.2672 2.05414 13.2717C2.06497 13.2763 2.07659 13.2786 2.08833 13.2786H6.75558C7.50798 13.2786 8.0175 13.7389 8.0175 14.2976C8.0175 14.8564 7.50798 15.3252 6.75558 15.3252H3.98207V14.2705C3.9823 14.2586 3.98013 14.2468 3.97569 14.2358C3.97124 14.2247 3.96462 14.2147 3.95622 14.2063C3.94781 14.1979 3.9378 14.1913 3.92677 14.1868C3.91574 14.1824 3.90394 14.1802 3.89205 14.1805H2.08833C2.07659 14.1805 2.06497 14.1828 2.05414 14.1873C2.04331 14.1919 2.0335 14.1985 2.02528 14.2069C2.01705 14.2153 2.01058 14.2252 2.00625 14.2362C2.00191 14.2471 1.99979 14.2587 2.00002 14.2705V20.5665C2.00002 20.5899 2.00932 20.6124 2.02588 20.6289C2.04245 20.6455 2.06491 20.6548 2.08833 20.6548H7.03072C8.8786 20.6548 10.2017 19.7937 10.2017 18.0359C10.2054 17.6175 10.0734 17.2092 9.82531 16.8723C9.57724 16.5355 9.22656 16.2882 8.82595 16.1676ZM6.85239 19.094H3.98207V16.9879H6.85239C7.62347 16.9879 8.14658 17.4601 8.14658 18.041C8.14658 18.6218 7.62347 19.094 6.85239 19.094Z" fill="#D71920"/>
<path d="M31.3164 20.5547L28.407 16.8351C28.4058 16.833 28.4041 16.8312 28.402 16.83C28.3999 16.8288 28.3975 16.8281 28.3951 16.8281C28.3927 16.8281 28.3903 16.8288 28.3882 16.83C28.3861 16.8312 28.3844 16.833 28.3832 16.8351L27.6002 18.7509C27.5973 18.7564 27.5957 18.7626 27.5957 18.7688C27.5957 18.775 27.5973 18.7811 27.6002 18.7866L28.8723 20.485C28.9091 20.5406 28.9599 20.5856 29.0195 20.6154C29.0791 20.6452 29.1455 20.6588 29.212 20.6549H31.2603C31.2727 20.6569 31.2854 20.655 31.2966 20.6495C31.3079 20.6441 31.3172 20.6353 31.3233 20.6243C31.3295 20.6134 31.3321 20.6009 31.3308 20.5884C31.3296 20.5759 31.3245 20.5642 31.3164 20.5547V20.5547Z" fill="#D71920"/>
<path d="M13.3861 14.1836H11.6877C11.6638 14.1836 11.6409 14.1931 11.624 14.21C11.6071 14.2268 11.5977 14.2497 11.5977 14.2736V20.5696C11.5977 20.5814 11.6 20.593 11.6045 20.6038C11.6091 20.6147 11.6157 20.6245 11.6241 20.6327C11.6325 20.6409 11.6424 20.6474 11.6534 20.6517C11.6643 20.6561 11.6759 20.6582 11.6877 20.658H13.3861C13.4097 20.658 13.4323 20.6487 13.4491 20.6322C13.466 20.6157 13.4757 20.5932 13.4761 20.5696V14.2702C13.4752 14.2469 13.4654 14.2249 13.4486 14.2087C13.4318 14.1926 13.4094 14.1836 13.3861 14.1836V14.1836Z" fill="#D71920"/>
<path d="M20.3753 11.6753H18.6769C18.6653 11.6753 18.6538 11.6776 18.6431 11.682C18.6324 11.6865 18.6227 11.693 18.6145 11.7012C18.6063 11.7094 18.5997 11.7191 18.5953 11.7298C18.5909 11.7405 18.5886 11.752 18.5886 11.7636V19.0549C18.4267 19.0699 18.2646 19.0284 18.1299 18.9374C17.9952 18.8463 17.8962 18.7114 17.8498 18.5556L15.5382 12.9016C15.168 12.0676 14.5192 11.6753 13.2895 11.6753H11.6896C11.6779 11.6751 11.6662 11.6772 11.6553 11.6815C11.6444 11.6859 11.6345 11.6923 11.6261 11.7006C11.6177 11.7088 11.611 11.7186 11.6065 11.7294C11.6019 11.7403 11.5996 11.7519 11.5996 11.7636V13.1886C11.5996 13.2125 11.6091 13.2354 11.626 13.2522C11.6429 13.2691 11.6658 13.2786 11.6896 13.2786H12.9821C13.5188 13.2786 13.7804 13.4485 13.9638 13.8476L16.2431 19.432C16.615 20.2659 17.1755 20.6582 18.4035 20.6582H20.3057C20.3473 20.6582 20.3872 20.6418 20.4168 20.6126C20.4464 20.5833 20.4632 20.5436 20.4636 20.502V11.7636C20.4636 11.7402 20.4543 11.7177 20.4378 11.7012C20.4212 11.6846 20.3987 11.6753 20.3753 11.6753V11.6753Z" fill="#D71920"/>
</g>
<defs>
<clipPath id="clip0_94_12540">
<rect width="29.3333" height="8.98292" fill="white" transform="translate(2 11.6753)"/>
</clipPath>
</defs>
</svg>
