<svg width="33" height="33" viewBox="0 0 33 33" fill="none" xmlns="http://www.w3.org/2000/svg">
<g clip-path="url(#clip0_94_12566)">
<path d="M10.6111 22.6402L10.5548 22.6925C10.196 23.0934 9.75956 23.4174 9.27185 23.6446C8.78414 23.8719 8.25537 23.9978 7.71757 24.0147C5.61171 24.0147 4.08053 22.4312 4.08053 20.249C4.08053 18.0668 5.61171 16.4874 7.71757 16.4874C8.25537 16.5043 8.78414 16.6302 9.27185 16.8574C9.75956 17.0847 10.196 17.4086 10.5548 17.8096L10.6111 17.8659L11.9655 16.2222L11.9293 16.182C11.4381 15.5547 10.8085 15.0495 10.0898 14.7058C9.371 14.3621 8.5825 14.1893 7.78588 14.2007C6.20657 14.1662 4.67238 14.7288 3.48976 15.7761C2.32061 16.9722 1.66602 18.5784 1.66602 20.251C1.66602 21.9237 2.32061 23.5299 3.48976 24.726C4.67134 25.775 6.20624 26.3379 7.78588 26.3014C8.58207 26.3127 9.37015 26.1402 10.0888 25.7972C10.8074 25.4543 11.4372 24.9502 11.9293 24.3241L11.9655 24.2799L10.6111 22.6402Z" fill="#004785"/>
<path d="M15.7312 14.3779H13.3359V26.0687H15.7312V14.3779Z" fill="#004785"/>
<path d="M25.1113 23.5203C24.5872 23.8752 23.9752 24.0783 23.343 24.1071C22.5674 24.1071 22.2217 23.7052 22.2217 22.7889V16.5879H24.6612V14.3856H22.2217V10.7485L19.8707 12.0024V14.3856H17.8613V16.5879H19.8707V23.1868C19.8707 24.9832 20.9357 26.2089 22.5272 26.2411C23.2734 26.2799 24.014 26.0937 24.6531 25.7066H24.6772L25.272 23.444L25.1113 23.5203Z" fill="#004785"/>
<path d="M29.4889 14.3779H27.0938V26.0687H29.4889V14.3779Z" fill="#004785"/>
<path d="M30.8994 12.3245C29.8274 10.7964 28.403 9.54894 26.7469 8.68775C25.0908 7.82656 23.2516 7.37695 21.3849 7.37695C19.5182 7.37695 17.679 7.82656 16.0229 8.68775C14.3667 9.54894 12.9424 10.7964 11.8703 12.3245L11.7578 12.4812H14.5107L14.5428 12.4491C15.4211 11.5152 16.4812 10.7709 17.6578 10.2622C18.8345 9.75349 20.1029 9.49105 21.3849 9.49105C22.6668 9.49105 23.9352 9.75349 25.1119 10.2622C26.2886 10.7709 27.3487 11.5152 28.2269 12.4491L28.2591 12.4812H31.012L30.8994 12.3245Z" fill="#ED1C2E"/>
</g>
<defs>
<clipPath id="clip0_94_12566">
<rect width="29.3333" height="18.9125" fill="white" transform="translate(1.66602 7.37695)"/>
</clipPath>
</defs>
</svg>
