<svg width="33" height="33" viewBox="0 0 33 33" fill="none" xmlns="http://www.w3.org/2000/svg">
<g clip-path="url(#clip0_94_12460)">
<path d="M21.8639 3.65918L16.6673 6.27267L11.4707 3.65918L16.6673 13.5357L21.8639 3.65918Z" fill="#FFB71B"/>
<path d="M23.7174 11.2593L27.4249 9.7094V4.48242L20.9824 7.24787L17.3964 13.9943C18.7759 14.1533 20.0424 14.834 20.9363 15.8967C21.8302 16.9594 22.2838 18.3238 22.2041 19.7102C22.1245 21.0966 21.5176 22.4001 20.5079 23.3535C19.4982 24.3068 18.1621 24.838 16.7734 24.838C15.3847 24.838 14.0486 24.3068 13.0389 23.3535C12.0292 22.4001 11.4223 21.0966 11.3427 19.7102C11.263 18.3238 11.7166 16.9594 12.6105 15.8967C13.5043 14.834 14.7708 14.1533 16.1504 13.9943L12.5645 7.24787L6.15234 4.48242V9.7094L9.9206 11.2593C8.28629 12.6878 7.12676 14.581 6.59676 16.6859C6.06676 18.7909 6.19151 21.0074 6.95446 23.0395C7.71741 25.0717 9.08221 26.8227 10.8666 28.0588C12.6509 29.2948 14.7699 29.9571 16.9405 29.9571C19.1112 29.9571 21.2302 29.2948 23.0145 28.0588C24.7989 26.8227 26.1637 25.0717 26.9266 23.0395C27.6896 21.0074 27.8144 18.7909 27.2844 16.6859C26.7544 14.581 25.5948 12.6878 23.9605 11.2593H23.7174Z" fill="#FFB71B"/>
</g>
<defs>
<clipPath id="clip0_94_12460">
<rect width="21.3333" height="26.3476" fill="white" transform="translate(6 3.65918)"/>
</clipPath>
</defs>
</svg>
