<svg width="32" height="33" viewBox="0 0 32 33" fill="none" xmlns="http://www.w3.org/2000/svg">
<g clip-path="url(#clip0_94_12481)">
<path d="M30.4548 16.4961C30.4561 19.3672 29.6059 22.1742 28.0116 24.5619C26.4174 26.9497 24.1507 28.811 21.4985 29.9103C18.8462 31.0096 15.9274 31.2976 13.1115 30.7378C10.2955 30.178 7.70881 28.7956 5.67866 26.7654C3.6485 24.7353 2.26609 22.1486 1.70629 19.3326C1.14649 16.5166 1.43447 13.5979 2.53379 10.9456C3.63312 8.29336 5.49437 6.02671 7.88213 4.43245C10.2699 2.83819 13.0769 1.98794 15.9479 1.98926C19.7949 1.99102 23.4837 3.51999 26.2039 6.24018C28.9241 8.96036 30.4531 12.6492 30.4548 16.4961V16.4961Z" fill="white"/>
<path d="M15.9481 30.3171C18.6817 30.3171 21.3539 29.5065 23.6267 27.9878C25.8996 26.4691 27.6711 24.3106 28.7172 21.7851C29.7633 19.2596 30.037 16.4806 29.5037 13.7996C28.9704 11.1185 27.6541 8.65585 25.7211 6.72293C23.7882 4.79001 21.3255 3.47367 18.6445 2.94038C15.9634 2.40709 13.1845 2.68079 10.659 3.72688C8.13349 4.77298 5.97494 6.54447 4.45626 8.81735C2.93757 11.0902 2.12695 13.7624 2.12695 16.496C2.12695 20.1616 3.58311 23.677 6.17508 26.269C8.76705 28.861 12.2825 30.3171 15.9481 30.3171V30.3171Z" fill="#0083CA"/>
<mask id="mask0_94_12481" style="mask-type:alpha" maskUnits="userSpaceOnUse" x="2" y="2" width="28" height="29">
<path d="M15.9481 30.3171C18.6817 30.3171 21.3539 29.5065 23.6267 27.9878C25.8996 26.4691 27.6711 24.3106 28.7172 21.7851C29.7633 19.2596 30.037 16.4806 29.5037 13.7996C28.9704 11.1185 27.6541 8.65585 25.7211 6.72293C23.7882 4.79001 21.3255 3.47367 18.6445 2.94038C15.9634 2.40709 13.1845 2.68079 10.659 3.72688C8.13349 4.77298 5.97494 6.54447 4.45626 8.81735C2.93757 11.0902 2.12695 13.7624 2.12695 16.496C2.12695 20.1616 3.58311 23.677 6.17508 26.269C8.76705 28.861 12.2825 30.3171 15.9481 30.3171V30.3171Z" fill="#0083CA"/>
</mask>
<g mask="url(#mask0_94_12481)">
<path d="M15.994 23.1732C22.0657 23.1732 27.272 24.8643 29.5023 27.261C30.2736 25.4976 30.6703 23.5933 30.6674 21.6686C30.6674 17.7788 29.1221 14.0483 26.3716 11.2977C23.621 8.54719 19.8905 7.00195 16.0007 7.00195C12.1108 7.00195 8.38031 8.54719 5.62978 11.2977C2.87924 14.0483 1.334 17.7788 1.334 21.6686C1.33123 23.5926 1.72561 25.4964 2.49243 27.261C4.71607 24.8643 9.91564 23.1732 15.994 23.1732Z" fill="#0083CA"/>
<path d="M15.994 23.1876C22.0524 23.1876 27.2453 24.8653 29.469 27.2487C30.235 25.4979 30.6294 23.6073 30.6274 21.6963C30.6274 13.8337 24.0697 7.44238 15.9807 7.44238C7.89172 7.44238 1.334 13.8337 1.334 21.6963C1.33136 23.6073 1.72585 25.4981 2.49243 27.2487C4.7427 24.8653 9.91564 23.1876 15.994 23.1876Z" fill="#0085CB"/>
<path d="M15.9938 23.2002C22.0323 23.2002 27.2119 24.8712 29.4289 27.228C30.194 25.4934 30.5885 23.6181 30.5873 21.7222C30.5873 13.9195 24.0429 7.56152 15.9938 7.56152C7.94482 7.56152 1.40041 13.9262 1.40041 21.7222C1.3976 23.6183 1.79224 25.4939 2.55884 27.228C4.76916 24.8712 9.94876 23.2002 15.9938 23.2002Z" fill="#0086CC"/>
<path d="M15.9875 23.2194C22.0126 23.2194 27.1855 24.8705 29.3959 27.2139C30.1574 25.5039 30.552 23.6533 30.5543 21.7814C30.5543 14.0452 24.0298 7.71387 15.9941 7.71387C7.95843 7.71387 1.4473 14.0452 1.4473 21.7814C1.44298 23.6618 1.83546 25.5221 2.59907 27.2406C4.79607 24.8705 9.96235 23.2194 15.9875 23.2194Z" fill="#0088CC"/>
<path d="M15.9882 23.2331C21.98 23.2331 27.1529 24.8708 29.3566 27.1943C30.1188 25.4918 30.5113 23.6471 30.5084 21.7817C30.5084 14.1055 24.0039 7.80078 15.9882 7.80078C7.97242 7.80078 1.47462 14.0989 1.47462 21.7817C1.47197 23.6463 1.86214 25.4906 2.61973 27.1943C4.82339 24.8708 9.97636 23.2331 15.9882 23.2331Z" fill="#0089CD"/>
<path d="M15.9877 23.2468C21.9795 23.2468 27.1192 24.8713 29.3029 27.1748C30.0596 25.4872 30.4499 23.6583 30.448 21.8088C30.448 14.1925 23.9568 7.92773 15.9677 7.92773C7.97863 7.92773 1.49415 14.1992 1.49415 21.8088C1.49255 23.6576 1.88045 25.486 2.63259 27.1748C4.84956 24.8713 9.99588 23.2468 15.9877 23.2468Z" fill="#008BCE"/>
<path d="M15.9867 23.2663C21.9786 23.2663 27.0916 24.8708 29.3019 27.161C30.0578 25.4872 30.4481 23.6715 30.447 21.8349C30.447 14.2852 23.9759 8.05371 16.0067 8.05371C8.03758 8.05371 1.56641 14.2852 1.56641 21.8349C1.56563 23.6707 1.95364 25.4859 2.70487 27.161C4.87524 24.8708 10.0082 23.2663 15.9867 23.2663Z" fill="#008DCF"/>
<path d="M15.9804 23.2799C21.9723 23.2799 27.0587 24.8777 29.249 27.1413C29.9996 25.4825 30.3877 23.6826 30.3875 21.8618C30.3875 14.3787 23.9362 8.17383 15.9804 8.17383C8.02461 8.17383 1.58008 14.3787 1.58008 21.8618C1.57921 23.6826 1.96735 25.4826 2.71852 27.1413C4.90221 24.8777 10.0219 23.2799 15.9804 23.2799Z" fill="#008ED0"/>
<path d="M15.9815 23.2927C21.9267 23.2927 27.0331 24.8772 29.2102 27.1208C29.9643 25.4796 30.3528 23.6941 30.3486 21.8879C30.3486 14.4647 23.9107 8.2998 15.9815 8.2998C8.05233 8.2998 1.62112 14.4714 1.62112 21.8879C1.61738 23.6934 2.00342 25.4783 2.7529 27.1208C4.92993 24.8772 10.0363 23.2927 15.9815 23.2927Z" fill="#0090D0"/>
<path d="M15.9814 23.313C21.9067 23.313 26.9997 24.8775 29.1768 27.1078C29.9248 25.4789 30.311 23.7073 30.3086 21.9149C30.3086 14.5915 23.8906 8.41992 15.9814 8.41992C8.0722 8.41992 1.6543 14.5582 1.6543 21.9149C1.65442 23.707 2.04044 25.4781 2.7861 27.1078C4.96313 24.8775 10.0495 23.313 15.9814 23.313Z" fill="#0092D1"/>
<path d="M15.9813 23.3265C21.8933 23.3265 26.9664 24.8778 29.1434 27.0881C29.8875 25.4744 30.2736 23.7188 30.2752 21.9418C30.2752 14.6184 23.8706 8.54004 15.9813 8.54004C8.09208 8.54004 1.6875 14.6517 1.6875 21.9418C1.68762 23.7189 2.07377 25.4748 2.81928 27.0881C4.98965 24.8778 10.0627 23.3265 15.9813 23.3265Z" fill="#0093D2"/>
<path d="M15.9738 23.34C21.8724 23.34 26.9389 24.8845 29.1026 27.0682C29.8472 25.4712 30.2334 23.7306 30.2343 21.9685C30.2343 14.7384 23.8431 8.65332 15.9738 8.65332C8.10454 8.65332 1.72657 14.7317 1.72657 21.9685C1.72454 23.7302 2.10859 25.4709 2.8517 27.0682C5.01542 24.8845 10.0752 23.34 15.9738 23.34Z" fill="#0095D3"/>
<path d="M15.9737 23.3596C21.8524 23.3596 26.9055 24.8842 29.0692 27.0546C29.8109 25.4709 30.1951 23.7435 30.1943 21.9948C30.1943 14.8312 23.823 8.78613 15.9737 8.78613C8.12443 8.78613 1.75977 14.8312 1.75977 21.9948C1.75773 23.7437 2.14192 25.4714 2.88491 27.0546C5.04197 24.8842 10.0884 23.3596 15.9737 23.3596Z" fill="#0097D4"/>
<path d="M15.9736 23.3734C21.839 23.3734 26.8788 24.8846 29.0292 27.035C29.7699 25.47 30.1542 23.7601 30.1543 22.0285C30.1543 14.9249 23.803 8.91309 15.9736 8.91309C8.14432 8.91309 1.79297 14.9049 1.79297 22.0285C1.7924 23.7601 2.17671 25.4702 2.9181 27.035C5.0685 24.8846 10.1017 23.3734 15.9736 23.3734Z" fill="#0098D5"/>
<path d="M15.9681 23.386C21.8201 23.386 26.8466 24.8839 28.997 27.0144C29.7323 25.4642 30.1143 23.7702 30.1154 22.0545C30.1154 15.0107 23.7774 9.03223 15.9681 9.03223C8.1587 9.03223 1.83398 15.0241 1.83398 22.0545C1.83357 23.7703 2.21568 25.4647 2.95247 27.0144C5.09622 24.8839 10.116 23.386 15.9681 23.386Z" fill="#009AD5"/>
<path d="M15.968 23.3998C21.8 23.3998 26.8132 24.8911 28.9569 27.0015C29.6913 25.4652 30.0734 23.7844 30.0754 22.0816C30.0754 15.1044 23.7573 9.15918 15.968 9.15918C8.17857 9.15918 1.86719 15.1044 1.86719 22.0816C1.86756 23.7845 2.24975 25.4658 2.98566 27.0015C5.12274 24.8911 10.1292 23.3998 15.968 23.3998Z" fill="#009CD6"/>
<path d="M15.9666 23.42C21.7854 23.42 26.7852 24.8913 28.9223 26.9818C29.6515 25.4605 30.0313 23.7955 30.0341 22.1085C30.0341 15.1979 23.7294 9.2793 15.9666 9.2793C8.20388 9.2793 1.92578 15.1979 1.92578 22.1085C1.927 23.7964 2.30932 25.4623 3.04425 26.9818C5.14805 24.8913 10.1412 23.42 15.9666 23.42Z" fill="#009ED7"/>
<path d="M15.9666 23.4326C21.7654 23.4326 26.7519 24.8906 28.8824 26.9612C29.6143 25.4574 29.9945 23.8068 29.9942 22.1344C29.9942 15.2837 23.7094 9.39844 15.9666 9.39844C8.22387 9.39844 1.92579 15.2837 1.92579 22.1344C1.92387 23.807 2.30416 25.4579 3.03761 26.9612C5.1747 24.8906 10.1546 23.4326 15.9666 23.4326Z" fill="#00A0D8"/>
<path d="M15.9598 23.446C21.7452 23.446 26.7251 24.8907 28.8489 26.9479C29.5755 25.4568 29.9534 23.8199 29.9541 22.1611C29.9541 15.3771 23.6893 9.51172 15.9731 9.51172C8.25698 9.51172 1.99219 15.3637 1.99219 22.1611C1.99216 23.82 2.37012 25.457 3.09735 26.9479C5.20115 24.8907 10.1677 23.446 15.9598 23.446Z" fill="#00A1D9"/>
<path d="M15.9607 23.4657C21.7328 23.4657 26.6927 24.8971 28.8098 26.9276C29.5362 25.453 29.9143 23.8313 29.915 22.1874C29.915 15.4699 23.6635 9.64453 15.9341 9.64453C8.2046 9.64453 1.95312 15.4699 1.95312 22.1874C1.95621 23.831 2.33419 25.4522 3.05829 26.9276C5.25529 24.8971 10.1885 23.4657 15.9607 23.4657Z" fill="#00A3DA"/>
<path d="M15.9612 23.4794C21.7134 23.4794 26.66 24.8974 28.7771 26.908C29.496 25.4592 29.874 23.8651 29.8823 22.2477C29.8823 15.5901 23.6441 9.80469 15.9612 9.80469C8.27837 9.80469 2.04688 15.5901 2.04688 22.2477C2.05277 23.8646 2.42852 25.4587 3.14537 26.908C5.25583 24.8974 10.2024 23.4794 15.9612 23.4794Z" fill="#00A5DB"/>
<path d="M15.9611 23.4929C21.6933 23.4929 26.6133 24.8976 28.737 26.8949C29.4633 25.4487 29.8417 23.8529 29.8422 22.2346C29.8422 15.6436 23.624 9.88477 15.9611 9.88477C8.29825 9.88477 2.08008 15.6436 2.08008 22.2346C2.07999 23.8522 2.45606 25.4476 3.17858 26.8949C5.25574 24.8976 10.2156 23.4929 15.9611 23.4929Z" fill="#00A7DC"/>
<path d="M15.9536 23.5125C21.6791 23.5125 26.6057 24.8973 28.7029 26.8746C29.4226 25.4477 29.7988 23.8723 29.8014 22.2742C29.8014 15.7431 23.5965 10.0176 15.9536 10.0176C8.3107 10.0176 2.11914 15.7431 2.11914 22.2742C2.11945 23.8718 2.49334 25.4472 3.21097 26.8746C5.30811 24.8973 10.2281 23.5125 15.9536 23.5125Z" fill="#00A9DD"/>
<path d="M15.9535 23.5261C21.6591 23.5261 26.5724 24.9042 28.6629 26.8549C29.3825 25.4447 29.7589 23.8844 29.7614 22.3011C29.7614 15.8299 23.5765 10.1377 15.9535 10.1377C8.33059 10.1377 2.15234 15.8299 2.15234 22.3011C2.15499 23.8836 2.52898 25.4433 3.2442 26.8549C5.33468 24.9042 10.2413 23.5261 15.9535 23.5261Z" fill="#00ABDE"/>
<path d="M15.9547 23.5396C21.6469 23.5396 26.5402 24.9044 28.6041 26.8684C29.3177 25.4705 29.6918 23.9241 29.6959 22.3546C29.6959 15.95 23.531 10.291 15.928 10.291C8.32508 10.291 2.16016 15.95 2.16016 22.3546C2.17057 23.9156 2.5468 25.4525 3.25865 26.8418C5.36911 24.9044 10.2558 23.5396 15.9547 23.5396Z" fill="#00ADDE"/>
<path d="M15.9471 23.5531C21.626 23.5531 26.506 24.8846 28.5965 26.822C29.3128 25.4418 29.6872 23.9098 29.6883 22.3548C29.6883 16.0167 23.5367 10.3711 15.9537 10.3711C8.37073 10.3711 2.23242 16.0034 2.23242 22.3548C2.23381 23.9089 2.60583 25.4404 3.31761 26.822C5.39478 24.9046 10.2681 23.5531 15.9471 23.5531Z" fill="#00AFDF"/>
<path d="M15.9478 23.5728C21.6067 23.5728 26.4801 24.9043 28.5572 26.8017C29.2681 25.4364 29.6403 23.9203 29.6424 22.381C29.6424 16.1029 23.5108 10.5039 15.9478 10.5039C8.38475 10.5039 2.25977 16.1029 2.25977 22.381C2.26109 23.9204 2.63333 25.4367 3.34496 26.8017C5.42212 24.9043 10.2822 23.5728 15.9478 23.5728Z" fill="#00B1E0"/>
<path d="M15.9477 23.5856C21.5933 23.5856 26.4467 24.9171 28.5172 26.7879C29.2278 25.4368 29.6002 23.9336 29.6024 22.4072C29.6024 16.1956 23.4907 10.6299 15.9477 10.6299C8.40464 10.6299 2.29297 16.1956 2.29297 22.4072C2.29441 23.9337 2.66683 25.4371 3.37816 26.7879C5.44867 24.9104 10.2954 23.5856 15.9477 23.5856Z" fill="#00B3E1"/>
<path d="M15.9468 23.5991C21.5725 23.5991 26.4192 24.9307 28.4831 26.7682C29.1885 25.4322 29.5586 23.9448 29.5616 22.4341C29.5616 16.2825 23.4632 10.75 15.9468 10.75C8.43039 10.75 2.33203 16.2891 2.33203 22.4341C2.33498 23.9448 2.70513 25.4322 3.41058 26.7682C5.47443 24.9107 10.3078 23.5991 15.9468 23.5991Z" fill="#0DB5E2"/>
<path d="M15.94 23.6196C21.5524 23.6196 26.3858 24.9112 28.443 26.7486C29.1479 25.4293 29.5183 23.957 29.5215 22.4612C29.5215 16.3761 23.4431 10.877 15.94 10.877C8.43694 10.877 2.36523 16.3761 2.36523 22.4612C2.36851 23.957 2.73885 25.4293 3.44376 26.7486C5.50095 24.9112 10.321 23.6196 15.94 23.6196Z" fill="#19B7E3"/>
<path d="M15.94 23.6322C21.539 23.6322 26.3524 24.9105 28.4096 26.7346C29.1128 25.4313 29.4833 23.9746 29.4882 22.4938C29.4882 16.5019 23.4231 10.9961 15.94 10.9961C8.45684 10.9961 2.39844 16.4686 2.39844 22.4938C2.40252 23.9747 2.77304 25.4316 3.47696 26.7346C5.5275 24.9105 10.3343 23.6322 15.94 23.6322Z" fill="#21B9E4"/>
<path d="M15.941 23.646C21.5201 23.646 26.3269 24.9176 28.3774 26.7151C29.075 25.4267 29.4432 23.9859 29.4493 22.5208C29.4493 16.529 23.3975 11.123 15.941 11.123C8.48454 11.123 2.43945 16.5556 2.43945 22.5208C2.44244 23.9855 2.80843 25.4265 3.50467 26.7151C5.55521 24.9176 10.3487 23.646 15.941 23.646Z" fill="#28BBE5"/>
<path d="M15.9406 23.6795C21.513 23.6795 26.3131 24.9445 28.357 26.7287C29.0552 25.4502 29.4236 24.0178 29.4289 22.5611C29.4289 16.6425 23.3904 11.2432 15.9406 11.2432C8.49076 11.2432 2.45898 16.6558 2.45898 22.5611C2.46108 24.0174 2.82726 25.45 3.5242 26.7287C5.56808 24.9445 10.3615 23.6795 15.9406 23.6795Z" fill="#37BDE6"/>
<path d="M15.9409 23.7192C21.5067 23.7192 26.3002 24.9709 28.3374 26.7484C29.0366 25.4775 29.4052 24.0513 29.4093 22.6007C29.4093 16.7221 23.3775 11.3428 15.9409 11.3428C8.50442 11.3428 2.47266 16.7221 2.47266 22.6007C2.47974 24.0501 2.84571 25.4751 3.53787 26.7484C5.58175 24.9709 10.3685 23.7192 15.9409 23.7192Z" fill="#43BFE6"/>
<path d="M15.9405 23.779C21.4996 23.779 26.2797 25.024 28.3236 26.7882C29.0178 25.5277 29.3841 24.1129 29.3888 22.6738C29.3888 16.8285 23.397 11.4824 15.9405 11.4824C8.484 11.4824 2.49219 16.8085 2.49219 22.6738C2.49609 24.113 2.86244 25.528 3.55741 26.7882C5.59463 24.9973 10.3748 23.779 15.9405 23.779Z" fill="#4DC0E7"/>
<path d="M15.9401 23.7792C21.4925 23.7792 26.266 25.0175 28.3032 26.7684C29.0002 25.5183 29.369 24.112 29.3751 22.6807C29.3751 16.8753 23.3832 11.5625 15.9401 11.5625C8.49688 11.5625 2.51172 16.8886 2.51172 22.6807C2.51662 24.1104 2.88061 25.516 3.57027 26.7684C5.60749 25.0242 10.381 23.7792 15.9401 23.7792Z" fill="#56C2E8"/>
<path d="M15.9416 23.8261C21.4873 23.8261 26.2542 25.0511 28.2914 26.7887C28.9823 25.5485 29.3487 24.1538 29.3566 22.7342C29.3566 16.9687 23.3648 11.6826 15.9416 11.6826C8.51836 11.6826 2.5332 16.9687 2.5332 22.7342C2.53504 24.1538 2.8994 25.5494 3.59176 26.7887C5.62232 25.0511 10.3891 23.8261 15.9416 23.8261Z" fill="#5EC4E8"/>
<path d="M15.94 23.8594C21.4724 23.8594 26.2393 25.0778 28.2699 26.8088C28.9634 25.5769 29.3302 24.188 29.3351 22.7743C29.3351 17.0487 23.3432 11.7959 15.94 11.7959C8.53675 11.7959 2.54492 17.0487 2.54492 22.7743C2.55073 24.187 2.91495 25.5752 3.60348 26.8088C5.6407 25.1111 10.3942 23.8594 15.94 23.8594Z" fill="#65C6E9"/>
<path d="M15.9403 23.8922C21.4661 23.8922 26.2262 25.1039 28.2568 26.8216C28.9429 25.6014 29.3072 24.2268 29.3154 22.827C29.3154 17.1414 23.3235 11.9219 15.9403 11.9219C8.55699 11.9219 2.5918 17.1215 2.5918 22.8137C2.59912 24.2136 2.96346 25.5884 3.65035 26.8082C5.65429 25.1106 10.4078 23.8922 15.9403 23.8922Z" fill="#6DC7EA"/>
<path d="M15.9403 23.9257C21.4594 23.9257 26.2129 25.1307 28.2368 26.8351C28.9282 25.6171 29.2928 24.241 29.2954 22.8405C29.2954 17.1882 23.3035 12.002 15.9403 12.002C8.57696 12.002 2.5918 17.2082 2.5918 22.8605C2.59203 24.2604 2.95439 25.6365 3.64369 26.855C5.66759 25.1107 10.4145 23.9257 15.9403 23.9257Z" fill="#74C9EA"/>
<path d="M15.9409 23.9653C21.4534 23.9653 26.2002 25.157 28.2241 26.8547C28.9083 25.6483 29.2727 24.287 29.2827 22.9001C29.2827 17.2877 23.2909 12.1348 15.9675 12.1348C8.64417 12.1348 2.65234 17.2944 2.65234 22.9001C2.65614 24.2869 3.01851 25.6492 3.70425 26.8547C5.68156 25.157 10.4217 23.9653 15.9409 23.9653Z" fill="#7ACBEB"/>
<path d="M15.9413 23.9987C21.4471 23.9987 26.1874 25.1837 28.2046 26.8681C28.8914 25.6748 29.2561 24.3236 29.2632 22.9468C29.2632 17.3744 23.2713 12.248 15.948 12.248C8.62464 12.248 2.63281 17.3744 2.63281 22.9468C2.63993 24.3227 3.00227 25.6734 3.68472 26.8681C5.69531 25.1837 10.4288 23.9987 15.9413 23.9987Z" fill="#81CDEC"/>
<path d="M15.9398 24.0323C21.439 24.0323 26.1725 25.2107 28.1898 26.8818C28.8715 25.6964 29.2339 24.3545 29.2417 22.9871C29.2417 17.4546 23.2831 12.335 15.9265 12.335C8.56987 12.335 2.61133 17.4347 2.61133 22.9871C2.61511 24.355 2.97781 25.698 3.66322 26.8818C5.7071 25.2107 10.434 24.0323 15.9398 24.0323Z" fill="#87CFEC"/>
<path d="M15.9401 24.072C21.4326 24.072 26.1528 25.237 28.1701 26.8948C28.8522 25.7193 29.2148 24.3857 29.222 23.0267C29.222 17.5342 23.2701 12.4678 15.9401 12.4678C8.61007 12.4678 2.6582 17.5342 2.6582 23.0267C2.66306 24.3852 3.02342 25.7187 3.70345 26.8948C5.7207 25.237 10.4409 24.072 15.9401 24.072Z" fill="#8ED1ED"/>
<path d="M15.9416 24.1053C21.4274 24.1053 26.141 25.2638 28.1583 26.9149C28.8384 25.7482 29.2011 24.4238 29.2102 23.0734C29.2102 17.6142 23.2649 12.5811 15.9416 12.5811C8.61824 12.5811 2.67969 17.6209 2.67969 23.0734C2.68547 24.4234 3.04593 25.7481 3.72493 26.9149C5.73553 25.2638 10.4557 24.1053 15.9416 24.1053Z" fill="#94D3EE"/>
<path d="M15.9399 24.1387C21.4191 24.1387 26.126 25.2905 28.1366 26.9283C28.8292 25.7749 29.2036 24.4586 29.2218 23.1135C29.2218 17.6942 23.2832 12.6943 15.9732 12.6943C8.66317 12.6943 2.72461 17.7008 2.72461 23.1135C2.73036 24.455 3.09096 25.7711 3.76984 26.9283C5.74714 25.2905 10.4607 24.1387 15.9399 24.1387Z" fill="#9AD5EF"/>
<path d="M15.9415 24.1721C21.4141 24.1721 26.1143 25.3172 28.1182 26.9417C28.7979 25.7967 29.161 24.4916 29.1702 23.1602C29.1702 17.7808 23.2449 12.8076 15.9415 12.8076C8.63814 12.8076 2.71289 17.7808 2.71289 23.1602C2.71879 24.4912 3.07961 25.7966 3.75814 26.9417C5.76207 25.3172 10.469 24.1721 15.9415 24.1721Z" fill="#A0D7F0"/>
<path d="M15.9411 24.2122C21.407 24.2122 26.1006 25.344 28.1045 26.9551C28.7797 25.8183 29.1404 24.5224 29.1497 23.2002C29.1497 17.8741 23.2311 12.9209 15.9411 12.9209C8.65101 12.9209 2.73242 17.8608 2.73242 23.2002C2.7362 24.5223 3.09488 25.819 3.771 26.9551C5.77494 25.344 10.4752 24.2122 15.9411 24.2122Z" fill="#A6D9F0"/>
<path d="M15.9406 24.2456C21.3999 24.2456 26.0868 25.3707 28.0841 26.9752C28.7642 25.8474 29.1275 24.5572 29.136 23.2403C29.136 17.9142 23.224 13.0342 15.9406 13.0342C8.65723 13.0342 2.75195 17.9475 2.75195 23.2403C2.75637 24.5559 3.11513 25.8461 3.79054 26.9752C5.78781 25.3707 10.4814 24.2456 15.9406 24.2456Z" fill="#ACDCF1"/>
<path d="M15.9402 24.278C21.3861 24.278 26.073 25.3965 28.0703 26.9876C28.7441 25.8697 29.1051 24.5912 29.1156 23.286C29.1156 18.0198 23.2103 13.1465 15.9402 13.1465C8.67011 13.1465 2.77148 18.0265 2.77148 23.286C2.77724 24.5901 3.13368 25.8686 3.80342 26.9876C5.80736 25.3965 10.4876 24.278 15.9402 24.278Z" fill="#B2DEF2"/>
<path d="M15.9405 24.3116C21.3798 24.3116 26.0601 25.4234 28.0507 26.9747C28.7245 25.8665 29.0857 24.5966 29.0959 23.2997C29.0959 18.0801 23.1973 13.2334 15.9405 13.2334C8.68377 13.2334 2.78516 18.0801 2.78516 23.2997C2.78907 24.5965 3.14827 25.8676 3.82374 26.9747C5.82101 25.4234 10.5013 24.3116 15.9405 24.3116Z" fill="#B8E0F3"/>
<path d="M15.9401 24.3516C21.3727 24.3516 26.0463 25.4501 28.0369 27.0146C28.7065 25.9147 29.0654 24.6539 29.0755 23.3663C29.0755 18.18 23.1902 13.3799 15.9401 13.3799C8.68998 13.3799 2.80469 18.1933 2.80469 23.3663C2.8104 24.6545 3.16965 25.9165 3.84327 27.0146C5.83389 25.4501 10.5075 24.3516 15.9401 24.3516Z" fill="#BDE2F4"/>
<path d="M15.9416 24.385C21.3675 24.385 26.0345 25.4768 28.0185 27.048C28.6887 25.9582 29.0478 24.7057 29.0571 23.4263C29.0571 18.28 23.1784 13.4932 15.9416 13.4932C8.70481 13.4932 2.82617 18.2866 2.82617 23.4263C2.83203 24.7052 3.18897 25.958 3.85809 27.048C5.84871 25.4768 10.5157 24.385 15.9416 24.385Z" fill="#C3E5F5"/>
<path d="M15.9412 24.4444C21.3604 24.4444 26.0141 25.5296 28.0047 27.0741C28.6718 25.9927 29.0309 24.7496 29.0433 23.479C29.0433 18.3727 23.1713 13.6191 15.9412 13.6191C8.71103 13.6191 2.8457 18.3793 2.8457 23.479C2.84929 24.749 3.20414 25.9933 3.87098 27.0741C5.8616 25.5029 10.5219 24.4444 15.9412 24.4444Z" fill="#C9E7F5"/>
<path d="M15.9415 24.4444C21.3541 24.4444 26.0012 25.5163 27.9851 27.0475C28.6517 25.9781 29.011 24.7458 29.0237 23.4857C29.0237 18.4126 23.1584 13.6924 15.9415 13.6924C8.72471 13.6924 2.85938 18.4526 2.85938 23.499C2.86554 24.7591 3.2229 25.9926 3.89131 27.0608C5.87527 25.5296 10.5289 24.4444 15.9415 24.4444Z" fill="#CEE9F6"/>
<path d="M15.9411 24.4915C21.3471 24.4915 25.9874 25.5567 27.9714 27.0813C28.6349 26.0182 28.992 24.7925 29.0033 23.5394C29.0033 18.5129 23.1513 13.8193 15.9411 13.8193C8.73092 13.8193 2.87891 18.5129 2.87891 23.5394C2.88461 24.8036 3.24691 26.0404 3.92415 27.1079C5.92143 25.5567 10.5351 24.4915 15.9411 24.4915Z" fill="#D4ECF7"/>
<path d="M15.9399 24.5248C21.3392 24.5248 25.9729 25.5834 27.9236 27.0947C28.5883 26.0444 28.9458 24.829 28.9555 23.5861C28.9555 18.5929 23.1102 13.9326 15.9133 13.9326C8.71645 13.9326 2.87109 18.5929 2.87109 23.5861C2.8814 24.836 3.24615 26.0572 3.92298 27.108C5.92026 25.5834 10.5806 24.5248 15.9399 24.5248Z" fill="#DAEEF8"/>
<path d="M15.941 24.5582C21.3336 24.5582 25.9607 25.6101 27.9247 27.1081C28.5896 26.0674 28.9494 24.8611 28.9632 23.6262C28.9632 18.6729 23.1179 14.0459 15.9343 14.0459C8.75081 14.0459 2.91211 18.7062 2.91211 23.6262C2.9169 24.8586 3.26751 26.065 3.92406 27.1081C5.92133 25.6101 10.5816 24.5582 15.941 24.5582Z" fill="#DFF1F9"/>
<path d="M15.9417 24.5983C21.3277 24.5983 25.9281 25.6369 27.9254 27.1215C28.5888 26.0903 28.9466 24.8923 28.9573 23.6662C28.9573 18.7529 23.1253 14.1592 15.9484 14.1592C8.77151 14.1592 2.93945 18.7596 2.93945 23.6662C2.94452 24.8922 3.30028 26.0912 3.96473 27.1215C5.92206 25.6369 10.5824 24.5983 15.9417 24.5983Z" fill="#E5F3FA"/>
<path d="M15.9408 24.6317C21.3202 24.6317 25.9272 25.6636 27.9245 27.1416C28.5858 26.1193 28.9436 24.9304 28.9564 23.7129C28.9564 18.8396 23.131 14.2725 15.9675 14.2725C8.80391 14.2725 2.97852 18.8396 2.97852 23.7129C2.98665 24.9292 3.33988 26.1182 3.99713 27.1416C5.92117 25.6636 10.5815 24.6317 15.9408 24.6317Z" fill="#EBF6FB"/>
<path d="M15.9416 24.6641C21.3143 24.6641 25.928 25.6894 27.8853 27.154C28.5421 26.1399 28.8976 24.9602 28.9106 23.752C28.9106 18.9186 23.0985 14.3848 15.9416 14.3848C8.78472 14.3848 2.97266 18.9186 2.97266 23.7786C2.97995 24.9867 3.33346 26.1673 3.99127 27.1806C5.95525 25.6893 10.5823 24.6641 15.9416 24.6641Z" fill="#F1F8FD"/>
<path d="M15.9412 24.6974C21.3072 24.6974 25.9276 25.716 27.8649 27.1673C28.5271 26.1607 28.8833 24.9836 28.8902 23.7786C28.8902 18.9785 23.0848 14.458 15.9412 14.458C8.79759 14.458 2.99219 18.9652 2.99219 23.7786C2.99826 24.9755 3.34963 26.1453 4.00413 27.1474C5.97478 25.716 10.5818 24.6974 15.9412 24.6974Z" fill="#F7FBFE"/>
<path d="M15.9415 24.7381C21.2676 24.7381 25.888 25.7434 27.852 27.188C28.5035 26.1986 28.8592 25.0438 28.8773 23.8593C28.8773 19.0991 23.0785 14.6318 15.9415 14.6318C8.80461 14.6318 3.00586 19.1057 3.00586 23.8593C3.01819 25.0437 3.37185 26.1995 4.02447 27.188C5.98846 25.7766 10.5822 24.7381 15.9415 24.7381Z" fill="white"/>
<path d="M15.9404 19.985C11.6314 19.9453 7.34928 20.6665 3.29102 22.1154C4.37784 24.5563 6.14887 26.6298 8.38973 28.085C10.6306 29.5402 13.2452 30.3147 15.9171 30.3147C18.5891 30.3147 21.2037 29.5402 23.4445 28.085C25.6854 26.6298 27.4564 24.5563 28.5433 22.1154C24.5002 20.67 20.2339 19.9488 15.9404 19.985V19.985Z" fill="#0083CA"/>
</g>
</g>
<defs>
<clipPath id="clip0_94_12481">
<rect width="29.3333" height="29.0204" fill="white" transform="translate(1.33398 1.98926)"/>
</clipPath>
</defs>
</svg>
