<svg width="32" height="33" viewBox="0 0 32 33" fill="none" xmlns="http://www.w3.org/2000/svg">
<g clip-path="url(#clip0_94_12529)">
<path d="M1.37628 16.4533C1.36459 16.4569 1.35436 16.4642 1.34711 16.4741C1.33985 16.4839 1.33594 16.4959 1.33594 16.5081C1.33594 16.5204 1.33985 16.5323 1.34711 16.5422C1.35436 16.552 1.36459 16.5593 1.37628 16.563L5.90116 19.5517L7.19697 13.4541L1.37628 16.4533Z" fill="#E72511"/>
<path d="M28.1908 13.4492H27.0413C26.9707 13.4536 26.9015 13.4713 26.8375 13.5015L21.09 16.4588C21.0377 16.4588 21.0325 16.532 21.09 16.5686L25.5365 19.4946C25.5974 19.5287 25.6653 19.5484 25.7351 19.5521H26.8793C26.942 19.5521 26.9473 19.5521 26.8793 19.4946L22.3336 16.5059L28.1908 13.5015C28.2378 13.4753 28.2326 13.4492 28.1908 13.4492Z" fill="#F08300"/>
<path d="M25.7197 13.4492H17.7411L16.4453 19.5521H24.4135C24.4762 19.5521 24.4814 19.5521 24.4135 19.4946L19.8782 16.5059L25.7041 13.5015C25.7877 13.4753 25.7824 13.4492 25.7197 13.4492Z" fill="#E72511"/>
<path d="M30.6211 13.4492H29.4768C29.4061 13.4526 29.3367 13.4704 29.2731 13.5015L23.5255 16.4588C23.4733 16.4588 23.4733 16.532 23.5255 16.5686L27.9772 19.4946C28.036 19.5292 28.1024 19.549 28.1706 19.5521H29.3201C29.3775 19.5521 29.388 19.5521 29.3201 19.4946L24.7795 16.5059L30.6107 13.5015C30.6838 13.4753 30.6786 13.4492 30.6211 13.4492Z" fill="#FABE00"/>
<path d="M25.37 9.45731H6.60169C6.15509 9.43572 5.71505 9.57131 5.35804 9.8405C5.00103 10.1097 4.74963 10.4954 4.64754 10.9308C4.60117 11.1376 4.61601 11.3535 4.69023 11.552C4.76446 11.7506 4.89486 11.9232 5.06554 12.0489L11.8111 16.5006L25.3961 9.50955C25.4327 9.4782 25.4275 9.45731 25.37 9.45731Z" fill="#E72511"/>
<path d="M22.3915 23.4859L11.8161 16.5L3.17907 20.957C2.96093 21.0714 2.76891 21.2299 2.61512 21.4224C2.46133 21.6148 2.34912 21.8371 2.28559 22.0751C2.10794 22.885 2.56252 23.5433 3.61275 23.5433H22.3811C22.4438 23.5433 22.4438 23.5172 22.3915 23.4859Z" fill="#E72511"/>
</g>
<defs>
<clipPath id="clip0_94_12529">
<rect width="29.3333" height="14.0867" fill="white" transform="translate(1.33398 9.45703)"/>
</clipPath>
</defs>
</svg>
