<svg width="358" height="318" viewBox="0 0 358 318" fill="none" xmlns="http://www.w3.org/2000/svg">
<path d="M0 20C0 8.95431 8.9543 0 20 0H338C349.046 0 358 8.95431 358 20V318H0V20Z" fill="#2294FF" fill-opacity="0.1"/>
<path d="M26 87C26 75.9543 34.9543 67 46 67H312C323.046 67 332 75.9543 332 87V318H26V87Z" fill="white"/>
<path d="M45.47 117.22C47.34 115.79 49.43 114.662 51.74 113.836C54.05 113.012 56.47 112.6 59 112.6C61.53 112.6 63.95 113.012 66.26 113.836C68.57 114.662 70.66 115.79 72.53 117.22C73.8133 115.717 74.8129 114.012 75.5286 112.105C76.2429 110.198 76.6 108.163 76.6 106C76.6 101.123 74.8862 96.9705 71.4586 93.5414C68.0295 90.1138 63.8767 88.4 59 88.4C54.1233 88.4 49.9712 90.1138 46.5436 93.5414C43.1145 96.9705 41.4 101.123 41.4 106C41.4 108.163 41.7579 110.198 42.4736 112.105C43.1879 114.012 44.1867 115.717 45.47 117.22ZM59 108.2C56.8367 108.2 55.0121 107.458 53.5264 105.974C52.0421 104.488 51.3 102.663 51.3 100.5C51.3 98.3367 52.0421 96.5121 53.5264 95.0264C55.0121 93.5421 56.8367 92.8 59 92.8C61.1633 92.8 62.9879 93.5421 64.4736 95.0264C65.9579 96.5121 66.7 98.3367 66.7 100.5C66.7 102.663 65.9579 104.488 64.4736 105.974C62.9879 107.458 61.1633 108.2 59 108.2ZM59 128C55.9567 128 53.0967 127.422 50.42 126.266C47.7433 125.112 45.415 123.545 43.435 121.565C41.455 119.585 39.8879 117.257 38.7336 114.58C37.5779 111.903 37 109.043 37 106C37 102.957 37.5779 100.097 38.7336 97.42C39.8879 94.7433 41.455 92.415 43.435 90.435C45.415 88.455 47.7433 86.8871 50.42 85.7314C53.0967 84.5771 55.9567 84 59 84C62.0433 84 64.9033 84.5771 67.58 85.7314C70.2567 86.8871 72.585 88.455 74.565 90.435C76.545 92.415 78.1121 94.7433 79.2664 97.42C80.4221 100.097 81 102.957 81 106C81 109.043 80.4221 111.903 79.2664 114.58C78.1121 117.257 76.545 119.585 74.565 121.565C72.585 123.545 70.2567 125.112 67.58 126.266C64.9033 127.422 62.0433 128 59 128ZM59 123.6C60.9433 123.6 62.7767 123.316 64.5 122.749C66.2233 122.18 67.8 121.363 69.23 120.3C67.8 119.237 66.2233 118.42 64.5 117.851C62.7767 117.284 60.9433 117 59 117C57.0567 117 55.2233 117.284 53.5 117.851C51.7767 118.42 50.2 119.237 48.77 120.3C50.2 121.363 51.7767 122.18 53.5 122.749C55.2233 123.316 57.0567 123.6 59 123.6ZM59 103.8C59.9533 103.8 60.7417 103.488 61.365 102.865C61.9883 102.242 62.3 101.453 62.3 100.5C62.3 99.5467 61.9883 98.7583 61.365 98.135C60.7417 97.5117 59.9533 97.2 59 97.2C58.0467 97.2 57.2583 97.5117 56.635 98.135C56.0117 98.7583 55.7 99.5467 55.7 100.5C55.7 101.453 56.0117 102.242 56.635 102.865C57.2583 103.488 58.0467 103.8 59 103.8Z" fill="#2294FF" fill-opacity="0.5"/>
<path d="M105.47 117.22C107.34 115.79 109.43 114.662 111.74 113.836C114.05 113.012 116.47 112.6 119 112.6C121.53 112.6 123.95 113.012 126.26 113.836C128.57 114.662 130.66 115.79 132.53 117.22C133.813 115.717 134.813 114.012 135.529 112.105C136.243 110.198 136.6 108.163 136.6 106C136.6 101.123 134.886 96.9705 131.459 93.5414C128.03 90.1138 123.877 88.4 119 88.4C114.123 88.4 109.971 90.1138 106.544 93.5414C103.115 96.9705 101.4 101.123 101.4 106C101.4 108.163 101.758 110.198 102.474 112.105C103.188 114.012 104.187 115.717 105.47 117.22ZM119 108.2C116.837 108.2 115.012 107.458 113.526 105.974C112.042 104.488 111.3 102.663 111.3 100.5C111.3 98.3367 112.042 96.5121 113.526 95.0264C115.012 93.5421 116.837 92.8 119 92.8C121.163 92.8 122.988 93.5421 124.474 95.0264C125.958 96.5121 126.7 98.3367 126.7 100.5C126.7 102.663 125.958 104.488 124.474 105.974C122.988 107.458 121.163 108.2 119 108.2ZM119 128C115.957 128 113.097 127.422 110.42 126.266C107.743 125.112 105.415 123.545 103.435 121.565C101.455 119.585 99.8879 117.257 98.7336 114.58C97.5779 111.903 97 109.043 97 106C97 102.957 97.5779 100.097 98.7336 97.42C99.8879 94.7433 101.455 92.415 103.435 90.435C105.415 88.455 107.743 86.8871 110.42 85.7314C113.097 84.5771 115.957 84 119 84C122.043 84 124.903 84.5771 127.58 85.7314C130.257 86.8871 132.585 88.455 134.565 90.435C136.545 92.415 138.112 94.7433 139.266 97.42C140.422 100.097 141 102.957 141 106C141 109.043 140.422 111.903 139.266 114.58C138.112 117.257 136.545 119.585 134.565 121.565C132.585 123.545 130.257 125.112 127.58 126.266C124.903 127.422 122.043 128 119 128ZM119 123.6C120.943 123.6 122.777 123.316 124.5 122.749C126.223 122.18 127.8 121.363 129.23 120.3C127.8 119.237 126.223 118.42 124.5 117.851C122.777 117.284 120.943 117 119 117C117.057 117 115.223 117.284 113.5 117.851C111.777 118.42 110.2 119.237 108.77 120.3C110.2 121.363 111.777 122.18 113.5 122.749C115.223 123.316 117.057 123.6 119 123.6ZM119 103.8C119.953 103.8 120.742 103.488 121.365 102.865C121.988 102.242 122.3 101.453 122.3 100.5C122.3 99.5467 121.988 98.7583 121.365 98.135C120.742 97.5117 119.953 97.2 119 97.2C118.047 97.2 117.258 97.5117 116.635 98.135C116.012 98.7583 115.7 99.5467 115.7 100.5C115.7 101.453 116.012 102.242 116.635 102.865C117.258 103.488 118.047 103.8 119 103.8Z" fill="#2294FF" fill-opacity="0.5"/>
<path d="M165.47 117.22C167.34 115.79 169.43 114.662 171.74 113.836C174.05 113.012 176.47 112.6 179 112.6C181.53 112.6 183.95 113.012 186.26 113.836C188.57 114.662 190.66 115.79 192.53 117.22C193.813 115.717 194.813 114.012 195.529 112.105C196.243 110.198 196.6 108.163 196.6 106C196.6 101.123 194.886 96.9705 191.459 93.5414C188.03 90.1138 183.877 88.4 179 88.4C174.123 88.4 169.971 90.1138 166.544 93.5414C163.115 96.9705 161.4 101.123 161.4 106C161.4 108.163 161.758 110.198 162.474 112.105C163.188 114.012 164.187 115.717 165.47 117.22ZM179 108.2C176.837 108.2 175.012 107.458 173.526 105.974C172.042 104.488 171.3 102.663 171.3 100.5C171.3 98.3367 172.042 96.5121 173.526 95.0264C175.012 93.5421 176.837 92.8 179 92.8C181.163 92.8 182.988 93.5421 184.474 95.0264C185.958 96.5121 186.7 98.3367 186.7 100.5C186.7 102.663 185.958 104.488 184.474 105.974C182.988 107.458 181.163 108.2 179 108.2ZM179 128C175.957 128 173.097 127.422 170.42 126.266C167.743 125.112 165.415 123.545 163.435 121.565C161.455 119.585 159.888 117.257 158.734 114.58C157.578 111.903 157 109.043 157 106C157 102.957 157.578 100.097 158.734 97.42C159.888 94.7433 161.455 92.415 163.435 90.435C165.415 88.455 167.743 86.8871 170.42 85.7314C173.097 84.5771 175.957 84 179 84C182.043 84 184.903 84.5771 187.58 85.7314C190.257 86.8871 192.585 88.455 194.565 90.435C196.545 92.415 198.112 94.7433 199.266 97.42C200.422 100.097 201 102.957 201 106C201 109.043 200.422 111.903 199.266 114.58C198.112 117.257 196.545 119.585 194.565 121.565C192.585 123.545 190.257 125.112 187.58 126.266C184.903 127.422 182.043 128 179 128ZM179 123.6C180.943 123.6 182.777 123.316 184.5 122.749C186.223 122.18 187.8 121.363 189.23 120.3C187.8 119.237 186.223 118.42 184.5 117.851C182.777 117.284 180.943 117 179 117C177.057 117 175.223 117.284 173.5 117.851C171.777 118.42 170.2 119.237 168.77 120.3C170.2 121.363 171.777 122.18 173.5 122.749C175.223 123.316 177.057 123.6 179 123.6ZM179 103.8C179.953 103.8 180.742 103.488 181.365 102.865C181.988 102.242 182.3 101.453 182.3 100.5C182.3 99.5467 181.988 98.7583 181.365 98.135C180.742 97.5117 179.953 97.2 179 97.2C178.047 97.2 177.258 97.5117 176.635 98.135C176.012 98.7583 175.7 99.5467 175.7 100.5C175.7 101.453 176.012 102.242 176.635 102.865C177.258 103.488 178.047 103.8 179 103.8Z" fill="#2294FF" fill-opacity="0.5"/>
<path d="M225.47 117.22C227.34 115.79 229.43 114.662 231.74 113.836C234.05 113.012 236.47 112.6 239 112.6C241.53 112.6 243.95 113.012 246.26 113.836C248.57 114.662 250.66 115.79 252.53 117.22C253.813 115.717 254.813 114.012 255.529 112.105C256.243 110.198 256.6 108.163 256.6 106C256.6 101.123 254.886 96.9705 251.459 93.5414C248.03 90.1138 243.877 88.4 239 88.4C234.123 88.4 229.971 90.1138 226.544 93.5414C223.115 96.9705 221.4 101.123 221.4 106C221.4 108.163 221.758 110.198 222.474 112.105C223.188 114.012 224.187 115.717 225.47 117.22ZM239 108.2C236.837 108.2 235.012 107.458 233.526 105.974C232.042 104.488 231.3 102.663 231.3 100.5C231.3 98.3367 232.042 96.5121 233.526 95.0264C235.012 93.5421 236.837 92.8 239 92.8C241.163 92.8 242.988 93.5421 244.474 95.0264C245.958 96.5121 246.7 98.3367 246.7 100.5C246.7 102.663 245.958 104.488 244.474 105.974C242.988 107.458 241.163 108.2 239 108.2ZM239 128C235.957 128 233.097 127.422 230.42 126.266C227.743 125.112 225.415 123.545 223.435 121.565C221.455 119.585 219.888 117.257 218.734 114.58C217.578 111.903 217 109.043 217 106C217 102.957 217.578 100.097 218.734 97.42C219.888 94.7433 221.455 92.415 223.435 90.435C225.415 88.455 227.743 86.8871 230.42 85.7314C233.097 84.5771 235.957 84 239 84C242.043 84 244.903 84.5771 247.58 85.7314C250.257 86.8871 252.585 88.455 254.565 90.435C256.545 92.415 258.112 94.7433 259.266 97.42C260.422 100.097 261 102.957 261 106C261 109.043 260.422 111.903 259.266 114.58C258.112 117.257 256.545 119.585 254.565 121.565C252.585 123.545 250.257 125.112 247.58 126.266C244.903 127.422 242.043 128 239 128ZM239 123.6C240.943 123.6 242.777 123.316 244.5 122.749C246.223 122.18 247.8 121.363 249.23 120.3C247.8 119.237 246.223 118.42 244.5 117.851C242.777 117.284 240.943 117 239 117C237.057 117 235.223 117.284 233.5 117.851C231.777 118.42 230.2 119.237 228.77 120.3C230.2 121.363 231.777 122.18 233.5 122.749C235.223 123.316 237.057 123.6 239 123.6ZM239 103.8C239.953 103.8 240.742 103.488 241.365 102.865C241.988 102.242 242.3 101.453 242.3 100.5C242.3 99.5467 241.988 98.7583 241.365 98.135C240.742 97.5117 239.953 97.2 239 97.2C238.047 97.2 237.258 97.5117 236.635 98.135C236.012 98.7583 235.7 99.5467 235.7 100.5C235.7 101.453 236.012 102.242 236.635 102.865C237.258 103.488 238.047 103.8 239 103.8Z" fill="#2294FF" fill-opacity="0.5"/>
<path d="M285.47 117.22C287.34 115.79 289.43 114.662 291.74 113.836C294.05 113.012 296.47 112.6 299 112.6C301.53 112.6 303.95 113.012 306.26 113.836C308.57 114.662 310.66 115.79 312.53 117.22C313.813 115.717 314.813 114.012 315.529 112.105C316.243 110.198 316.6 108.163 316.6 106C316.6 101.123 314.886 96.9705 311.459 93.5414C308.03 90.1138 303.877 88.4 299 88.4C294.123 88.4 289.971 90.1138 286.544 93.5414C283.115 96.9705 281.4 101.123 281.4 106C281.4 108.163 281.758 110.198 282.474 112.105C283.188 114.012 284.187 115.717 285.47 117.22ZM299 108.2C296.837 108.2 295.012 107.458 293.526 105.974C292.042 104.488 291.3 102.663 291.3 100.5C291.3 98.3367 292.042 96.5121 293.526 95.0264C295.012 93.5421 296.837 92.8 299 92.8C301.163 92.8 302.988 93.5421 304.474 95.0264C305.958 96.5121 306.7 98.3367 306.7 100.5C306.7 102.663 305.958 104.488 304.474 105.974C302.988 107.458 301.163 108.2 299 108.2ZM299 128C295.957 128 293.097 127.422 290.42 126.266C287.743 125.112 285.415 123.545 283.435 121.565C281.455 119.585 279.888 117.257 278.734 114.58C277.578 111.903 277 109.043 277 106C277 102.957 277.578 100.097 278.734 97.42C279.888 94.7433 281.455 92.415 283.435 90.435C285.415 88.455 287.743 86.8871 290.42 85.7314C293.097 84.5771 295.957 84 299 84C302.043 84 304.903 84.5771 307.58 85.7314C310.257 86.8871 312.585 88.455 314.565 90.435C316.545 92.415 318.112 94.7433 319.266 97.42C320.422 100.097 321 102.957 321 106C321 109.043 320.422 111.903 319.266 114.58C318.112 117.257 316.545 119.585 314.565 121.565C312.585 123.545 310.257 125.112 307.58 126.266C304.903 127.422 302.043 128 299 128ZM299 123.6C300.943 123.6 302.777 123.316 304.5 122.749C306.223 122.18 307.8 121.363 309.23 120.3C307.8 119.237 306.223 118.42 304.5 117.851C302.777 117.284 300.943 117 299 117C297.057 117 295.223 117.284 293.5 117.851C291.777 118.42 290.2 119.237 288.77 120.3C290.2 121.363 291.777 122.18 293.5 122.749C295.223 123.316 297.057 123.6 299 123.6ZM299 103.8C299.953 103.8 300.742 103.488 301.365 102.865C301.988 102.242 302.3 101.453 302.3 100.5C302.3 99.5467 301.988 98.7583 301.365 98.135C300.742 97.5117 299.953 97.2 299 97.2C298.047 97.2 297.258 97.5117 296.635 98.135C296.012 98.7583 295.7 99.5467 295.7 100.5C295.7 101.453 296.012 102.242 296.635 102.865C297.258 103.488 298.047 103.8 299 103.8Z" fill="#2294FF" fill-opacity="0.5"/>
<rect x="312" y="263" width="32" height="32" rx="16" transform="rotate(180 312 263)" fill="#2294FF" fill-opacity="0.5"/>
<mask id="mask0_864_8497" style="mask-type:alpha" maskUnits="userSpaceOnUse" x="277" y="228" width="35" height="35">
<rect width="35" height="35" transform="matrix(1 -8.74228e-08 -8.74228e-08 -1 277 263)" fill="#D9D9D9"/>
</mask>
<g mask="url(#mask0_864_8497)">
<path d="M293.053 241.402C292.884 241.568 292.8 241.765 292.8 241.992C292.8 242.219 292.884 242.416 293.053 242.582L297.994 247.455L293.036 252.344C292.879 252.499 292.8 252.693 292.8 252.926C292.8 253.159 292.884 253.359 293.053 253.525C293.222 253.691 293.421 253.774 293.652 253.774C293.882 253.774 294.082 253.691 294.25 253.525L299.917 247.921C299.984 247.854 300.032 247.782 300.06 247.704C300.088 247.627 300.102 247.544 300.102 247.455C300.102 247.366 300.088 247.283 300.06 247.206C300.032 247.128 299.984 247.056 299.917 246.989L294.234 241.385C294.076 241.23 293.882 241.152 293.652 241.152C293.421 241.152 293.222 241.235 293.053 241.402Z" fill="white"/>
</g>
<mask id="mask1_864_8497" style="mask-type:alpha" maskUnits="userSpaceOnUse" x="46" y="231" width="35" height="35">
<rect width="35" height="35" transform="matrix(-1 0 0 1 81 231)" fill="#D9D9D9"/>
</mask>
<g mask="url(#mask1_864_8497)">
<path d="M64.947 252.598C65.1156 252.432 65.2 252.235 65.2 252.008C65.2 251.781 65.1156 251.584 64.947 251.418L60.0057 246.545L64.9639 241.656C65.1213 241.501 65.2 241.307 65.2 241.074C65.2 240.841 65.1156 240.641 64.947 240.475C64.7783 240.309 64.5787 240.226 64.348 240.226C64.1177 240.226 63.9183 240.309 63.7496 240.475L58.0832 246.079C58.0158 246.146 57.9679 246.218 57.9395 246.296C57.9117 246.373 57.8977 246.456 57.8977 246.545C57.8977 246.634 57.9117 246.717 57.9395 246.794C57.9679 246.872 58.0158 246.944 58.0832 247.011L63.7665 252.615C63.9239 252.77 64.1177 252.848 64.348 252.848C64.5787 252.848 64.7783 252.765 64.947 252.598Z" fill="#2294FF" fill-opacity="0.5"/>
</g>
<rect x="47" y="232" width="30" height="30" rx="15" stroke="#2294FF" stroke-opacity="0.5" stroke-width="2"/>
<rect width="162" height="32" rx="16" transform="matrix(-1 0 0 1 260 211)" fill="#2294FF" fill-opacity="0.5"/>
<rect width="100" height="32" rx="16" transform="matrix(-1 0 0 1 198 251)" fill="#2294FF" fill-opacity="0.5"/>
<path d="M37 184C37 172.402 46.402 163 58 163H301C312.598 163 322 172.402 322 184H320C320 173.507 311.493 165 301 165H58C47.5066 165 39 173.507 39 184H37ZM321 318H38H321ZM37 318V184C37 172.402 46.402 163 58 163V165C47.5066 165 39 173.507 39 184V318H37ZM301 163C312.598 163 322 172.402 322 184V318H320V184C320 173.507 311.493 165 301 165V163Z" fill="#2294FF" fill-opacity="0.5" mask="url(#path-9-inside-1_864_8497)"/>
<path d="M92.3827 149.064C92.5967 148.661 92.7941 148.196 92.9633 147.702C93.1675 147.106 93.3089 146.527 93.3818 145.981L96.1063 146.914L95.0562 149.98L92.3827 149.064ZM87.6854 149.89C86.5445 149.499 86.1871 147.987 86.9863 145.655C87.7798 143.339 88.989 142.364 90.1299 142.755C91.2878 143.152 91.6452 144.663 90.8518 146.979C90.0525 149.312 88.8433 150.286 87.6854 149.89ZM97.8273 141.891L96.7247 145.109L93.3871 143.966C93.1499 142.382 92.2375 141.213 90.8241 140.728C88.4912 139.929 86.0363 141.486 84.8578 144.925C83.6735 148.382 84.6524 151.134 86.9853 151.933C88.495 152.469 90.0074 151.998 91.2306 150.705L94.4319 151.802L92.4367 157.625L94.6844 158.395L100.075 142.661L97.8273 141.891ZM102.885 145.451L102.273 147.239L107.5 149.03C105.987 152.393 103.41 154.25 98.7488 154.803L99.317 156.976C105.807 156.194 108.767 152.831 110.412 148.029L102.885 145.451ZM113.373 147.217L108 162.9L110.264 163.676L115.638 147.993L113.373 147.217ZM129.418 157.471L120.785 154.513L122.045 150.835L119.797 150.065L117.924 155.531L128.806 159.259L129.418 157.471ZM118.443 160.903L116.179 160.127L114.58 164.793L125.699 168.603L126.312 166.815L117.457 163.781L118.443 160.903ZM115.622 156.531L115.004 158.336L129.205 163.202L129.824 161.397L115.622 156.531ZM148.509 159.255L143.119 174.989L145.366 175.759L150.757 160.025L148.509 159.255ZM141.949 158.244C139.582 157.433 137.093 158.978 135.914 162.418C134.73 165.874 135.743 168.638 138.11 169.449C140.477 170.26 142.972 168.698 144.156 165.241C145.334 161.802 144.316 159.055 141.949 158.244ZM141.254 160.271C142.412 160.667 142.787 162.185 141.993 164.5C141.194 166.833 139.968 167.802 138.81 167.406C137.652 167.009 137.278 165.492 138.077 163.159C138.87 160.843 140.097 159.874 141.254 160.271ZM153.705 162.634L150.094 173.174L157.638 175.759L161.249 165.218L153.705 162.634ZM158.428 166.231L156.031 173.229L152.914 172.162L155.312 165.163L158.428 166.231ZM164.168 164.639L158.783 180.356L161.031 181.126L166.416 165.409L164.168 164.639ZM174.001 171.756L177.236 172.865L177.872 171.009L169.085 167.998L168.449 169.854L171.719 170.974L171.421 171.843C170.505 174.516 168.242 176.957 165.217 177.233L165.882 179.459C168.007 179.254 169.856 177.966 171.255 176.162C171.305 178.291 172.023 180.25 173.577 181.657L175.41 180.306C173.161 178.318 172.828 175.179 173.703 172.625L174.001 171.756ZM179.833 170.006L174.46 185.689L176.707 186.459L182.081 170.776L179.833 170.006ZM188.806 186.628L189.606 184.295L194.357 185.923L194.975 184.118L185.882 181.002L186.483 179.248L195.218 182.241L197.009 177.013L186.026 173.251L185.414 175.038L194.183 178.043L193.606 179.729L184.853 176.73L183.033 182.043L187.358 183.525L186.559 185.858L180.599 183.816L179.969 185.655L194.17 190.52L194.8 188.681L188.806 186.628ZM215.601 186.142L207.087 183.225L207.559 181.846L215.954 184.722L216.567 182.934L205.941 179.294L204.249 184.232L214.994 187.913L215.601 186.142ZM203.724 192.595L212.307 195.535L213.73 191.38L202.9 187.67L202.323 189.356L210.939 192.308L210.636 193.193L202.036 190.247L200.584 194.487L211.805 198.332L212.394 196.612L203.404 193.532L203.724 192.595ZM202.21 184.465L201.603 186.236L215.787 191.096L216.394 189.325L202.21 184.465ZM220.719 195.468C219.578 195.078 219.238 193.572 220.037 191.239C220.831 188.923 222.023 187.943 223.164 188.334C224.322 188.73 224.662 190.236 223.868 192.552C223.069 194.885 221.877 195.865 220.719 195.468ZM230.861 187.47L228.924 193.123L226.302 192.225C226.964 189.293 225.969 187.031 223.858 186.307C221.525 185.508 219.07 187.064 217.892 190.504C216.707 193.961 217.686 196.713 220.019 197.512C222.199 198.259 224.429 196.968 225.695 194.053L228.3 194.945L225.47 203.204L227.718 203.974L233.109 188.24L230.861 187.47ZM236.051 190.199L235.439 191.987L240.258 193.638C239.321 195.429 237.024 196.412 233.163 195.964L233.362 198.049C238.474 198.621 241.944 196.88 243.373 192.708L236.051 190.199ZM241.023 206.287L235.251 204.31L235.723 202.93L241.496 204.908L241.023 206.287ZM242.085 203.188L236.312 201.21L236.826 199.712L234.595 198.948L232.407 205.333L242.624 208.834L244.812 202.448L242.598 201.69L242.085 203.188ZM248.873 197.427L246.778 196.71L247.933 193.338L245.686 192.568L242.774 201.065L245.022 201.835L246.148 198.549L248.243 199.266L248.873 197.427ZM253.81 197.007L251.579 196.242L248.038 206.579L249.434 207.057C251.818 207.874 254.482 208.596 257.348 208.95L257.751 206.995C255.295 206.667 253.006 206.074 250.928 205.419L253.81 197.007ZM262.122 198.18L256.749 213.863L258.997 214.633L264.37 198.95L262.122 198.18ZM268.658 204.092L273.732 205.83L274.357 204.008L267.051 201.505L263.452 212.012L264.78 212.467C267.505 213.4 269.679 214.05 272.192 214.435L272.607 212.503C270.464 212.15 268.567 211.633 266.324 210.903L268.658 204.092ZM279.51 210.626L277.228 209.844L279.212 204.054L276.964 203.284L271.579 219.001L273.827 219.771L276.592 211.7L278.874 212.482L279.51 210.626Z" fill="#FF0000"/>
<path d="M264 7.00001C264 18.0457 255.046 27 244 27L114 27C102.954 27 94 18.0457 94 6.99999L94 3.96917e-07L264 1.52588e-05L264 7.00001Z" fill="white"/>
</svg>
