<svg width="330" height="154" viewBox="0 0 330 154" fill="none" xmlns="http://www.w3.org/2000/svg">
<rect x="105.5" y="16.5" width="224" height="121" rx="19.5" fill="white"/>
<rect x="105.5" y="16.5" width="224" height="121" rx="19.5" stroke="#9ACDFF"/>
<rect x="0.5" y="16.5" width="224" height="121" rx="19.5" fill="white"/>
<rect x="0.5" y="16.5" width="224" height="121" rx="19.5" stroke="#9ACDFF"/>
<rect x="25.5" y="0.5" width="282" height="153" rx="19.5" fill="white"/>
<rect x="296" y="93" width="32" height="32" rx="16" transform="rotate(180 296 93)" fill="#9ACDFF"/>
<mask id="mask0_2632_17804" style="mask-type:alpha" maskUnits="userSpaceOnUse" x="261" y="58" width="35" height="35">
<rect width="35" height="35" transform="matrix(1 -8.74228e-08 -8.74228e-08 -1 261 93)" fill="#D9D9D9"/>
</mask>
<g mask="url(#mask0_2632_17804)">
<path d="M277.054 71.4026C276.885 71.5689 276.801 71.7658 276.801 71.9933C276.801 72.2204 276.885 72.4171 277.054 72.5834L281.995 77.456L277.037 82.3452C276.879 82.5004 276.801 82.6944 276.801 82.9273C276.801 83.1601 276.885 83.3596 277.054 83.5259C277.222 83.6922 277.422 83.7754 277.653 83.7754C277.883 83.7754 278.082 83.6922 278.251 83.5259L283.918 77.9216C283.985 77.8551 284.033 77.783 284.061 77.7054C284.089 77.6278 284.103 77.5447 284.103 77.456C284.103 77.3673 284.089 77.2841 284.061 77.2065C284.033 77.1289 283.985 77.0568 283.918 76.9903L278.234 71.386C278.077 71.2308 277.883 71.1532 277.653 71.1532C277.422 71.1532 277.222 71.2363 277.054 71.4026Z" fill="white"/>
</g>
<rect width="142" height="32" rx="16" transform="matrix(-1 0 0 1 240 41)" fill="#9ACDFF"/>
<rect width="100" height="32" rx="16" transform="matrix(-1 0 0 1 198 81)" fill="#9ACDFF"/>
<path d="M71.957 51.3672C73.3763 52.3828 74.9193 53.1901 76.5859 53.7891L74.457 57.8711C73.5846 57.6107 72.7318 57.2526 71.8984 56.7969C71.7161 56.7057 70.4336 55.8594 68.0508 54.2578C66.1758 55.0781 64.099 55.4883 61.8203 55.4883C57.4193 55.4883 53.9688 54.1927 51.4688 51.6016C48.9818 49.0104 47.7383 45.3711 47.7383 40.6836C47.7383 36.0091 48.9883 32.3763 51.4883 29.7852C53.9883 27.181 57.3802 25.8789 61.6641 25.8789C65.9089 25.8789 69.2747 27.181 71.7617 29.7852C74.2487 32.3763 75.4922 36.0091 75.4922 40.6836C75.4922 43.1576 75.1471 45.332 74.457 47.207C73.9362 48.6393 73.1029 50.026 71.957 51.3672ZM67.3086 48.1055C68.0508 47.2331 68.6042 46.1784 68.9688 44.9414C69.3464 43.7044 69.5352 42.2852 69.5352 40.6836C69.5352 37.3763 68.806 34.9089 67.3477 33.2812C65.8893 31.6406 63.9818 30.8203 61.625 30.8203C59.2682 30.8203 57.3542 31.6406 55.8828 33.2812C54.4245 34.9219 53.6953 37.3893 53.6953 40.6836C53.6953 44.0299 54.4245 46.5365 55.8828 48.2031C57.3542 49.8568 59.2096 50.6836 61.4492 50.6836C62.2826 50.6836 63.0703 50.5469 63.8125 50.2734C62.6406 49.5052 61.4492 48.9062 60.2383 48.4766L61.8594 45.1758C63.7604 45.8268 65.5768 46.8034 67.3086 48.1055Z" fill="#9ACDFF"/>
<rect x="25.5" y="0.5" width="282" height="153" rx="19.5" stroke="#9ACDFF"/>
</svg>
