<svg width="140" height="153" viewBox="0 0 140 153" fill="none" xmlns="http://www.w3.org/2000/svg">
<path d="M56.7977 47.8615C64.0893 47.8615 70.2681 41.5647 66.6053 35.26C65.5247 33.3999 64.2004 31.6713 62.6531 30.124C57.9488 25.4197 51.5684 22.7768 44.9155 22.7768C38.2626 22.7768 31.8822 25.4197 27.1779 30.124C25.6306 31.6713 24.3063 33.3999 23.2257 35.2599C19.5629 41.5647 25.7417 47.8615 33.0333 47.8615H56.7977Z" fill="white" fill-opacity="0.8"/>
<path d="M83.2027 47.8615C75.9112 47.8615 69.7324 54.1583 73.3952 60.4631C74.4757 62.3232 75.8 64.0518 77.3474 65.5991C82.0517 70.3034 88.4321 72.9463 95.0849 72.9463C101.738 72.9463 108.118 70.3034 112.823 65.5991C114.37 64.0518 115.694 62.3232 116.775 60.4631C120.438 54.1583 114.259 47.8615 106.967 47.8615H83.2027Z" fill="white" fill-opacity="0.4"/>
<path d="M70.0002 61.064C70.0002 53.7725 63.7034 47.5937 57.3986 51.2565C55.5386 52.3371 53.81 53.6614 52.2626 55.2087C47.5583 59.913 44.9155 66.2934 44.9155 72.9463C44.9155 79.5991 47.5583 85.9795 52.2626 90.6838C53.8099 92.2311 55.5386 93.5555 57.3986 94.636C63.7034 98.2988 70.0002 92.12 70.0002 84.8285V61.064Z" fill="white" fill-opacity="0.6"/>
<path d="M70.0002 34.6591C70.0002 41.9506 76.297 48.1294 82.6018 44.4666C84.4618 43.386 86.1905 42.0617 87.7378 40.5144C92.4421 35.8101 95.0849 29.4297 95.0849 22.7768C95.0849 16.1239 92.4421 9.74354 87.7378 5.03925C86.1905 3.49193 84.4618 2.16763 82.6018 1.08704C76.297 -2.57575 70.0002 3.60305 70.0002 10.8946L70.0002 34.6591Z" fill="white"/>
<path d="M25.3358 116.908C24.4687 116.908 23.7657 117.604 23.7657 118.462V151.33C23.7657 152.188 24.4687 152.884 25.3358 152.884H27.4556C28.3227 152.884 29.0257 152.188 29.0257 151.33V118.462C29.0257 117.604 28.3227 116.908 27.4556 116.908H25.3358ZM26.8667 130.661C25.9996 130.661 25.2966 131.357 25.2966 132.215V133.342C25.2966 134.2 25.9996 134.896 26.8667 134.896H32.4801C33.3472 134.896 34.0502 134.2 34.0502 133.342V132.215C34.0502 131.357 33.3472 130.661 32.4801 130.661H26.8667ZM15.1298 120.638C14.6312 120.638 14.227 121.038 14.227 121.531C14.227 130.717 10.2214 137.111 1.78364 141.913C0.948698 142.388 0.687909 143.477 1.25715 144.246L2.29344 145.646C2.74676 146.258 3.58332 146.459 4.25694 146.096C14.8817 140.37 18.9229 131.971 19.3004 122.193C19.3335 121.335 18.627 120.638 17.7598 120.638H15.1298ZM3.74615 120.638C2.87897 120.638 2.17599 121.334 2.17599 122.192V123.241C2.17599 124.099 2.87897 124.795 3.74615 124.795H16.8962C17.7634 124.795 18.4664 124.099 18.4664 123.241V122.192C18.4664 121.334 17.7634 120.638 16.8962 120.638H3.74615Z" fill="white"/>
<path d="M61.6035 116.986C60.7363 116.986 60.0333 117.682 60.0333 118.54V136.761C60.0333 137.619 60.7363 138.315 61.6035 138.315H63.6839C64.5511 138.315 65.2541 137.619 65.2541 136.761V118.54C65.2541 117.682 64.5511 116.986 63.6839 116.986H61.6035ZM62.9773 125.417C62.1102 125.417 61.4072 126.112 61.4072 126.971V128.136C61.4072 128.994 62.1102 129.69 62.9773 129.69H68.5122C69.3793 129.69 70.0823 128.994 70.0823 128.136V126.971C70.0823 126.112 69.3793 125.417 68.5122 125.417H62.9773ZM43.1541 139.869C42.2869 139.869 41.5839 140.565 41.5839 141.423V150.98C41.5839 151.839 42.2869 152.534 43.1541 152.534H63.6839C64.5511 152.534 65.2541 151.839 65.2541 150.98V141.423C65.2541 140.565 64.5511 139.869 63.6839 139.869H43.1541ZM58.5809 143.909C59.4481 143.909 60.1511 144.605 60.1511 145.463V146.901C60.1511 147.759 59.4481 148.455 58.5809 148.455H48.2964C47.4292 148.455 46.7262 147.759 46.7262 146.901V145.463C46.7262 144.605 47.4292 143.909 48.2964 143.909H58.5809ZM39.5035 132.876C38.6363 132.876 37.9333 133.572 37.9333 134.43V135.518C37.9333 136.376 38.6363 137.072 39.5035 137.072H40.9951C47.6438 137.072 52.0382 136.912 56.5994 136.161C57.4091 136.027 57.9593 135.283 57.8661 134.476L57.7518 133.485C57.6483 132.589 56.7982 131.971 55.8977 132.109C51.5208 132.784 47.3424 132.876 40.9951 132.876H39.5035ZM39.4642 118.734C38.597 118.734 37.894 119.43 37.894 120.288V121.298C37.894 122.157 38.597 122.852 39.4642 122.852H47.8449C48.6796 122.852 49.3562 123.522 49.3562 124.348C49.3562 125.174 48.6796 125.844 47.8449 125.844H39.5035C38.6363 125.844 37.9333 126.54 37.9333 127.398V135.168C37.9333 136.026 38.6363 136.722 39.5035 136.722L41.5447 136.722C42.4118 136.722 43.1148 136.026 43.1148 135.168V131.244C43.1148 130.386 43.8178 129.69 44.685 129.69H52.9283C53.7955 129.69 54.4985 128.994 54.4985 128.136V120.288C54.4985 119.43 53.7955 118.734 52.9283 118.734H39.4642Z" fill="white"/>
<path d="M100.462 116.947C99.5947 116.947 98.8917 117.643 98.8917 118.501V151.369C98.8917 152.227 99.5947 152.923 100.462 152.923H102.307C103.174 152.923 103.877 152.227 103.877 151.369V118.501C103.877 117.643 103.174 116.947 102.307 116.947H100.462ZM94.1419 130.506C93.2748 130.506 92.5718 131.202 92.5718 132.06V133.07C92.5718 133.928 93.2748 134.624 94.1419 134.624H100.305C101.172 134.624 101.875 133.928 101.875 133.07V132.06C101.875 131.202 101.172 130.506 100.305 130.506H94.1419ZM84.564 121.337C83.9569 121.337 83.4649 121.824 83.4649 122.425C83.4649 130.483 80.9295 136.302 73.8422 140.993C73.0373 141.526 72.8419 142.634 73.4634 143.369L74.4497 144.536C74.9408 145.116 75.7879 145.264 76.434 144.859C85.1935 139.358 88.1351 131.938 88.4257 122.892C88.4532 122.034 87.7471 121.337 86.88 121.337H84.564ZM75.6926 121.337C74.8254 121.337 74.1224 122.033 74.1224 122.891V123.94C74.1224 124.798 74.8254 125.494 75.6926 125.494H86.5659C87.4331 125.494 88.1361 124.798 88.1361 123.94V122.891C88.1361 122.033 87.4331 121.337 86.5659 121.337H75.6926ZM92.4148 117.879C91.5476 117.879 90.8446 118.575 90.8446 119.434V149.815C90.8446 150.673 91.5476 151.369 92.4148 151.369H94.1419C95.0091 151.369 95.7121 150.673 95.7121 149.815V119.434C95.7121 118.575 95.0091 117.879 94.1419 117.879H92.4148Z" fill="white"/>
<path d="M135.356 116.908C134.488 116.908 133.785 117.604 133.785 118.462V151.446C133.785 152.305 134.488 153.001 135.356 153.001H137.475C138.342 153.001 139.045 152.305 139.045 151.446V118.462C139.045 117.604 138.342 116.908 137.475 116.908H135.356ZM112.235 119.783C111.368 119.783 110.665 120.479 110.665 121.337V143.055C110.665 143.913 111.368 144.609 112.235 144.609H126.955C127.822 144.609 128.525 143.913 128.525 143.055V121.337C128.525 120.479 127.822 119.783 126.955 119.783H124.914C124.047 119.783 123.344 120.479 123.344 121.337V126.971C123.344 127.829 122.641 128.525 121.774 128.525H117.416C116.549 128.525 115.846 127.829 115.846 126.971V121.337C115.846 120.479 115.143 119.783 114.276 119.783H112.235ZM115.846 134.08C115.846 133.222 116.549 132.526 117.416 132.526H121.774C122.641 132.526 123.344 133.222 123.344 134.08V138.898C123.344 139.756 122.641 140.452 121.774 140.452H117.416C116.549 140.452 115.846 139.756 115.846 138.898V134.08Z" fill="white"/>
</svg>
