<svg width="24" height="20" viewBox="0 0 24 20" fill="none" xmlns="http://www.w3.org/2000/svg">
<path d="M17.8333 13.4998C17.0167 13.4998 16.3264 13.2179 15.7625 12.654C15.1986 12.0901 14.9167 11.3998 14.9167 10.5832C14.9167 9.7665 15.1986 9.07623 15.7625 8.51234C16.3264 7.94845 17.0167 7.6665 17.8333 7.6665C18.65 7.6665 19.3403 7.94845 19.9042 8.51234C20.4681 9.07623 20.75 9.7665 20.75 10.5832C20.75 11.3998 20.4681 12.0901 19.9042 12.654C19.3403 13.2179 18.65 13.4998 17.8333 13.4998ZM13.1667 19.3332C12.8361 19.3332 12.5592 19.2212 12.336 18.9972C12.112 18.7739 12 18.4971 12 18.1665V17.6998C12 17.2332 12.1213 16.8007 12.364 16.4025C12.6075 16.0035 12.9528 15.7165 13.4 15.5415C14.1 15.2498 14.8245 15.0313 15.5735 14.8858C16.3217 14.7396 17.075 14.6665 17.8333 14.6665C18.5917 14.6665 19.3453 14.7396 20.0943 14.8858C20.8426 15.0313 21.5667 15.2498 22.2667 15.5415C22.7139 15.7165 23.0592 16.0035 23.3027 16.4025C23.5453 16.8007 23.6667 17.2332 23.6667 17.6998V18.1665C23.6667 18.4971 23.5547 18.7739 23.3307 18.9972C23.1075 19.2212 22.8306 19.3332 22.5 19.3332H13.1667ZM9.66668 9.99984C8.38334 9.99984 7.28473 9.54289 6.37084 8.629C5.45695 7.71511 5.00001 6.6165 5.00001 5.33317C5.00001 4.04984 5.45695 2.95123 6.37084 2.03734C7.28473 1.12345 8.38334 0.666504 9.66668 0.666504C10.95 0.666504 12.0486 1.12345 12.9625 2.03734C13.8764 2.95123 14.3333 4.04984 14.3333 5.33317C14.3333 6.6165 13.8764 7.71511 12.9625 8.629C12.0486 9.54289 10.95 9.99984 9.66668 9.99984ZM1.50001 19.3332C1.16945 19.3332 0.892566 19.2212 0.669344 18.9972C0.445344 18.7739 0.333344 18.4971 0.333344 18.1665V15.8332C0.333344 15.3276 0.508344 14.8271 0.858344 14.3317C1.20834 13.8354 1.72362 13.4026 2.40418 13.0332C3.45418 12.4693 4.6014 12.0174 5.84584 11.6775C7.09029 11.3368 8.3639 11.1665 9.66668 11.1665C10.1917 11.1665 10.7509 11.2054 11.3443 11.2832C11.937 11.3609 12.5445 11.4776 13.1667 11.6332V13.1498C12.8945 13.2471 12.6611 13.3443 12.4667 13.4415C12.2722 13.5387 12.0681 13.6457 11.8542 13.7623C11.5042 13.6651 11.1398 13.5971 10.761 13.5582C10.3815 13.5193 10.0167 13.4998 9.66668 13.4998C8.5389 13.4998 7.43562 13.6359 6.35684 13.9082C5.27729 14.1804 4.24168 14.5693 3.25001 15.0748C3.05557 15.1721 2.90973 15.3082 2.81251 15.4832C2.71529 15.6582 2.66668 15.8526 2.66668 16.0665V16.9998H9.66668V19.3332H1.50001ZM9.66668 7.6665C10.3083 7.6665 10.8578 7.43784 11.3152 6.9805C11.7717 6.52395 12 5.97484 12 5.33317C12 4.6915 11.7717 4.14239 11.3152 3.68584C10.8578 3.2285 10.3083 2.99984 9.66668 2.99984C9.02501 2.99984 8.4759 3.2285 8.01934 3.68584C7.56201 4.14239 7.33334 4.6915 7.33334 5.33317C7.33334 5.97484 7.56201 6.52395 8.01934 6.9805C8.4759 7.43784 9.02501 7.6665 9.66668 7.6665Z" fill="#AEAEAE"/>
</svg>
