<svg width="32" height="33" viewBox="0 0 32 33" fill="none" xmlns="http://www.w3.org/2000/svg">
<g clip-path="url(#clip0_94_12545)">
<path d="M1.33398 16.3278C1.33398 10.5485 7.89891 5.86914 16.0006 5.86914C24.1024 5.86914 30.6673 10.5485 30.6673 16.3278C30.6673 22.1071 24.1024 26.4646 16.0006 26.4646C7.89891 26.4646 1.33398 22.0994 1.33398 16.3278ZM11.2063 22.1837C13.9963 23.7167 18.3652 23.184 18.3652 23.184C19.7028 23.184 18.7485 22.3945 18.7485 22.3945C18.5677 22.2927 18.4128 22.1504 18.2961 21.9788C18.1795 21.8072 18.1041 21.6109 18.0759 21.4052C18.0476 21.1996 18.0674 20.9903 18.1336 20.7936C18.1997 20.5969 18.3105 20.4181 18.4572 20.2714C19.1262 19.5361 20.0171 19.0395 20.9943 18.8572C23.7843 17.9796 26.992 18.3973 26.992 18.3973C27.9885 18.5621 27.1568 17.6921 27.1568 17.6921C26.5321 17.1901 26.9077 16.1055 26.9077 16.1055C27.7892 15.0628 29.035 14.3953 30.3914 14.2391L30.2956 13.9325L30.2189 13.7141C29.4116 13.4835 28.5786 13.3548 27.7393 13.3309C22.9105 12.8326 20.4961 14.2046 20.4961 14.2046C16.6253 16.163 20.4961 18.0141 20.4961 18.0141C18.3469 17.6324 16.1455 17.6532 14.004 18.0754C12.9165 18.2217 11.8769 18.615 10.9648 19.2251C8.65773 20.8079 11.2063 22.1837 11.2063 22.1837ZM1.34548 16.6804L1.42596 16.8145C3.28085 19.731 9.85728 18.8572 9.85728 18.8572C10.7771 18.7307 10.0642 18.2747 10.0642 18.2747C8.23617 16.6076 10.5663 15.3582 10.5663 15.3582C13.7893 13.465 18.12 14.1318 18.12 14.1318C19.1202 14.151 18.5377 13.7141 18.5377 13.7141C18.328 13.5112 18.1805 13.2527 18.1127 12.969C18.0448 12.6852 18.0593 12.388 18.1545 12.1121C18.8175 10.5294 21.5653 10.0082 21.5653 10.0082C22.3318 9.69773 21.5653 9.40646 21.5653 9.40646C14.9046 8.03062 11.601 9.94683 11.601 9.94683C7.62681 12.0087 11.831 13.7563 11.831 13.7563C10.2489 13.4902 8.6431 13.3926 7.04046 13.465C1.88202 13.8789 1.36464 15.8564 1.36464 15.8564C1.36464 15.8564 1.34165 16.1055 1.34165 16.3278L1.34548 16.6804ZM13.203 20.6546C13.3814 20.6554 13.5561 20.6031 13.7048 20.5044C13.8535 20.4058 13.9695 20.2651 14.0381 20.1004C14.1068 19.9357 14.1249 19.7543 14.0903 19.5792C14.0557 19.4042 13.9698 19.2433 13.8436 19.1172C13.7175 18.991 13.5566 18.9051 13.3816 18.8705C13.2065 18.8359 13.0251 18.854 12.8604 18.9227C12.6957 18.9913 12.555 19.1073 12.4564 19.256C12.3577 19.4047 12.3054 19.5794 12.3062 19.7578C12.3062 19.9943 12.3996 20.2213 12.5661 20.3892C12.7327 20.5572 12.9588 20.6526 13.1953 20.6546H13.203ZM4.44208 16.439C4.62036 16.4389 4.79464 16.386 4.94282 16.2869C5.09101 16.1878 5.20645 16.0469 5.2745 15.8821C5.34255 15.7173 5.36016 15.536 5.3251 15.3612C5.29003 15.1864 5.20388 15.0259 5.07754 14.9001C4.9512 14.7743 4.79037 14.6889 4.61542 14.6546C4.44046 14.6202 4.25926 14.6386 4.09476 14.7074C3.93026 14.7761 3.78987 14.8922 3.69137 15.0408C3.59287 15.1894 3.5407 15.3639 3.54146 15.5422C3.53891 15.6612 3.5601 15.7796 3.60379 15.8903C3.64747 16.0011 3.71278 16.1021 3.79591 16.1873C3.87903 16.2726 3.9783 16.3405 4.08792 16.387C4.19755 16.4334 4.31534 16.4576 4.43441 16.4581L4.44208 16.439ZM13.0574 11.9512C13.2355 11.9512 13.4096 11.8984 13.5577 11.7994C13.7058 11.7004 13.8212 11.5598 13.8894 11.3952C13.9576 11.2307 13.9754 11.0496 13.9407 10.8749C13.9059 10.7002 13.8201 10.5397 13.6942 10.4137C13.5682 10.2878 13.4078 10.202 13.2331 10.1673C13.0584 10.1325 12.8773 10.1503 12.7127 10.2185C12.5481 10.2867 12.4075 10.4021 12.3085 10.5502C12.2096 10.6983 12.1567 10.8724 12.1567 11.0506C12.1542 11.1698 12.1754 11.2883 12.219 11.3993C12.2626 11.5103 12.3279 11.6115 12.411 11.6971C12.494 11.7827 12.5933 11.8509 12.7029 11.8978C12.8126 11.9447 12.9304 11.9694 13.0497 11.9703L13.0574 11.9512ZM21.8336 16.209C22.0108 16.2082 22.1838 16.155 22.3308 16.056C22.4777 15.957 22.5921 15.8167 22.6594 15.6528C22.7267 15.4888 22.7439 15.3086 22.7088 15.1349C22.6738 14.9612 22.5881 14.8018 22.4625 14.6767C22.337 14.5517 22.1772 14.4667 22.0033 14.4324C21.8295 14.3981 21.6493 14.4161 21.4857 14.4841C21.322 14.5521 21.1822 14.667 21.0838 14.8144C20.9855 14.9618 20.933 15.135 20.933 15.3122C20.9325 15.4305 20.9554 15.5476 21.0006 15.6569C21.0457 15.7662 21.1121 15.8654 21.1959 15.9488C21.2796 16.0323 21.3792 16.0982 21.4886 16.1429C21.5981 16.1875 21.7154 16.21 21.8336 16.209Z" fill="#076CAF"/>
</g>
<defs>
<clipPath id="clip0_94_12545">
<rect width="29.3333" height="20.5954" fill="white" transform="translate(1.33398 5.86914)"/>
</clipPath>
</defs>
</svg>
