<svg width="34" height="32" viewBox="0 0 34 32" fill="none" xmlns="http://www.w3.org/2000/svg">
<path d="M10.3359 7.00016V3.66683C10.3359 2.75016 10.6626 1.96516 11.3159 1.31183C11.9682 0.659607 12.7526 0.333496 13.6693 0.333496H20.3359C21.2526 0.333496 22.0376 0.659607 22.6909 1.31183C23.3432 1.96516 23.6693 2.75016 23.6693 3.66683V7.00016H30.3359C31.2526 7.00016 32.0376 7.32683 32.6909 7.98016C33.3432 8.63238 33.6693 9.41683 33.6693 10.3335V28.6668C33.6693 29.5835 33.3432 30.3685 32.6909 31.0218C32.0376 31.6741 31.2526 32.0002 30.3359 32.0002H3.66927C2.7526 32.0002 1.96816 31.6741 1.31594 31.0218C0.662604 30.3685 0.335938 29.5835 0.335938 28.6668V10.3335C0.335938 9.41683 0.662604 8.63238 1.31594 7.98016C1.96816 7.32683 2.7526 7.00016 3.66927 7.00016H10.3359ZM13.6693 7.00016H20.3359V3.66683H13.6693V7.00016ZM30.3359 22.0002H22.0026V23.6668C22.0026 24.1391 21.8432 24.5346 21.5243 24.8535C21.2043 25.1735 20.8082 25.3335 20.3359 25.3335H13.6693C13.197 25.3335 12.8015 25.1735 12.4826 24.8535C12.1626 24.5346 12.0026 24.1391 12.0026 23.6668V22.0002H3.66927V28.6668H30.3359V22.0002ZM15.3359 22.0002H18.6693V18.6668H15.3359V22.0002ZM3.66927 18.6668H12.0026V17.0002C12.0026 16.5279 12.1626 16.1318 12.4826 15.8118C12.8015 15.4929 13.197 15.3335 13.6693 15.3335H20.3359C20.8082 15.3335 21.2043 15.4929 21.5243 15.8118C21.8432 16.1318 22.0026 16.5279 22.0026 17.0002V18.6668H30.3359V10.3335H3.66927V18.6668Z" fill="black" fill-opacity="0.8"/>
</svg>
