<svg width="33" height="33" viewBox="0 0 33 33" fill="none" xmlns="http://www.w3.org/2000/svg">
<g clip-path="url(#clip0_94_12492)">
<path d="M21.2043 18.6285C21.1359 18.2288 21.0196 17.8388 20.8578 17.4667C20.3879 16.362 19.582 15.4315 18.5533 14.806C17.7409 14.3296 16.8138 14.0814 15.8709 14.088C14.9279 14.0946 14.0044 14.3557 13.1988 14.8435C12.4483 15.2912 11.84 15.9407 11.4441 16.7173C11.3093 16.9827 11.1959 17.2584 11.1052 17.5417C10.86 18.2775 10.7664 19.0549 10.8298 19.8276C10.8932 20.6002 11.1123 21.3522 11.4742 22.0387C11.7217 22.4588 12.0997 22.7876 12.5511 22.9756C12.7764 23.069 13.0207 23.1081 13.2641 23.0899C13.5075 23.0717 13.7432 22.9966 13.9519 22.8706C14.1816 22.6893 14.3531 22.4452 14.4454 22.1683C14.5377 21.8914 14.5468 21.5937 14.4715 21.3117C14.2966 20.5952 14.3148 19.8454 14.5242 19.1381C14.6074 18.9069 14.7412 18.697 14.9159 18.5235C15.0244 18.4195 15.149 18.3335 15.2849 18.2687C15.5686 18.1268 15.8892 18.0745 16.2037 18.1188C16.4765 18.1775 16.7314 18.2998 16.9475 18.4757C17.1635 18.6516 17.3345 18.8761 17.4463 19.1306C17.6554 19.6295 17.7654 20.164 17.7701 20.7046C17.774 23.1455 17.411 25.5732 16.6932 27.9072C16.6254 28.1471 16.5576 28.3794 16.4974 28.6193C16.4371 28.8591 16.3468 29.0315 16.4974 29.2114C16.5499 29.2857 16.6233 29.343 16.7082 29.3763C17.0697 29.5187 17.3559 29.3013 17.5969 29.0615C18.9649 27.6032 19.973 25.848 20.5415 23.9349C20.7782 23.2339 20.9669 22.5177 21.1064 21.7914C21.3215 20.7432 21.3597 19.6667 21.2193 18.606" fill="#008375"/>
<path d="M31.3264 7.5205C31.3237 7.43807 31.3041 7.35706 31.2688 7.28242C31.2336 7.20778 31.1834 7.14108 31.1214 7.08637C31.0594 7.03167 30.9868 6.99011 30.9081 6.96423C30.8294 6.93836 30.7463 6.92872 30.6637 6.93589C30.3167 6.98367 29.9805 7.09012 29.6696 7.25067C23.3252 9.5104 16.5124 10.1495 9.85548 9.10943C8.73336 8.94454 7.59618 8.72719 6.46652 8.54731C5.75861 8.43488 5.05822 8.27749 4.35031 8.22503C3.71022 8.1028 3.0474 8.22883 2.49768 8.57729C2.21529 8.88635 2.04016 9.27754 1.99813 9.69317C1.95609 10.1088 2.04937 10.5269 2.26422 10.8857C2.74389 11.7033 3.43927 12.3746 4.275 12.8269C5.05064 13.374 5.96858 13.6863 6.91838 13.7263C9.42872 13.5614 11.9391 13.3116 14.4494 12.9768C18.7044 12.4297 23.1553 11.9125 27.1542 10.2711C28.4772 9.74751 29.7235 9.04923 30.8595 8.19504C31.0628 8.04514 31.3565 7.79032 31.3565 7.49802" fill="#008375"/>
<path d="M13.4766 5.39975C13.4766 6.04578 13.7344 6.66535 14.1934 7.12217C14.6524 7.57898 15.275 7.83562 15.9241 7.83562C16.5733 7.83562 17.1958 7.57898 17.6548 7.12217C18.1139 6.66535 18.3717 6.04578 18.3717 5.39975C18.3714 5.19803 18.3277 4.99872 18.2437 4.81514C18.0328 4.37294 17.7918 4.15559 17.822 3.62345C17.822 2.91143 16.9258 2.87395 16.4287 2.87395C15.8761 2.85603 15.3269 2.96639 14.8246 3.19625C14.4345 3.39385 14.1043 3.69137 13.8682 4.05817C13.6205 4.43255 13.4848 4.86918 13.4766 5.31732V5.37727" fill="#D50037"/>
</g>
<defs>
<clipPath id="clip0_94_12492">
<rect width="29.3333" height="26.5397" fill="white" transform="translate(2 2.89648)"/>
</clipPath>
</defs>
</svg>
