<svg width="32" height="33" viewBox="0 0 32 33" fill="none" xmlns="http://www.w3.org/2000/svg">
<g clip-path="url(#clip0_94_12513)">
<path d="M16.0064 6.4707C7.16559 6.4707 1.33789 11.1104 1.33789 16.8369C1.33789 22.5634 7.16184 27.1993 16.0064 27.1993C24.851 27.1993 30.6712 22.5559 30.6712 16.8369C30.6712 11.1179 24.8435 6.4707 16.0064 6.4707Z" fill="white"/>
<path d="M18.6293 20.7085C21.1478 20.27 29.6514 18.5199 28.602 13.6703C28.2272 11.9276 26.4358 10.0126 23.73 8.68212C21.2821 7.6304 18.6399 7.10681 15.976 7.14556C7.77223 7.14556 2.06445 11.4854 2.06445 16.8371C2.06445 20.5624 4.83401 23.7966 9.29004 25.4156C10.2232 22.9272 13.9859 21.5105 18.6293 20.7085Z" fill="#007DC5"/>
<path d="M16.0063 22.4252C12.3223 22.8862 10.6358 24.0742 9.55273 25.5171C11.6152 26.2024 13.7768 26.5418 15.9501 26.5214C24.1576 26.5214 29.8653 22.1853 29.8653 16.8374C29.8653 16.3683 29.8214 15.9003 29.7342 15.4395C29.4756 21.7206 20.0463 21.923 16.0063 22.4252Z" fill="url(#paint0_linear_94_12513)"/>
<path d="M8.04574 11.7773H5.29492L5.3249 11.856C5.43423 12.2854 5.47097 12.73 5.43359 13.1715C5.43359 13.2839 5.43359 19.5426 5.43359 19.5426H5.48605C5.48605 19.5426 6.74154 19.5876 7.91832 19.5876C10.3768 19.5876 12.0408 17.9236 12.0408 15.4426C12.0258 13.209 10.463 11.7773 8.04574 11.7773ZM6.61036 12.4707C6.76776 12.4707 7.25496 12.422 7.6035 12.422C9.70597 12.422 10.6841 13.4413 10.6841 15.6262C10.6841 17.8749 9.81465 18.9992 8.027 18.9992C6.7153 18.9992 6.61036 18.9355 6.61036 18.1597V12.4707Z" fill="white"/>
<path d="M19.4132 19.4715C19.3719 19.0142 19.3532 18.7219 19.3532 18.4408V15.7238H18.049L18.0902 15.81C18.1942 16.0744 18.239 16.3584 18.2214 16.642C18.2214 16.6607 18.2214 18.5158 18.1764 18.9693C17.8441 19.0422 17.5048 19.0786 17.1645 19.078C15.0883 19.078 14.0352 17.8862 14.0352 15.5401C14.0352 13.7487 15.2195 12.4108 16.9172 12.2871C17.7371 12.2017 18.5584 12.4352 19.2108 12.9392L19.3045 13.0217V11.9236H19.2595C18.6704 11.7961 18.0706 11.7246 17.4681 11.71C14.4699 11.71 12.6973 13.2803 12.6973 15.9149C12.6973 18.7182 14.8747 19.7188 16.9134 19.7188C17.7338 19.7214 18.5532 19.6613 19.3644 19.5389H19.4169L19.4132 19.4715Z" fill="white"/>
<path d="M24.0779 15.2702C24.4884 15.1712 24.8546 14.9392 25.1196 14.6105C25.3846 14.2818 25.5336 13.8747 25.5433 13.4526C25.5433 12.4032 24.5951 11.7773 23.0098 11.7773H20.6562V11.8448C20.716 12.1836 20.7399 12.5278 20.7275 12.8717V19.5913H20.7837C20.7837 19.5913 21.7094 19.5726 22.8449 19.5726C24.8237 19.5726 25.9593 18.7144 25.9593 17.2153C25.9743 16.2896 25.206 15.5138 24.0779 15.2702ZM21.9155 15.645H22.5226C23.9243 15.645 24.6363 16.1959 24.6363 17.2827C24.6363 18.3696 24.0254 18.9842 22.7625 18.9842C22.1553 18.9842 21.9155 18.7631 21.9155 18.1972V15.645ZM21.9155 12.3807H22.6838C23.8943 12.3807 24.4115 12.7555 24.4115 13.6062C24.4115 14.5806 23.7781 15.0379 22.4139 15.0379H21.9117L21.9155 12.3807Z" fill="white"/>
</g>
<defs>
<linearGradient id="paint0_linear_94_12513" x1="9.21919" y1="20.9786" x2="30.034" y2="20.9786" gradientUnits="userSpaceOnUse">
<stop offset="0.1" stop-color="#007DC5"/>
<stop offset="0.23" stop-color="#0083CB"/>
<stop offset="0.4" stop-color="#0095DA"/>
<stop offset="0.75" stop-color="#00B49D"/>
<stop offset="1" stop-color="#72BF44"/>
</linearGradient>
<clipPath id="clip0_94_12513">
<rect width="29.3333" height="20.7248" fill="white" transform="translate(1.33398 6.4707)"/>
</clipPath>
</defs>
</svg>
