<svg width="33" height="33" viewBox="0 0 33 33" fill="none" xmlns="http://www.w3.org/2000/svg">
<g clip-path="url(#clip0_94_12486)">
<path d="M30.8298 12.4951C31.1065 11.6597 31.0402 10.7486 30.6455 9.96198C30.2507 9.17539 29.5598 8.5777 28.7246 8.30025L11.3413 2.46453C10.9276 2.32411 10.49 2.26753 10.0541 2.2981C9.61826 2.32866 9.19285 2.44576 8.80273 2.64255" fill="white"/>
<path d="M8.80197 2.64258C8.01479 3.03652 7.41625 3.72692 7.13794 4.56201L1.83627 20.498C1.56171 21.3335 1.62901 22.2437 2.02348 23.0297C2.41794 23.8157 3.10749 24.4137 3.94146 24.6929L21.3325 30.5286C21.7465 30.6673 22.1839 30.723 22.6195 30.6924C23.0551 30.6619 23.4804 30.5457 23.8711 30.3506C24.2609 30.1568 24.6082 29.8873 24.8926 29.5577C25.177 29.2281 25.3928 28.8451 25.5274 28.4311L30.8368 12.4952" fill="white"/>
<path d="M17.3078 17.9512C16.3508 19.0236 15.1551 19.8561 13.8173 20.3815L13.0433 20.6833V13.2997L13.8173 13.6015C15.1569 14.1241 16.3551 14.9539 17.3156 16.024C17.9234 15.0296 18.3067 13.9143 18.4386 12.7563C18.5706 11.5983 18.448 10.4254 18.0794 9.31971C17.7108 8.21401 17.1052 7.20215 16.3048 6.35489C15.5045 5.50763 14.5287 4.84541 13.4457 4.41454L10.9071 3.5477C10.6383 3.45949 10.3547 3.42514 10.0726 3.44666C9.79052 3.46817 9.51542 3.54512 9.26309 3.67309C9.01075 3.80105 8.78614 3.97753 8.60209 4.19241C8.41804 4.40729 8.27818 4.65636 8.19051 4.92536L2.87337 20.8768C2.69976 21.426 2.74943 22.0214 3.01162 22.5342C3.27381 23.047 3.72742 23.4359 4.27424 23.6166L16.3404 27.6413C17.5438 26.3563 18.2894 24.71 18.4616 22.9579C18.6337 21.2058 18.2227 19.4459 17.2924 17.9512H17.3078ZM10.3267 12.8585V21.14H9.12701V12.8817L10.3267 12.8585Z" fill="#2293C8"/>
<path d="M16.6119 16.9837C15.9323 16.19 15.1075 15.5333 14.1816 15.0488V18.9187C15.1114 18.4303 15.9369 17.7651 16.6119 16.9605" fill="#E43D30"/>
<path d="M28.345 9.36069L17.2695 5.66113C18.6607 7.18247 19.4948 9.13071 19.6354 11.1874C19.776 13.2442 19.2148 15.2878 18.0435 16.9843C19.1816 18.6301 19.7467 20.6046 19.6516 22.6033C19.5564 24.602 18.8064 26.5139 17.5172 28.0442L21.6811 29.4297C21.9499 29.5189 22.2337 29.5541 22.5162 29.533C22.7986 29.512 23.0741 29.4352 23.3266 29.3071C23.5792 29.1791 23.804 29.0022 23.9878 28.7868C24.1716 28.5713 24.311 28.3216 24.3978 28.052L29.7381 12.1083C29.9142 11.5602 29.8666 10.9647 29.6056 10.4515C29.3447 9.93838 28.8916 9.54909 28.345 9.36844V9.36069ZM25.4117 21.125H23.9102L20.8143 16.9843L23.9102 12.8513H25.4581L22.3622 16.9998L25.4117 21.125Z" fill="#215C9C"/>
</g>
<defs>
<clipPath id="clip0_94_12486">
<rect width="29.3333" height="28.4123" fill="white" transform="translate(1.66602 2.29395)"/>
</clipPath>
</defs>
</svg>
