<svg width="28" height="28" viewBox="0 0 28 28" fill="none" xmlns="http://www.w3.org/2000/svg">
<mask id="mask0_639_5477" style="mask-type:alpha" maskUnits="userSpaceOnUse" x="0" y="0" width="28" height="28">
<rect width="28" height="28" fill="#D9D9D9"/>
</mask>
<g mask="url(#mask0_639_5477)">
<path d="M6.82501 19.9502C7.81668 19.1918 8.92501 18.5937 10.15 18.1558C11.375 17.7187 12.6583 17.5002 14 17.5002C15.3417 17.5002 16.625 17.7187 17.85 18.1558C19.075 18.5937 20.1833 19.1918 21.175 19.9502C21.8556 19.1529 22.3856 18.2488 22.7652 17.2377C23.144 16.2266 23.3333 15.1474 23.3333 14.0002C23.3333 11.4141 22.4245 9.21177 20.6068 7.39333C18.7884 5.57566 16.5861 4.66683 14 4.66683C11.4139 4.66683 9.21201 5.57566 7.39434 7.39333C5.5759 9.21177 4.66668 11.4141 4.66668 14.0002C4.66668 15.1474 4.85645 16.2266 5.23601 17.2377C5.61479 18.2488 6.14445 19.1529 6.82501 19.9502ZM14 15.1668C12.8528 15.1668 11.8852 14.7733 11.0973 13.9862C10.3102 13.1983 9.91668 12.2307 9.91668 11.0835C9.91668 9.93627 10.3102 8.96872 11.0973 8.18083C11.8852 7.39372 12.8528 7.00016 14 7.00016C15.1472 7.00016 16.1148 7.39372 16.9027 8.18083C17.6898 8.96872 18.0833 9.93627 18.0833 11.0835C18.0833 12.2307 17.6898 13.1983 16.9027 13.9862C16.1148 14.7733 15.1472 15.1668 14 15.1668ZM14 25.6668C12.3861 25.6668 10.8695 25.3604 9.45001 24.7475C8.03057 24.1354 6.79584 23.3043 5.74584 22.2543C4.69584 21.2043 3.86479 19.9696 3.25268 18.5502C2.63979 17.1307 2.33334 15.6141 2.33334 14.0002C2.33334 12.3863 2.63979 10.8696 3.25268 9.45016C3.86479 8.03072 4.69584 6.796 5.74584 5.746C6.79584 4.696 8.03057 3.86455 9.45001 3.25166C10.8695 2.63955 12.3861 2.3335 14 2.3335C15.6139 2.3335 17.1306 2.63955 18.55 3.25166C19.9695 3.86455 21.2042 4.696 22.2542 5.746C23.3042 6.796 24.1352 8.03072 24.7473 9.45016C25.3602 10.8696 25.6667 12.3863 25.6667 14.0002C25.6667 15.6141 25.3602 17.1307 24.7473 18.5502C24.1352 19.9696 23.3042 21.2043 22.2542 22.2543C21.2042 23.3043 19.9695 24.1354 18.55 24.7475C17.1306 25.3604 15.6139 25.6668 14 25.6668ZM14 23.3335C15.0306 23.3335 16.0028 23.183 16.9167 22.882C17.8306 22.5802 18.6667 22.1474 19.425 21.5835C18.6667 21.0196 17.8306 20.5868 16.9167 20.285C16.0028 19.984 15.0306 19.8335 14 19.8335C12.9695 19.8335 11.9972 19.984 11.0833 20.285C10.1695 20.5868 9.33334 21.0196 8.57501 21.5835C9.33334 22.1474 10.1695 22.5802 11.0833 22.882C11.9972 23.183 12.9695 23.3335 14 23.3335ZM14 12.8335C14.5056 12.8335 14.9236 12.6682 15.2542 12.3377C15.5847 12.0071 15.75 11.5891 15.75 11.0835C15.75 10.5779 15.5847 10.1599 15.2542 9.82933C14.9236 9.49877 14.5056 9.3335 14 9.3335C13.4945 9.3335 13.0764 9.49877 12.7458 9.82933C12.4153 10.1599 12.25 10.5779 12.25 11.0835C12.25 11.5891 12.4153 12.0071 12.7458 12.3377C13.0764 12.6682 13.4945 12.8335 14 12.8335Z" fill="#AEAEAE"/>
</g>
</svg>
