<svg width="96" height="24" viewBox="0 0 96 24" fill="none" xmlns="http://www.w3.org/2000/svg">
<circle cx="6" cy="12" r="6" fill="#2294FF"/>
<circle cx="36" cy="12" r="12" fill="#2294FF"/>
<path d="M32.9591 18H39.9031V16.264H37.6631C37.1731 16.264 36.4871 16.334 35.9691 16.39C37.8591 14.542 39.4271 12.526 39.4271 10.636C39.4271 8.704 38.1111 7.458 36.1651 7.458C34.7511 7.458 33.8131 8.004 32.8611 9.026L33.9951 10.146C34.5271 9.558 35.1291 9.068 35.8991 9.068C36.8931 9.068 37.4391 9.712 37.4391 10.748C37.4391 12.344 35.7871 14.29 32.9591 16.824V18Z" fill="white"/>
<circle cx="66" cy="12" r="5.5" stroke="#2294FF"/>
<circle cx="90" cy="12" r="5.5" stroke="#2294FF"/>
</svg>
