<svg width="5" height="8" viewBox="0 0 5 8" fill="none" xmlns="http://www.w3.org/2000/svg">
<path d="M0.158103 7.8419C0.0527009 7.7365 0 7.6117 0 7.46751C0 7.3236 0.0527009 7.19895 0.158103 7.09354L3.24638 4.00527L0.147563 0.906456C0.0491875 0.808081 0 0.685112 0 0.537549C0 0.389987 0.0527009 0.263505 0.158103 0.158103C0.263505 0.0527009 0.3883 0 0.53249 0C0.676399 0 0.801054 0.0527009 0.906456 0.158103L4.44796 3.71014C4.49012 3.75231 4.52005 3.79798 4.53776 3.84717C4.55519 3.89635 4.5639 3.94906 4.5639 4.00527C4.5639 4.06148 4.55519 4.11419 4.53776 4.16337C4.52005 4.21256 4.49012 4.25823 4.44796 4.3004L0.895915 7.85244C0.79754 7.95081 0.676399 8 0.53249 8C0.3883 8 0.263505 7.9473 0.158103 7.8419Z" fill="#8A8A8A"/>
</svg>
