<svg width="33" height="33" viewBox="0 0 33 33" fill="none" xmlns="http://www.w3.org/2000/svg">
<g clip-path="url(#clip0_94_12508)">
<path d="M29.5596 13.9451H30.3154C30.3393 13.9451 30.3622 13.9356 30.3791 13.9188C30.396 13.9019 30.4055 13.879 30.4055 13.8551V12.4301C30.4055 12.4184 30.4031 12.4068 30.3986 12.3959C30.394 12.3851 30.3874 12.3753 30.379 12.3671C30.3706 12.3588 30.3607 12.3524 30.3498 12.348C30.3388 12.3437 30.3272 12.3416 30.3154 12.3418H29.2539C28.026 12.3418 27.3755 12.7341 27.0035 13.5681L24.6954 19.2221C24.649 19.3779 24.55 19.5128 24.4153 19.6039C24.2806 19.6949 24.1185 19.7364 23.9566 19.7214V12.4301C23.9566 12.4184 23.9542 12.4068 23.9497 12.3959C23.9451 12.3851 23.9385 12.3753 23.9301 12.3671C23.9217 12.3588 23.9118 12.3524 23.9009 12.348C23.89 12.3437 23.8783 12.3416 23.8666 12.3418H22.1681C22.1564 12.3416 22.1447 12.3437 22.1338 12.348C22.1229 12.3524 22.113 12.3588 22.1046 12.3671C22.0962 12.3753 22.0895 12.3851 22.085 12.3959C22.0805 12.4068 22.0781 12.4184 22.0781 12.4301V21.1685C22.0786 21.2101 22.0954 21.2498 22.125 21.2791C22.1546 21.3083 22.1945 21.3247 22.2361 21.3247H24.14C25.3663 21.3247 25.9284 20.9324 26.2987 20.0985L28.578 14.5141C28.7614 14.1184 29.0246 13.9451 29.5596 13.9451Z" fill="#D71920"/>
<path d="M8.82595 16.8341C9.50531 16.5505 10.0692 15.9136 10.0692 14.8605C10.0692 13.2929 8.72404 12.3418 7.10206 12.3418H2.08833C2.06491 12.3418 2.04245 12.3511 2.02588 12.3677C2.00932 12.3842 2.00002 12.4067 2.00002 12.4301V13.8551C1.99979 13.8668 2.00191 13.8785 2.00625 13.8894C2.01058 13.9003 2.01705 13.9103 2.02528 13.9186C2.0335 13.927 2.04331 13.9337 2.05414 13.9382C2.06497 13.9428 2.07659 13.9451 2.08833 13.9451H6.75558C7.50798 13.9451 8.0175 14.4054 8.0175 14.9642C8.0175 15.5229 7.50798 15.9917 6.75558 15.9917H3.98207V14.937C3.9823 14.9251 3.98013 14.9133 3.97569 14.9023C3.97124 14.8912 3.96462 14.8812 3.95622 14.8728C3.94781 14.8644 3.9378 14.8578 3.92677 14.8533C3.91574 14.8489 3.90394 14.8467 3.89205 14.847H2.08833C2.07659 14.847 2.06497 14.8493 2.05414 14.8538C2.04331 14.8584 2.0335 14.865 2.02528 14.8734C2.01705 14.8818 2.01058 14.8917 2.00625 14.9027C2.00191 14.9136 1.99979 14.9252 2.00002 14.937V21.233C2.00002 21.2564 2.00932 21.2789 2.02588 21.2954C2.04245 21.312 2.06491 21.3213 2.08833 21.3213H7.03072C8.8786 21.3213 10.2017 20.4602 10.2017 18.7024C10.2054 18.284 10.0734 17.8757 9.82531 17.5389C9.57724 17.202 9.22656 16.9547 8.82595 16.8341ZM6.85239 19.7605H3.98207V17.6544H6.85239C7.62347 17.6544 8.14658 18.1266 8.14658 18.7075C8.14658 19.2883 7.62347 19.7605 6.85239 19.7605Z" fill="#D71920"/>
<path d="M31.3164 21.2207L28.407 17.5012C28.4058 17.499 28.4041 17.4973 28.402 17.496C28.3999 17.4948 28.3975 17.4941 28.3951 17.4941C28.3927 17.4941 28.3903 17.4948 28.3882 17.496C28.3861 17.4973 28.3844 17.499 28.3832 17.5012L27.6002 19.417C27.5973 19.4224 27.5957 19.4286 27.5957 19.4348C27.5957 19.441 27.5973 19.4472 27.6002 19.4526L28.8723 21.151C28.9091 21.2066 28.9599 21.2516 29.0195 21.2814C29.0791 21.3112 29.1455 21.3248 29.212 21.3209H31.2603C31.2727 21.3229 31.2854 21.321 31.2966 21.3155C31.3079 21.3101 31.3172 21.3013 31.3233 21.2904C31.3295 21.2794 31.3321 21.2669 31.3308 21.2544C31.3296 21.242 31.3245 21.2302 31.3164 21.2207V21.2207Z" fill="#D71920"/>
<path d="M13.3861 14.8506H11.6877C11.6638 14.8506 11.6409 14.8601 11.624 14.877C11.6071 14.8938 11.5977 14.9167 11.5977 14.9406V21.2366C11.5977 21.2484 11.6 21.26 11.6045 21.2708C11.6091 21.2816 11.6157 21.2915 11.6241 21.2997C11.6325 21.3079 11.6424 21.3144 11.6534 21.3187C11.6643 21.3231 11.6759 21.3252 11.6877 21.3249H13.3861C13.4097 21.3249 13.4323 21.3157 13.4491 21.2992C13.466 21.2827 13.4757 21.2602 13.4761 21.2366V14.9372C13.4752 14.9139 13.4654 14.8919 13.4486 14.8757C13.4318 14.8596 13.4094 14.8506 13.3861 14.8506V14.8506Z" fill="#D71920"/>
<path d="M20.3753 12.3418H18.6769C18.6653 12.3418 18.6538 12.3441 18.6431 12.3485C18.6324 12.353 18.6227 12.3595 18.6145 12.3677C18.6063 12.3759 18.5997 12.3856 18.5953 12.3963C18.5909 12.407 18.5886 12.4185 18.5886 12.4301V19.7214C18.4267 19.7364 18.2646 19.6949 18.1299 19.6039C17.9952 19.5128 17.8962 19.3779 17.8498 19.2221L15.5382 13.5681C15.168 12.7341 14.5192 12.3418 13.2895 12.3418H11.6896C11.6779 12.3416 11.6662 12.3437 11.6553 12.348C11.6444 12.3524 11.6345 12.3588 11.6261 12.3671C11.6177 12.3753 11.611 12.3851 11.6065 12.3959C11.6019 12.4068 11.5996 12.4184 11.5996 12.4301V13.8551C11.5996 13.879 11.6091 13.9019 11.626 13.9188C11.6429 13.9356 11.6658 13.9451 11.6896 13.9451H12.9821C13.5188 13.9451 13.7804 14.115 13.9638 14.5141L16.2431 20.0985C16.615 20.9324 17.1755 21.3247 18.4035 21.3247H20.3057C20.3473 21.3247 20.3872 21.3083 20.4168 21.2791C20.4464 21.2498 20.4632 21.2101 20.4636 21.1685V12.4301C20.4636 12.4067 20.4543 12.3842 20.4378 12.3677C20.4212 12.3511 20.3987 12.3418 20.3753 12.3418V12.3418Z" fill="#D71920"/>
</g>
<defs>
<clipPath id="clip0_94_12508">
<rect width="29.3333" height="8.98292" fill="white" transform="translate(2 12.3418)"/>
</clipPath>
</defs>
</svg>
