<svg width="80" height="80" viewBox="0 0 80 80" fill="none" xmlns="http://www.w3.org/2000/svg">
<path d="M33.6555 40C37.1595 40 40.1287 36.9741 38.3686 33.9443C37.8493 33.0504 37.2129 32.2197 36.4693 31.4762C34.2086 29.2155 31.1425 27.9455 27.9455 27.9455C24.7484 27.9455 21.6823 29.2155 19.4216 31.4762C18.6781 32.2197 18.0417 33.0504 17.5224 33.9443C15.7622 36.9741 18.7315 40 22.2354 40H33.6555Z" fill="#D9D9D9" fill-opacity="0.8"/>
<path d="M46.3445 40C42.8405 40 39.8713 43.0259 41.6314 46.0557C42.1507 46.9496 42.7871 47.7803 43.5307 48.5238C45.7914 50.7845 48.8575 52.0545 52.0545 52.0545C55.2516 52.0545 58.3177 50.7845 60.5784 48.5238C61.3219 47.7803 61.9583 46.9496 62.4776 46.0557C64.2378 43.0259 61.2685 40 57.7646 40H46.3445Z" fill="#D9D9D9" fill-opacity="0.4"/>
<path d="M40 46.3445C40 42.8405 36.9741 39.8713 33.9443 41.6314C33.0504 42.1507 32.2197 42.7871 31.4762 43.5307C29.2155 45.7914 27.9455 48.8575 27.9455 52.0545C27.9455 55.2516 29.2155 58.3177 31.4762 60.5784C32.2197 61.3219 33.0504 61.9583 33.9443 62.4776C36.9741 64.2378 40 61.2685 40 57.7646V46.3445Z" fill="#D9D9D9" fill-opacity="0.6"/>
<path d="M40 33.6555C40 37.1595 43.0259 40.1287 46.0557 38.3686C46.9496 37.8493 47.7803 37.2129 48.5238 36.4693C50.7845 34.2086 52.0545 31.1425 52.0545 27.9455C52.0545 24.7484 50.7845 21.6823 48.5238 19.4216C47.7803 18.6781 46.9496 18.0417 46.0557 17.5224C43.0259 15.7622 40 18.7315 40 22.2354L40 33.6555Z" fill="#D9D9D9"/>
<rect x="0.5" y="0.5" width="79" height="79" rx="11.5" stroke="#D9D9D9"/>
</svg>
