<svg width="12" height="15" viewBox="0 0 12 15" fill="none" xmlns="http://www.w3.org/2000/svg">
<path d="M1.33333 14.1663C0.966667 14.1663 0.652667 14.0359 0.391333 13.775C0.130444 13.5137 0 13.1997 0 12.833V3.49967H1.33333V12.833H8.66667V14.1663H1.33333ZM4 11.4997C3.63333 11.4997 3.31956 11.3692 3.05867 11.1083C2.79733 10.847 2.66667 10.533 2.66667 10.1663V2.16634C2.66667 1.79967 2.79733 1.48567 3.05867 1.22434C3.31956 0.963452 3.63333 0.833008 4 0.833008H10C10.3667 0.833008 10.6807 0.963452 10.942 1.22434C11.2029 1.48567 11.3333 1.79967 11.3333 2.16634V10.1663C11.3333 10.533 11.2029 10.847 10.942 11.1083C10.6807 11.3692 10.3667 11.4997 10 11.4997H4ZM4 10.1663H10V2.16634H4V10.1663Z" fill="#2294FF"/>
</svg>
