<svg width="33" height="33" viewBox="0 0 33 33" fill="none" xmlns="http://www.w3.org/2000/svg">
<g clip-path="url(#clip0_94_12534)">
<path fill-rule="evenodd" clip-rule="evenodd" d="M12.601 30.1692C11.9483 30.6116 11.1853 30.8636 10.3976 30.8971C9.48007 30.8805 8.60272 30.5179 7.9412 29.8819C7.27969 29.2459 6.88284 28.3835 6.83008 27.4674L10.5287 25.2705L16.2668 27.8412L12.601 30.1692Z" fill="#72A3B6"/>
<path fill-rule="evenodd" clip-rule="evenodd" d="M14.7842 20.7128L12.0431 19.5061C10.8167 18.9684 9.66255 18.5028 9.66255 17.1584C9.64443 16.8965 9.6831 16.6337 9.77591 16.3881C9.86872 16.1425 10.0135 15.9198 10.2003 15.7354L15.9909 18.2798L14.5678 19.1192C14.1678 19.3553 13.9121 19.5717 13.9121 19.8799C13.9121 20.1881 14.2858 20.4898 14.8039 20.7128H14.7842Z" fill="#96CE8E"/>
<path fill-rule="evenodd" clip-rule="evenodd" d="M17.473 8.06327L14.6597 9.77487C14.4105 9.9257 14.0695 10.1618 14.0695 10.5421C14.0695 10.9225 14.7253 11.2897 15.2958 11.5652L11.7874 10.0175C10.7578 9.55845 9.7151 9.04695 9.7151 7.7944C9.70806 7.32712 9.84548 6.86906 10.1086 6.48282L17.7157 1.83984C18.2481 2.13258 18.6936 2.561 19.0069 3.08161C19.3202 3.60222 19.4901 4.19648 19.4994 4.80401C19.504 5.48577 19.3164 6.15502 18.958 6.73499C18.5995 7.31495 18.0849 7.78214 17.473 8.08294V8.06327Z" fill="#72A3B6"/>
<path fill-rule="evenodd" clip-rule="evenodd" d="M23.4475 13.5451L22.7524 13.9452L16.9355 11.381L23.6902 7.30859C24.2242 7.60298 24.6717 8.03219 24.9881 8.55342C25.3045 9.07466 25.4788 9.66972 25.4936 10.2793C25.5044 10.9648 25.317 11.6389 24.9541 12.2205C24.5912 12.8022 24.068 13.2667 23.4475 13.5582V13.5451Z" fill="#96CE8E"/>
<path fill-rule="evenodd" clip-rule="evenodd" d="M18.5355 18.4902L21.9784 19.9985C23.2899 20.5756 23.6637 21.2576 23.6637 22.1102C23.6524 22.3625 23.5881 22.6097 23.4752 22.8356C23.3622 23.0616 23.203 23.2612 23.0079 23.4217L17.2305 20.8511L18.201 20.3133C19.0273 19.8477 19.3093 19.5788 19.3093 19.2772C19.3093 18.9755 19.106 18.7591 18.542 18.4968L18.5355 18.4902Z" fill="#72A3B6"/>
<path fill-rule="evenodd" clip-rule="evenodd" d="M24.6815 31.166C23.1514 30.0629 21.4961 29.1449 19.75 28.4314L11.0018 24.5426C8.79834 23.5589 7.33594 22.2604 7.33594 20.057C7.33594 17.8535 8.37208 16.883 9.71645 16.0305L10.2017 15.7354C10.0149 15.9198 9.87014 16.1425 9.77733 16.3881C9.68452 16.6337 9.64584 16.8965 9.66397 17.1584C9.66397 18.5028 10.8182 18.9684 12.0445 19.5061L22.2223 23.9917C24.006 24.759 25.6193 26.0706 25.6193 28.2871C25.6413 29.3252 25.3107 30.34 24.6815 31.166V31.166Z" fill="#4C9847"/>
<path fill-rule="evenodd" clip-rule="evenodd" d="M23.6319 23.0152L22.9762 23.4152C23.1712 23.2548 23.3304 23.0551 23.4434 22.8291C23.5563 22.6032 23.6206 22.356 23.6319 22.1037C23.6319 21.2512 23.2319 20.5691 21.9466 19.992L11.0605 15.2114C8.85707 14.2211 7.48649 12.9686 7.48649 10.7782C7.47928 9.89113 7.71738 9.01927 8.17449 8.25895C8.63161 7.49863 9.28995 6.87943 10.0768 6.46973C9.81374 6.85597 9.67632 7.31402 9.68336 7.7813C9.68336 9.03385 10.7261 9.54538 11.7556 10.0044L22.3335 14.6736C24.2681 15.5327 25.8288 16.8312 25.8288 19.1658C25.8512 19.9494 25.6543 20.7237 25.2604 21.4015C24.8665 22.0793 24.2911 22.6337 23.5991 23.0021L23.6319 23.0152Z" fill="#296085"/>
</g>
<defs>
<clipPath id="clip0_94_12534">
<rect width="19.044" height="29.3333" fill="white" transform="translate(6.81055 1.83301)"/>
</clipPath>
</defs>
</svg>
