<svg width="24" height="24" viewBox="0 0 24 24" fill="none" xmlns="http://www.w3.org/2000/svg">
<mask id="mask0_637_9991" style="mask-type:alpha" maskUnits="userSpaceOnUse" x="0" y="0" width="24" height="24">
<rect width="24" height="24" fill="#D9D9D9"/>
</mask>
<g mask="url(#mask0_637_9991)">
<path d="M13 23C12.7167 23 12.4793 22.904 12.288 22.712C12.096 22.5207 12 22.2833 12 22C12 21.7167 12.096 21.4793 12.288 21.288C12.4793 21.096 12.7167 21 13 21H19V20H17C16.45 20 15.9793 19.8043 15.588 19.413C15.196 19.021 15 18.55 15 18V14C15 13.45 15.196 12.979 15.588 12.587C15.9793 12.1957 16.45 12 17 12H19V11C19 9.06667 18.3167 7.41667 16.95 6.05C15.5833 4.68333 13.9333 4 12 4C10.0667 4 8.41667 4.68333 7.05 6.05C5.68333 7.41667 5 9.06667 5 11V12H7C7.55 12 8.02067 12.1957 8.412 12.587C8.804 12.979 9 13.45 9 14V18C9 18.55 8.804 19.021 8.412 19.413C8.02067 19.8043 7.55 20 7 20H5C4.45 20 3.979 19.8043 3.587 19.413C3.19567 19.021 3 18.55 3 18V11C3 9.76667 3.23733 8.604 3.712 7.512C4.18733 6.42067 4.83333 5.46667 5.65 4.65C6.46667 3.83333 7.42067 3.18733 8.512 2.712C9.604 2.23733 10.7667 2 12 2C13.2333 2 14.396 2.23733 15.488 2.712C16.5793 3.18733 17.5333 3.83333 18.35 4.65C19.1667 5.46667 19.8127 6.42067 20.288 7.512C20.7627 8.604 21 9.76667 21 11V21C21 21.55 20.8043 22.021 20.413 22.413C20.021 22.8043 19.55 23 19 23H13ZM5 18H7V14H5V18ZM17 18H19V14H17V18Z" fill="#1C1B1F"/>
</g>
</svg>
