<svg width="18" height="21" viewBox="0 0 18 21" fill="none" xmlns="http://www.w3.org/2000/svg">
<path d="M10 21C9.71667 21 9.47933 20.904 9.288 20.712C9.096 20.5207 9 20.2833 9 20C9 19.7167 9.096 19.4793 9.288 19.288C9.47933 19.096 9.71667 19 10 19H16V18H14C13.45 18 12.9793 17.8043 12.588 17.413C12.196 17.021 12 16.55 12 16V12C12 11.45 12.196 10.979 12.588 10.587C12.9793 10.1957 13.45 10 14 10H16V9C16 7.06667 15.3167 5.41667 13.95 4.05C12.5833 2.68333 10.9333 2 9 2C7.06667 2 5.41667 2.68333 4.05 4.05C2.68333 5.41667 2 7.06667 2 9V10H4C4.55 10 5.02067 10.1957 5.412 10.587C5.804 10.979 6 11.45 6 12V16C6 16.55 5.804 17.021 5.412 17.413C5.02067 17.8043 4.55 18 4 18H2C1.45 18 0.979 17.8043 0.587 17.413C0.195667 17.021 0 16.55 0 16V9C0 7.76667 0.237333 6.604 0.712 5.512C1.18733 4.42067 1.83333 3.46667 2.65 2.65C3.46667 1.83333 4.42067 1.18733 5.512 0.712C6.604 0.237333 7.76667 0 9 0C10.2333 0 11.396 0.237333 12.488 0.712C13.5793 1.18733 14.5333 1.83333 15.35 2.65C16.1667 3.46667 16.8127 4.42067 17.288 5.512C17.7627 6.604 18 7.76667 18 9V19C18 19.55 17.8043 20.021 17.413 20.413C17.021 20.8043 16.55 21 16 21H10ZM2 16H4V12H2V16ZM14 16H16V12H14V16Z" fill="#1C1B1F"/>
</svg>
