<svg width="60" height="60" viewBox="0 0 60 60" fill="none" xmlns="http://www.w3.org/2000/svg">
<path d="M21.7246 30C26.295 30 30.1679 26.0531 27.872 22.1012C27.1947 20.9353 26.3646 19.8518 25.3948 18.8819C22.4461 15.9333 18.4468 14.2767 14.2767 14.2767C10.1066 14.2767 6.10733 15.9333 3.15864 18.8819C2.18877 19.8518 1.35869 20.9353 0.681366 22.1012C-1.6145 26.0531 2.25842 30 6.82881 30H21.7246Z" fill="#D9D9D9" fill-opacity="0.8"/>
<path d="M38.2754 30C33.705 30 29.8321 33.9469 32.128 37.8988C32.8053 39.0647 33.6354 40.1482 34.6052 41.1181C37.5539 44.0667 41.5532 45.7233 45.7233 45.7233C49.8934 45.7233 53.8927 44.0667 56.8414 41.1181C57.8112 40.1482 58.6413 39.0647 59.3186 37.8988C61.6145 33.9469 57.7416 30 53.1712 30H38.2754Z" fill="#D9D9D9" fill-opacity="0.4"/>
<path d="M30 38.2754C30 33.705 26.0531 29.8321 22.1012 32.128C20.9353 32.8053 19.8518 33.6354 18.8819 34.6052C15.9333 37.5539 14.2767 41.5532 14.2767 45.7233C14.2767 49.8934 15.9332 53.8927 18.8819 56.8414C19.8518 57.8112 20.9353 58.6413 22.1012 59.3186C26.0531 61.6145 30 57.7416 30 53.1712V38.2754Z" fill="#D9D9D9" fill-opacity="0.6"/>
<path d="M30 21.7246C30 26.295 33.9469 30.1679 37.8988 27.872C39.0647 27.1947 40.1482 26.3646 41.1181 25.3948C44.0667 22.4461 45.7233 18.4468 45.7233 14.2767C45.7233 10.1066 44.0667 6.10733 41.1181 3.15864C40.1482 2.18877 39.0647 1.35869 37.8988 0.681366C33.9469 -1.6145 30 2.25842 30 6.82881L30 21.7246Z" fill="#D9D9D9"/>
</svg>
