<svg width="22" height="22" viewBox="0 0 22 22" fill="none" xmlns="http://www.w3.org/2000/svg">
<path d="M22 11C22 17.0751 17.0751 22 11 22C4.92487 22 0 17.0751 0 11C0 4.92487 4.92487 0 11 0C17.0751 0 22 4.92487 22 11Z" fill="white"/>
<path d="M10 16H12V12H16V10H12V6H10V10H6V12H10V16ZM11 21C9.61667 21 8.31667 20.7373 7.1 20.212C5.88333 19.6873 4.825 18.975 3.925 18.075C3.025 17.175 2.31267 16.1167 1.788 14.9C1.26267 13.6833 1 12.3833 1 11C1 9.61667 1.26267 8.31667 1.788 7.1C2.31267 5.88333 3.025 4.825 3.925 3.925C4.825 3.025 5.88333 2.31233 7.1 1.787C8.31667 1.26233 9.61667 1 11 1C12.3833 1 13.6833 1.26233 14.9 1.787C16.1167 2.31233 17.175 3.025 18.075 3.925C18.975 4.825 19.6873 5.88333 20.212 7.1C20.7373 8.31667 21 9.61667 21 11C21 12.3833 20.7373 13.6833 20.212 14.9C19.6873 16.1167 18.975 17.175 18.075 18.075C17.175 18.975 16.1167 19.6873 14.9 20.212C13.6833 20.7373 12.3833 21 11 21Z" fill="#2294FF"/>
</svg>
