<svg width="33" height="33" viewBox="0 0 33 33" fill="none" xmlns="http://www.w3.org/2000/svg">
<g clip-path="url(#clip0_94_12556)">
<path d="M29.9987 3.5H3.33203V30.1667H29.9987V3.5Z" fill="#0091D0"/>
<path d="M3.33203 3.5L9.99675 10.1686L16.6654 3.5H3.33203Z" fill="#0091D0"/>
<path d="M3.33203 3.5V16.8333L9.99675 10.1686L3.33203 3.5Z" fill="#009AD8"/>
<path d="M16.6654 16.8332L10.0006 10.1646L3.33203 16.8332H16.6654Z" fill="#0091D0"/>
<path d="M16.6647 16.8333V3.5L10 10.1647L16.6647 16.8333Z" fill="#0082C9"/>
<path d="M16.666 3.5V16.8333L23.3307 10.1686L16.666 3.5Z" fill="#0071BB"/>
<path d="M29.9993 16.8332L23.3346 10.1646L16.666 16.8332H29.9993Z" fill="#004C98"/>
<path d="M3.33203 16.8335L9.99675 23.5021L16.6654 16.8335H3.33203Z" fill="#0082C9"/>
<path d="M3.33203 16.8335V30.1668L9.99675 23.5021L3.33203 16.8335Z" fill="#0071BB"/>
<path d="M16.6654 30.1667L10.0006 23.498L3.33203 30.1667H16.6654Z" fill="#0066B3"/>
<path d="M16.6647 30.1668V16.8335L10 23.4982L16.6647 30.1668Z" fill="#00529C"/>
<path d="M16.666 16.8335L23.3307 23.5021L29.9993 16.8335H16.666Z" fill="#1B3281"/>
<path d="M16.666 16.8335V30.1668L23.3307 23.5021L16.666 16.8335Z" fill="#004C98"/>
<path d="M29.9993 30.1667L23.3346 23.498L16.666 30.1667H29.9993Z" fill="#1B3281"/>
<path d="M29.9987 30.1668V16.8335L23.334 23.4982L29.9987 30.1668Z" fill="#1B3281"/>
<path d="M16.666 3.5L23.3307 10.1686L29.9993 3.5H16.666Z" fill="#0066B3"/>
<path d="M29.9987 16.8333V3.5L23.334 10.1647L29.9987 16.8333Z" fill="#00529C"/>
<path d="M29.9977 20.1679L21.4594 12.0386L8.50391 25.0252L13.2288 29.7501L21.4594 21.6481L29.9977 30.1397V20.1679Z" fill="white"/>
</g>
<defs>
<clipPath id="clip0_94_12556">
<rect width="26.6667" height="26.6667" fill="white" transform="translate(3.33203 3.5)"/>
</clipPath>
</defs>
</svg>
