<svg width="24" height="24" viewBox="0 0 24 24" fill="none" xmlns="http://www.w3.org/2000/svg">
<mask id="mask0_421_8727" style="mask-type:alpha" maskUnits="userSpaceOnUse" x="0" y="0" width="24" height="24">
<rect width="24" height="24" fill="#D9D9D9"/>
</mask>
<g mask="url(#mask0_421_8727)">
<path d="M16.9999 15C16.2999 15 15.7082 14.7583 15.2249 14.275C14.7415 13.7917 14.4999 13.2 14.4999 12.5C14.4999 11.8 14.7415 11.2083 15.2249 10.725C15.7082 10.2417 16.2999 10 16.9999 10C17.6999 10 18.2915 10.2417 18.7749 10.725C19.2582 11.2083 19.4999 11.8 19.4999 12.5C19.4999 13.2 19.2582 13.7917 18.7749 14.275C18.2915 14.7583 17.6999 15 16.9999 15ZM12.9999 20C12.7165 20 12.4792 19.904 12.2879 19.712C12.0959 19.5207 11.9999 19.2833 11.9999 19V18.6C11.9999 18.2 12.1039 17.8293 12.3119 17.488C12.5205 17.146 12.8165 16.9 13.1999 16.75C13.7999 16.5 14.4209 16.3127 15.0629 16.188C15.7042 16.0627 16.3499 16 16.9999 16C17.6499 16 18.2959 16.0627 18.9379 16.188C19.5792 16.3127 20.1999 16.5 20.7999 16.75C21.1832 16.9 21.4792 17.146 21.6879 17.488C21.8959 17.8293 21.9999 18.2 21.9999 18.6V19C21.9999 19.2833 21.9039 19.5207 21.7119 19.712C21.5205 19.904 21.2832 20 20.9999 20H12.9999ZM9.99988 12C8.89988 12 7.95821 11.6083 7.17488 10.825C6.39154 10.0417 5.99988 9.1 5.99988 8C5.99988 6.9 6.39154 5.95833 7.17488 5.175C7.95821 4.39167 8.89988 4 9.99988 4C11.0999 4 12.0415 4.39167 12.8249 5.175C13.6082 5.95833 13.9999 6.9 13.9999 8C13.9999 9.1 13.6082 10.0417 12.8249 10.825C12.0415 11.6083 11.0999 12 9.99988 12ZM2.99988 20C2.71654 20 2.47921 19.904 2.28788 19.712C2.09588 19.5207 1.99988 19.2833 1.99988 19V17C1.99988 16.5667 2.14988 16.1377 2.44988 15.713C2.74988 15.2877 3.19154 14.9167 3.77488 14.6C4.67488 14.1167 5.65821 13.7293 6.72488 13.438C7.79154 13.146 8.88321 13 9.99988 13C10.4499 13 10.9292 13.0333 11.4379 13.1C11.9459 13.1667 12.4665 13.2667 12.9999 13.4V14.7C12.7665 14.7833 12.5665 14.8667 12.3999 14.95C12.2332 15.0333 12.0582 15.125 11.8749 15.225C11.5749 15.1417 11.2625 15.0833 10.9379 15.05C10.6125 15.0167 10.2999 15 9.99988 15C9.03321 15 8.08754 15.1167 7.16288 15.35C6.23754 15.5833 5.34988 15.9167 4.49988 16.35C4.33321 16.4333 4.20821 16.55 4.12488 16.7C4.04154 16.85 3.99988 17.0167 3.99988 17.2V18H9.99988V20H2.99988ZM9.99988 10C10.5499 10 11.0209 9.804 11.4129 9.412C11.8042 9.02067 11.9999 8.55 11.9999 8C11.9999 7.45 11.8042 6.97933 11.4129 6.588C11.0209 6.196 10.5499 6 9.99988 6C9.44988 6 8.97921 6.196 8.58788 6.588C8.19588 6.97933 7.99988 7.45 7.99988 8C7.99988 8.55 8.19588 9.02067 8.58788 9.412C8.97921 9.804 9.44988 10 9.99988 10Z" fill="#2294FF"/>
</g>
</svg>
